<svg width="2321" height="105" viewBox="0 0 2321 105" fill="none" xmlns="http://www.w3.org/2000/svg">
<path d="M87.243 63.092C87.243 63.5653 87.101 66.074 86.817 70.618H32.857C33.993 73.5527 35.8864 75.8247 38.537 77.434C41.1877 78.9487 44.501 79.706 48.477 79.706C51.885 79.706 54.725 79.28 56.997 78.428C59.3637 77.576 61.9197 76.1087 64.665 74.026L81.421 90.924C73.8477 99.2547 62.535 103.42 47.483 103.42C38.111 103.42 29.875 101.716 22.775 98.308C15.675 94.8053 10.1844 89.9773 6.30302 83.824C2.42169 77.6707 0.481024 70.76 0.481024 63.092C0.481024 55.3293 2.37436 48.4187 6.16102 42.36C10.0424 36.2067 15.2964 31.426 21.923 28.018C28.6444 24.61 36.1704 22.906 44.501 22.906C52.3584 22.906 59.5057 24.468 65.943 27.592C72.475 30.716 77.6344 35.3073 81.421 41.366C85.3024 47.4247 87.243 54.6667 87.243 63.092ZM44.785 44.774C41.4717 44.774 38.7264 45.6733 36.549 47.472C34.3717 49.2707 32.9517 51.8267 32.289 55.14H57.281C56.6184 51.9213 55.1984 49.4127 53.021 47.614C50.8437 45.7207 48.0984 44.774 44.785 44.774ZM127.901 32.704C133.581 26.172 141.959 22.906 153.035 22.906V51.306C150.479 50.9273 148.112 50.738 145.935 50.738C134.953 50.738 129.463 56.3233 129.463 67.494V102H97.3705V24.326H127.901V32.704ZM192.66 32.704C198.34 26.172 206.718 22.906 217.794 22.906V51.306C215.238 50.9273 212.872 50.738 210.694 50.738C199.713 50.738 194.222 56.3233 194.222 67.494V102H162.13V24.326H192.66V32.704ZM267.235 103.42C258.62 103.42 250.857 101.716 243.947 98.308C237.131 94.8053 231.782 90.0247 227.901 83.966C224.019 77.8127 222.079 70.8547 222.079 63.092C222.079 55.3293 224.019 48.4187 227.901 42.36C231.782 36.2067 237.131 31.426 243.947 28.018C250.857 24.61 258.62 22.906 267.235 22.906C275.944 22.906 283.707 24.61 290.523 28.018C297.433 31.426 302.782 36.2067 306.569 42.36C310.45 48.4187 312.391 55.3293 312.391 63.092C312.391 70.8547 310.45 77.8127 306.569 83.966C302.782 90.0247 297.433 94.8053 290.523 98.308C283.707 101.716 275.944 103.42 267.235 103.42ZM267.235 78.428C270.927 78.428 273.956 77.1027 276.323 74.452C278.689 71.7067 279.873 67.92 279.873 63.092C279.873 58.264 278.689 54.5247 276.323 51.874C273.956 49.2233 270.927 47.898 267.235 47.898C263.543 47.898 260.513 49.2233 258.147 51.874C255.78 54.5247 254.597 58.264 254.597 63.092C254.597 67.92 255.78 71.7067 258.147 74.452C260.513 77.1027 263.543 78.428 267.235 78.428ZM352.965 32.704C358.645 26.172 367.023 22.906 378.099 22.906V51.306C375.543 50.9273 373.176 50.738 370.999 50.738C360.018 50.738 354.527 56.3233 354.527 67.494V102H322.435V24.326H352.965V32.704ZM478.551 84.96H465.345V102H432.827V84.96H381.281V63.66L423.455 2.59999H457.819L420.331 58.974H433.821V43.78H465.345V58.974H478.551V84.96ZM528.238 104.272C519.434 104.272 511.624 102.237 504.808 98.166C498.087 94.0007 492.786 88.0367 488.904 80.274C485.118 72.4167 483.224 63.092 483.224 52.3C483.224 41.508 485.118 32.2307 488.904 24.468C492.786 16.6107 498.087 10.6467 504.808 6.57599C511.624 2.41066 519.434 0.327997 528.238 0.327997C537.042 0.327997 544.805 2.41066 551.526 6.57599C558.342 10.6467 563.644 16.6107 567.43 24.468C571.312 32.2307 573.252 41.508 573.252 52.3C573.252 63.092 571.312 72.4167 567.43 80.274C563.644 88.0367 558.342 94.0007 551.526 98.166C544.805 102.237 537.042 104.272 528.238 104.272ZM528.238 77.434C535.812 77.434 539.598 69.056 539.598 52.3C539.598 35.544 535.812 27.166 528.238 27.166C520.665 27.166 516.878 35.544 516.878 52.3C516.878 69.056 520.665 77.434 528.238 77.434ZM677.961 84.96H664.755V102H632.237V84.96H580.691V63.66L622.865 2.59999H657.229L619.741 58.974H633.231V43.78H664.755V58.974H677.961V84.96ZM727.479 48.892H770.079V73.032H727.479V48.892ZM908.735 63.092C908.735 63.5653 908.593 66.074 908.309 70.618H854.349C855.485 73.5527 857.379 75.8247 860.029 77.434C862.68 78.9487 865.993 79.706 869.969 79.706C873.377 79.706 876.217 79.28 878.489 78.428C880.856 77.576 883.412 76.1087 886.157 74.026L902.913 90.924C895.34 99.2547 884.027 103.42 868.975 103.42C859.603 103.42 851.367 101.716 844.267 98.308C837.167 94.8053 831.677 89.9773 827.795 83.824C823.914 77.6707 821.973 70.76 821.973 63.092C821.973 55.3293 823.867 48.4187 827.653 42.36C831.535 36.2067 836.789 31.426 843.415 28.018C850.137 24.61 857.663 22.906 865.993 22.906C873.851 22.906 880.998 24.468 887.435 27.592C893.967 30.716 899.127 35.3073 902.913 41.366C906.795 47.4247 908.735 54.6667 908.735 63.092ZM866.277 44.774C862.964 44.774 860.219 45.6733 858.041 47.472C855.864 49.2707 854.444 51.8267 853.781 55.14H878.773C878.111 51.9213 876.691 49.4127 874.513 47.614C872.336 45.7207 869.591 44.774 866.277 44.774ZM949.393 32.704C955.073 26.172 963.451 22.906 974.527 22.906V51.306C971.971 50.9273 969.604 50.738 967.427 50.738C956.445 50.738 950.955 56.3233 950.955 67.494V102H918.863V24.326H949.393V32.704ZM1014.15 32.704C1019.83 26.172 1028.21 22.906 1039.29 22.906V51.306C1036.73 50.9273 1034.36 50.738 1032.19 50.738C1021.21 50.738 1015.71 56.3233 1015.71 67.494V102H983.622V24.326H1014.15V32.704ZM1088.73 103.42C1080.11 103.42 1072.35 101.716 1065.44 98.308C1058.62 94.8053 1053.27 90.0247 1049.39 83.966C1045.51 77.8127 1043.57 70.8547 1043.57 63.092C1043.57 55.3293 1045.51 48.4187 1049.39 42.36C1053.27 36.2067 1058.62 31.426 1065.44 28.018C1072.35 24.61 1080.11 22.906 1088.73 22.906C1097.44 22.906 1105.2 24.61 1112.01 28.018C1118.93 31.426 1124.27 36.2067 1128.06 42.36C1131.94 48.4187 1133.88 55.3293 1133.88 63.092C1133.88 70.8547 1131.94 77.8127 1128.06 83.966C1124.27 90.0247 1118.93 94.8053 1112.01 98.308C1105.2 101.716 1097.44 103.42 1088.73 103.42ZM1088.73 78.428C1092.42 78.428 1095.45 77.1027 1097.81 74.452C1100.18 71.7067 1101.36 67.92 1101.36 63.092C1101.36 58.264 1100.18 54.5247 1097.81 51.874C1095.45 49.2233 1092.42 47.898 1088.73 47.898C1085.03 47.898 1082.01 49.2233 1079.64 51.874C1077.27 54.5247 1076.09 58.264 1076.09 63.092C1076.09 67.92 1077.27 71.7067 1079.64 74.452C1082.01 77.1027 1085.03 78.428 1088.73 78.428ZM1174.46 32.704C1180.14 26.172 1188.52 22.906 1199.59 22.906V51.306C1197.04 50.9273 1194.67 50.738 1192.49 50.738C1181.51 50.738 1176.02 56.3233 1176.02 67.494V102H1143.93V24.326H1174.46V32.704ZM1300.04 84.96H1286.84V102H1254.32V84.96H1202.77V63.66L1244.95 2.59999H1279.31L1241.82 58.974H1255.31V43.78H1286.84V58.974H1300.04V84.96ZM1349.73 104.272C1340.93 104.272 1333.12 102.237 1326.3 98.166C1319.58 94.0007 1314.28 88.0367 1310.4 80.274C1306.61 72.4167 1304.72 63.092 1304.72 52.3C1304.72 41.508 1306.61 32.2307 1310.4 24.468C1314.28 16.6107 1319.58 10.6467 1326.3 6.57599C1333.12 2.41066 1340.93 0.327997 1349.73 0.327997C1358.53 0.327997 1366.3 2.41066 1373.02 6.57599C1379.83 10.6467 1385.14 16.6107 1388.92 24.468C1392.8 32.2307 1394.74 41.508 1394.74 52.3C1394.74 63.092 1392.8 72.4167 1388.92 80.274C1385.14 88.0367 1379.83 94.0007 1373.02 98.166C1366.3 102.237 1358.53 104.272 1349.73 104.272ZM1349.73 77.434C1357.3 77.434 1361.09 69.056 1361.09 52.3C1361.09 35.544 1357.3 27.166 1349.73 27.166C1342.16 27.166 1338.37 35.544 1338.37 52.3C1338.37 69.056 1342.16 77.434 1349.73 77.434ZM1499.45 84.96H1486.25V102H1453.73V84.96H1402.18V63.66L1444.36 2.59999H1478.72L1441.23 58.974H1454.72V43.78H1486.25V58.974H1499.45V84.96ZM1548.97 48.892H1591.57V73.032H1548.97V48.892ZM1730.23 63.092C1730.23 63.5653 1730.09 66.074 1729.8 70.618H1675.84C1676.98 73.5527 1678.87 75.8247 1681.52 77.434C1684.17 78.9487 1687.49 79.706 1691.46 79.706C1694.87 79.706 1697.71 79.28 1699.98 78.428C1702.35 77.576 1704.9 76.1087 1707.65 74.026L1724.41 90.924C1716.83 99.2547 1705.52 103.42 1690.47 103.42C1681.1 103.42 1672.86 101.716 1665.76 98.308C1658.66 94.8053 1653.17 89.9773 1649.29 83.824C1645.41 77.6707 1643.47 70.76 1643.47 63.092C1643.47 55.3293 1645.36 48.4187 1649.15 42.36C1653.03 36.2067 1658.28 31.426 1664.91 28.018C1671.63 24.61 1679.15 22.906 1687.49 22.906C1695.34 22.906 1702.49 24.468 1708.93 27.592C1715.46 30.716 1720.62 35.3073 1724.41 41.366C1728.29 47.4247 1730.23 54.6667 1730.23 63.092ZM1687.77 44.774C1684.46 44.774 1681.71 45.6733 1679.53 47.472C1677.36 49.2707 1675.94 51.8267 1675.27 55.14H1700.27C1699.6 51.9213 1698.18 49.4127 1696.01 47.614C1693.83 45.7207 1691.08 44.774 1687.77 44.774ZM1770.88 32.704C1776.56 26.172 1784.94 22.906 1796.02 22.906V51.306C1793.46 50.9273 1791.1 50.738 1788.92 50.738C1777.94 50.738 1772.45 56.3233 1772.45 67.494V102H1740.35V24.326H1770.88V32.704ZM1835.64 32.704C1841.32 26.172 1849.7 22.906 1860.78 22.906V51.306C1858.22 50.9273 1855.86 50.738 1853.68 50.738C1842.7 50.738 1837.21 56.3233 1837.21 67.494V102H1805.11V24.326H1835.64V32.704ZM1910.22 103.42C1901.6 103.42 1893.84 101.716 1886.93 98.308C1880.12 94.8053 1874.77 90.0247 1870.89 83.966C1867 77.8127 1865.06 70.8547 1865.06 63.092C1865.06 55.3293 1867 48.4187 1870.89 42.36C1874.77 36.2067 1880.12 31.426 1886.93 28.018C1893.84 24.61 1901.6 22.906 1910.22 22.906C1918.93 22.906 1926.69 24.61 1933.51 28.018C1940.42 31.426 1945.77 36.2067 1949.55 42.36C1953.43 48.4187 1955.38 55.3293 1955.38 63.092C1955.38 70.8547 1953.43 77.8127 1949.55 83.966C1945.77 90.0247 1940.42 94.8053 1933.51 98.308C1926.69 101.716 1918.93 103.42 1910.22 103.42ZM1910.22 78.428C1913.91 78.428 1916.94 77.1027 1919.31 74.452C1921.67 71.7067 1922.86 67.92 1922.86 63.092C1922.86 58.264 1921.67 54.5247 1919.31 51.874C1916.94 49.2233 1913.91 47.898 1910.22 47.898C1906.53 47.898 1903.5 49.2233 1901.13 51.874C1898.76 54.5247 1897.58 58.264 1897.58 63.092C1897.58 67.92 1898.76 71.7067 1901.13 74.452C1903.5 77.1027 1906.53 78.428 1910.22 78.428ZM1995.95 32.704C2001.63 26.172 2010.01 22.906 2021.08 22.906V51.306C2018.53 50.9273 2016.16 50.738 2013.98 50.738C2003 50.738 1997.51 56.3233 1997.51 67.494V102H1965.42V24.326H1995.95V32.704ZM2121.54 84.96H2108.33V102H2075.81V84.96H2024.27V63.66L2066.44 2.59999H2100.8L2063.32 58.974H2076.81V43.78H2108.33V58.974H2121.54V84.96ZM2171.22 104.272C2162.42 104.272 2154.61 102.237 2147.79 98.166C2141.07 94.0007 2135.77 88.0367 2131.89 80.274C2128.1 72.4167 2126.21 63.092 2126.21 52.3C2126.21 41.508 2128.1 32.2307 2131.89 24.468C2135.77 16.6107 2141.07 10.6467 2147.79 6.57599C2154.61 2.41066 2162.42 0.327997 2171.22 0.327997C2180.03 0.327997 2187.79 2.41066 2194.51 6.57599C2201.33 10.6467 2206.63 16.6107 2210.41 24.468C2214.3 32.2307 2216.24 41.508 2216.24 52.3C2216.24 63.092 2214.3 72.4167 2210.41 80.274C2206.63 88.0367 2201.33 94.0007 2194.51 98.166C2187.79 102.237 2180.03 104.272 2171.22 104.272ZM2171.22 77.434C2178.8 77.434 2182.58 69.056 2182.58 52.3C2182.58 35.544 2178.8 27.166 2171.22 27.166C2163.65 27.166 2159.86 35.544 2159.86 52.3C2159.86 69.056 2163.65 77.434 2171.22 77.434ZM2320.95 84.96H2307.74V102H2275.22V84.96H2223.68V63.66L2265.85 2.59999H2300.21L2262.73 58.974H2276.22V43.78H2307.74V58.974H2320.95V84.96Z" fill="#F2F2F2"/>
</svg>
