<svg width="170" height="40" viewBox="0 0 170 40" fill="none" xmlns="http://www.w3.org/2000/svg">
<g clip-path="url(#clip0)">
<path d="M168.47 0H37.6833V13.3167H168.47V0Z" fill="#A5A5A5"/>
<path d="M37.6833 26.8033V39.0999H60.9733C60.9733 39.0999 60.9733 36.7199 60.9733 36.4933C60.9733 36.2099 60.86 36.1533 60.6333 36.1533C60.4067 36.1533 45.39 36.1533 45.39 36.1533V31.7899H58.5933V29.1833C58.5933 28.9566 58.48 28.8433 58.2533 28.8433H45.39V24.3666H60.9733V21.7599C60.9733 21.5333 60.86 21.4199 60.6333 21.4199H43.0667C40.0633 21.4199 37.6833 23.8566 37.6833 26.8033Z" fill="#C0C0C0"/>
<path d="M69.53 21.4199H87.3233C87.55 21.4199 87.6633 21.4766 87.6633 21.7599V24.3666H71.8533V35.8699H84.6033V31.7899H76.67V29.1833C76.67 28.9566 76.7833 28.8433 77.01 28.8433C78.9933 28.8433 87.0967 28.8433 87.21 28.8433C87.4367 28.8433 87.55 28.9566 87.55 29.1833V39.0999H64.0333V26.8599C64.1467 23.8566 66.5267 21.4199 69.53 21.4199Z" fill="#C0C0C0"/>
<path d="M96.56 21.4199H114.353C114.58 21.4199 114.693 21.4766 114.693 21.7599V24.3666H98.8833V35.8699H111.633V31.7899H103.7C103.7 31.7899 103.7 29.4099 103.7 29.1833C103.7 28.9566 103.813 28.8433 104.04 28.8433C106.023 28.8433 114.127 28.8433 114.24 28.8433C114.467 28.8433 114.58 28.9566 114.58 29.1833V39.0999H91.12V26.8599C91.1767 23.8566 93.6133 21.4199 96.56 21.4199Z" fill="#C0C0C0"/>
<path d="M118.263 26.8033V39.0999H141.553V36.4933C141.553 36.2099 141.44 36.1533 141.213 36.1533C140.987 36.1533 125.97 36.1533 125.97 36.1533V31.7899H139.173V29.1833C139.173 28.9566 139.06 28.8433 138.833 28.8433H126.027V24.3666H141.667V21.7599C141.667 21.5333 141.553 21.4199 141.327 21.4199H123.647C120.7 21.4199 118.263 23.8566 118.263 26.8033Z" fill="#C0C0C0"/>
<path d="M0 21.4199H25.67V24.7633H12.07V28.5599H25.67V31.9599H12.1267V35.8133H25.67V39.0999H0V21.4199Z" fill="#A5A5A5"/>
<path d="M163.88 21.4199C166.487 21.4199 168.527 24.0266 168.527 26.5766C168.527 29.1833 166.43 31.7333 163.88 31.7333H161.783L169.717 38.4766C169.717 38.4766 170.51 39.0999 169.66 39.0999H161.273C160.933 39.0999 160.707 38.8733 160.367 38.6466C160.65 38.8733 152.433 31.7899 152.433 31.7899V39.1566H144.727V26.8599C144.727 23.8566 147.107 21.4766 150.11 21.4766H163.88V21.4199ZM162.747 28.8433C163.54 28.8433 164.73 28.0499 164.73 26.5766C164.73 24.9899 163.653 24.3099 162.747 24.3099H152.433V28.7866L162.747 28.8433Z" fill="#C0C0C0"/>
</g>
<defs>
<clipPath id="clip0">
<rect width="170" height="39.6667" fill="white"/>
</clipPath>
</defs>
</svg>
