<svg width="563" height="99" viewBox="0 0 563 99" fill="none" xmlns="http://www.w3.org/2000/svg">
<path d="M63.508 0.581062C53.1928 2.71706 32.6438 7.84242 23.0413 12.1731C11.422 17.4131 -6.54311 27.4131 2.42196 33.6891C5.87516 36.1051 22.6126 36.3117 26.8246 36.4958C30.7574 36.6664 36.258 36.6131 41.7594 36.5597C47.2652 36.5077 52.7714 36.4544 56.708 36.6251C59.5501 36.7477 62.573 36.9317 64.8813 38.5957C71.8027 43.5837 68.6751 58.5464 77.1574 59.4638C85.4934 60.3638 86.4988 45.0917 94.6721 43.2237C102.945 41.3331 107.173 62.8918 115.379 65.0651C121.437 66.6704 122.551 42.6531 132.412 42.6531C142.273 42.6531 140.98 55.9437 147.005 55.9437C153.031 55.9437 155.281 44.1691 165.581 44.4464C180.959 44.8584 206.652 48.7424 221.387 53.1584C234.013 56.9424 247.701 63.5638 259.603 57.8998C265.067 55.2984 269.175 50.3997 274.632 47.7811C280.465 44.9837 291.793 53.2704 298.26 53.4104C303.928 53.5344 308.449 51.6064 312.972 49.6784C317.493 47.7517 322.015 45.8237 327.683 45.9464C332.792 46.0584 338.883 46.7477 341.231 51.2864C342.201 53.1651 344.647 62.3784 345.773 64.1691C349.543 70.1558 356.188 58.7651 362.548 55.6664C373.761 50.2038 386.897 51.1278 399.328 52.1744C407.697 52.8798 416.841 53.9344 422.695 59.9571C426.455 63.8251 430.643 70.0771 435.483 67.6971C438.629 66.1491 439.431 61.5278 442.704 60.2718C447.091 58.5864 450.609 64.1051 452.093 68.5624C454.637 76.2064 457.184 83.8504 459.729 91.4944C460.853 94.8691 463.024 98.9584 466.556 98.5424C469.869 98.1518 471.181 94.1171 471.751 90.8304C473.336 81.6718 469.188 63.3557 476.509 63.3557C483.832 63.3557 484.901 77.4384 492.655 77.0224C502.039 76.5171 494.589 50.7211 501.761 50.7211C508.933 50.7211 501.761 70.4437 510.727 70.4437C519.692 70.4437 522.701 53.2704 534.931 47.1358C537.367 45.9144 560.255 42.1917 561.825 39.9637C566.888 32.7811 547.744 21.3838 540.44 16.4958C527.471 7.81308 511.831 -1.03358 497.103 4.13575C488.873 7.02242 482.388 13.9837 473.907 16.0131C464.389 18.2891 455.068 13.9597 445.779 9.63042C436.18 5.15708 426.616 0.682411 416.905 3.49708C412.841 4.67442 409.213 7.07576 405.145 8.23976C397.168 10.5224 389.167 7.81706 381.08 5.1104C374.431 2.8864 367.724 0.661095 360.923 1.20909C353.437 1.81176 346.636 5.73174 339.296 7.31974C321.719 11.1197 304.103 1.26109 286.128 0.769089C273.431 0.419754 261.008 4.72375 248.7 9.02775C233.011 14.5144 217.507 20.0011 201.855 15.8477C191.003 12.9691 181.253 5.56242 170.027 5.44243C160.735 5.34376 152.191 10.2931 143.084 12.1424C129.536 14.8958 116.056 10.7051 102.548 6.51306C89.5881 2.49173 76.6032 -1.5296 63.508 0.581062Z" fill="white"/>
<path d="M466.465 91.7798C465.715 91.1558 464.954 90.5371 464.398 89.6238C458.5 79.9478 462.227 66.1918 451.835 58.7851C449.696 57.2611 447.519 56.5038 445.376 56.5038C442.892 56.5038 440.457 57.5211 438.185 59.5371C436.738 60.8211 434.989 63.9838 433.183 64.6225C432.979 64.6945 432.769 64.7278 432.556 64.7278C430.469 64.7278 427.979 61.5545 426.516 60.1731C422.005 55.9131 418.062 52.2691 412.064 50.2771C405.487 48.0918 398.418 46.9091 391.423 46.9091C389.283 46.9091 387.152 47.0185 385.043 47.2451C376.156 48.1985 367.364 51.0385 359.389 55.0545C357.655 55.9291 355.099 58.1385 353.008 58.1398C352.649 58.1398 352.305 58.0745 351.98 57.9265C349.58 56.8345 347.639 50.9665 345.997 48.8651C341.912 43.6305 337.173 41.9585 332.129 41.9585C324.005 41.9585 315.085 46.2931 306.804 47.0558C306.205 47.1105 305.609 47.1371 305.013 47.1371C297.319 47.1371 289.904 42.8358 282.257 42.1265C281.497 42.0558 280.764 42.0211 280.053 42.0211C273.433 42.0211 268.836 45.0131 263.74 49.6478C258.905 54.0465 253.248 55.6638 247.295 55.6638C235.888 55.6651 223.388 49.7318 213.459 46.0518C202.22 41.8851 189.913 38.0731 177.707 38.0731C173.733 38.0731 169.772 38.4758 165.859 39.4038C162.261 40.2545 158.663 41.6425 155.463 43.5025C153.379 44.7131 149.893 48.6651 147.692 48.9158C147.556 48.9318 147.423 48.9398 147.288 48.9398C144.467 48.9398 142.072 45.6131 139.939 44.1358C137.668 42.5625 135.204 41.4545 132.455 41.4545C132.196 41.4545 131.935 41.4638 131.671 41.4838C126.567 41.8745 123.429 45.4371 121.363 49.8051C120.253 52.1518 118.521 60.8651 114.981 60.8651C114.703 60.8651 114.413 60.8105 114.112 60.6958C110.463 59.3011 109.463 49.3038 107.901 46.0198C105.616 41.2198 101.119 37.6171 95.7532 37.6171C95.2652 37.6171 94.7692 37.6465 94.2665 37.7092C85.9945 38.7238 84.6585 46.5291 80.3592 52.0998C79.4332 53.2998 78.6583 53.7945 77.9879 53.7945C76.6045 53.7945 75.6676 51.6878 74.7635 49.3198C73.5457 46.1291 73.3916 42.4931 71.8056 39.4491C68.4639 33.0425 61.5411 33.1638 55.2264 33.1371C47.6009 33.1038 39.9577 32.5931 32.3269 32.4718C24.8488 32.3518 17.3207 32.4291 9.85921 31.8705C8.50455 31.7691 4.38735 31.9585 3.33161 30.8838C1.59575 29.1131 3.86868 24.5145 5.58535 22.0838C7.38428 20.6758 9.49308 19.2891 11.7196 17.9745C11.1712 20.2665 11.4056 22.4358 15.14 24.0598C19.5801 25.9905 26.4905 26.6625 32.8988 26.6625C36.7269 26.6625 40.3775 26.4225 43.2113 26.0678C45.9509 25.7251 48.892 25.5291 51.8384 25.5291C60.4635 25.5291 69.1207 27.2185 72.7957 31.8958C74.9259 33.6585 76.0077 42.8691 79.0707 43.5505C79.2321 43.5851 79.3911 43.6025 79.5488 43.6025C83.3332 43.6025 86.2425 33.6891 96.9999 33.6891C108.207 33.6891 110 44.8945 114.7 45.4505C114.815 45.4638 114.929 45.4705 115.044 45.4705C119.145 45.4705 123.164 37.0185 129.277 36.4318C129.591 36.4025 129.907 36.3878 130.224 36.3878C132.783 36.3878 135.447 37.3105 138.083 38.2345C140.72 39.1571 143.331 40.0811 145.785 40.0811C146.675 40.0811 147.543 39.9598 148.384 39.6745C153.569 37.9145 158.255 34.8385 163.581 33.2665C171.109 31.0451 178.809 30.1491 186.54 30.1491C197.509 30.1491 208.54 31.9558 219.203 34.3451C228.059 36.3291 236.831 38.6718 245.669 40.7211C248.277 41.3251 250.393 41.5891 252.239 41.5891C258.044 41.5891 261.177 38.9745 268.565 36.1131C271.551 34.9558 274.364 34.4958 277.085 34.4958C284.561 34.4958 291.336 37.9785 299.043 40.0731C300.743 40.5358 302.265 40.7371 303.664 40.7371C311.189 40.7371 315.063 34.8811 322.803 32.1331C324.649 31.4771 326.429 31.2105 328.168 31.2105C335.577 31.2105 342.236 36.0691 350.062 36.4825C350.799 36.5211 351.535 36.5398 352.271 36.5398C361.223 36.5398 370.174 33.8385 378.984 32.6571C383.029 32.1145 387.068 31.7878 391.089 31.7878C397.113 31.7878 403.096 32.5211 408.984 34.3585C417.504 37.0158 423.739 49.8371 432.203 49.8358C433.1 49.8358 434.023 49.6918 434.973 49.3771C443.812 46.4505 450.664 36.3345 459.365 36.3345C460.332 36.3345 461.323 36.4598 462.341 36.7331C467.365 38.0851 474.052 48.4971 479.437 48.4958C479.557 48.4958 479.678 48.4905 479.798 48.4798C484.996 48.0131 486.981 36.4371 492.193 35.9198C504.003 27.8611 524.621 35.9291 532.412 21.6025C533.58 19.9411 533.627 19.5278 533.647 17.6771C533.616 15.1585 531.631 12.1985 529.629 9.82113C530.105 10.0825 530.577 10.3465 531.048 10.6158C533.973 12.7398 536.772 15.0371 539.425 17.4705C543.294 21.0171 550.028 26.2891 551.766 31.4145C552.588 33.8385 551.485 34.3345 548.578 35.5918C543.125 37.9505 537.143 38.7958 531.719 41.3238C526.649 43.6851 522.916 47.0438 520.006 51.8051C518.842 53.7118 517.689 57.5985 515.829 58.8918C515.153 59.3625 514.643 59.5651 514.249 59.5651C512.735 59.5651 512.986 56.5438 512.286 54.2491C510.86 49.5718 507.611 45.8185 502.78 45.8185C502.184 45.8185 501.564 45.8758 500.92 45.9958C493.924 47.2945 492.423 54.2851 491.332 60.1985C491.151 61.1811 490.663 66.0918 489.561 66.3131C489.555 66.3145 489.548 66.3158 489.541 66.3158C488.804 66.3158 484.243 59.3145 482.941 58.5931C481.48 57.7825 480.028 57.4251 478.629 57.4251C473.514 57.4251 469.104 62.1971 467.522 67.0971C465.06 74.7238 468.424 81.8945 467.447 89.3825C467.388 89.8278 466.929 90.7585 466.465 91.7798ZM116.049 48.0118C116.023 48.0118 115.995 48.0131 115.967 48.0171C116.233 48.5998 116.424 48.7945 116.528 48.7945C116.632 48.7945 116.651 48.5985 116.573 48.4025C116.497 48.2078 116.325 48.0118 116.049 48.0118ZM112.244 48.5531L112.135 48.7558L112.244 48.5531Z" fill="#D6DEF1"/>
<path d="M466.061 98.5718C462.82 98.5718 460.8 94.7091 459.729 91.4944C457.184 83.8504 454.637 76.2064 452.093 68.5624C450.796 64.6664 447.945 59.9611 444.319 59.9611C443.796 59.9611 443.257 60.0584 442.704 60.2718C439.431 61.5278 438.629 66.1491 435.483 67.6971C434.744 68.0611 434.02 68.2224 433.309 68.2224C429.373 68.2224 425.88 63.2344 422.695 59.9571C416.841 53.9344 407.697 52.8798 399.328 52.1744C394.484 51.7664 389.532 51.3771 384.629 51.3771C376.951 51.3771 369.392 52.3331 362.548 55.6664C357.476 58.1371 352.223 65.8811 348.392 65.8811C347.419 65.8811 346.537 65.3811 345.773 64.1691C344.647 62.3784 342.201 53.1651 341.231 51.2864C338.883 46.7478 332.792 46.0584 327.683 45.9464C327.509 45.9437 327.337 45.9411 327.167 45.9411C321.74 45.9411 317.356 47.8104 312.972 49.6784C308.588 51.5477 304.204 53.4158 298.776 53.4158C298.605 53.4158 298.433 53.4144 298.26 53.4104C292.725 53.2904 283.632 47.2051 277.468 47.2051C276.429 47.2051 275.473 47.3784 274.632 47.7811C269.175 50.3997 265.067 55.2984 259.603 57.8998C256.291 59.4758 252.844 60.0998 249.319 60.0998C240.169 60.0998 230.501 55.8904 221.387 53.1584C206.652 48.7424 180.959 44.8584 165.581 44.4464C165.461 44.4437 165.344 44.4411 165.225 44.4411C155.231 44.4411 152.96 55.9437 147.005 55.9437C140.98 55.9437 142.273 42.6531 132.412 42.6531C122.868 42.6531 121.519 65.1424 115.951 65.1424C115.765 65.1424 115.573 65.1171 115.379 65.0651C107.517 62.9824 103.308 43.1064 95.692 43.1064C95.3587 43.1064 95.0187 43.1451 94.672 43.2238C86.732 45.0384 85.556 59.5011 77.8547 59.5011C77.6281 59.5011 77.3959 59.4891 77.1573 59.4638C68.6751 58.5464 71.8027 43.5838 64.8812 38.5958C62.5729 36.9318 59.55 36.7478 56.7079 36.6251C54.6864 36.5371 52.2527 36.5091 49.6167 36.5091C47.1183 36.5091 44.438 36.5344 41.7593 36.5598C39.0803 36.5864 36.4016 36.6117 33.9036 36.6117C31.2729 36.6117 28.8417 36.5838 26.8245 36.4958C22.6125 36.3118 5.87507 36.1051 2.42187 33.6891C0.732268 32.5064 -0.0010655 31.1904 1.16186e-06 29.7998C0.00160116 27.3584 2.26507 24.6838 5.58547 22.0838C3.8688 24.5144 1.59587 29.1131 3.33174 30.8838C4.38747 31.9584 8.50467 31.7691 9.85933 31.8704C17.3208 32.4291 24.8489 32.3518 32.3271 32.4718C39.9579 32.5931 47.6011 33.1038 55.2265 33.1371C61.5412 33.1638 68.464 33.0424 71.8057 39.4491C73.3917 42.4931 73.5459 46.1291 74.7636 49.3198C75.6677 51.6878 76.6047 53.7944 77.988 53.7944C78.6584 53.7944 79.4333 53.2998 80.3593 52.0998C84.6587 46.5291 85.9947 38.7238 94.2667 37.7091C94.7693 37.6464 95.2653 37.6171 95.7533 37.6171C101.119 37.6171 105.616 41.2198 107.901 46.0198C109.463 49.3038 110.463 59.3011 114.112 60.6958C114.413 60.8104 114.703 60.8651 114.981 60.8651C118.521 60.8651 120.253 52.1518 121.363 49.8051C123.429 45.4371 126.567 41.8744 131.671 41.4838C131.935 41.4638 132.196 41.4544 132.455 41.4544C135.204 41.4544 137.668 42.5624 139.939 44.1358C142.072 45.6131 144.467 48.9398 147.288 48.9398C147.423 48.9398 147.556 48.9318 147.692 48.9158C149.893 48.6651 153.379 44.7131 155.463 43.5024C158.663 41.6424 162.261 40.2544 165.859 39.4038C169.772 38.4758 173.733 38.0731 177.707 38.0731C189.913 38.0731 202.22 41.8851 213.459 46.0518C223.388 49.7318 235.888 55.6651 247.295 55.6638C253.248 55.6638 258.905 54.0464 263.74 49.6478C268.836 45.0131 273.433 42.0211 280.053 42.0211C280.764 42.0211 281.497 42.0558 282.257 42.1264C289.904 42.8358 297.319 47.1371 305.013 47.1371C305.609 47.1371 306.205 47.1104 306.804 47.0558C315.085 46.2931 324.005 41.9584 332.129 41.9584C337.173 41.9584 341.912 43.6304 345.997 48.8651C347.639 50.9664 349.58 56.8344 351.98 57.9264C352.305 58.0744 352.649 58.1398 353.008 58.1398C355.099 58.1384 357.655 55.9291 359.389 55.0544C367.364 51.0384 376.156 48.1984 385.043 47.2451C387.152 47.0184 389.283 46.9091 391.423 46.9091C398.419 46.9091 405.487 48.0917 412.064 50.2771C418.063 52.2691 422.005 55.9131 426.516 60.1731C427.979 61.5544 430.469 64.7278 432.556 64.7278C432.769 64.7278 432.979 64.6944 433.183 64.6224C434.989 63.9838 436.739 60.8211 438.185 59.5371C440.457 57.5211 442.892 56.5038 445.376 56.5038C447.519 56.5038 449.696 57.2611 451.835 58.7851C462.227 66.1918 458.5 79.9478 464.399 89.6238C464.955 90.5371 465.715 91.1558 466.465 91.7798C466.929 90.7584 467.388 89.8278 467.447 89.3824C468.424 81.8944 465.06 74.7238 467.523 67.0971C469.104 62.1971 473.515 57.4251 478.629 57.4251C480.028 57.4251 481.48 57.7824 482.941 58.5931C484.243 59.3144 488.804 66.3158 489.541 66.3158C489.548 66.3158 489.555 66.3144 489.561 66.3131C490.663 66.0918 491.151 61.1811 491.332 60.1984C492.423 54.2851 493.924 47.2944 500.92 45.9958C501.564 45.8758 502.184 45.8184 502.78 45.8184C507.611 45.8184 510.86 49.5718 512.287 54.2491C512.987 56.5438 512.735 59.5651 514.249 59.5651C514.643 59.5651 515.153 59.3624 515.829 58.8918C517.689 57.5984 518.843 53.7118 520.007 51.8051C522.916 47.0438 526.649 43.6851 531.719 41.3238C537.143 38.7958 543.125 37.9504 548.579 35.5918C551.485 34.3344 552.588 33.8384 551.767 31.4144C550.028 26.2891 543.295 21.0171 539.425 17.4704C536.772 15.0371 533.973 12.7398 531.048 10.6158C534.292 12.4664 537.439 14.4864 540.44 16.4958C546.909 20.8251 562.668 30.2611 562.667 37.3531C562.667 38.2678 562.404 39.1438 561.825 39.9638C560.255 42.1918 537.367 45.9144 534.931 47.1358C522.701 53.2704 519.692 70.4437 510.727 70.4437C501.761 70.4437 508.933 50.7211 501.761 50.7211C494.589 50.7211 502.039 76.5171 492.655 77.0224C492.541 77.0278 492.431 77.0304 492.32 77.0304C484.869 77.0304 483.725 63.3558 476.509 63.3558C472.633 63.3558 471.972 68.4864 471.972 74.6758C471.972 77.8958 472.152 81.4011 472.151 84.6198C472.151 86.9024 472.06 89.0411 471.751 90.8304C471.181 94.1171 469.869 98.1518 466.556 98.5424C466.388 98.5624 466.223 98.5718 466.061 98.5718Z" fill="#9DB5E0"/>
<path d="M85.3466 24.3252C84.1279 24.3252 84.1293 22.4332 85.3466 22.4332C86.5653 22.4332 86.5626 24.3252 85.3466 24.3252Z" fill="#D6DEF1"/>
<path d="M87.1399 14.3572C86.0559 14.3572 86.0572 12.6772 87.1399 12.6772C88.2226 12.6772 88.2212 14.3572 87.1399 14.3572Z" fill="#D6DEF1"/>
<path d="M160.203 30.9331C159.133 30.9331 159.135 29.2731 160.203 29.2731C161.272 29.2731 161.271 30.9331 160.203 30.9331Z" fill="#D6DEF1"/>
<path d="M174.995 27.3958C174.44 27.3958 174.44 26.5344 174.995 26.5344C175.549 26.5344 175.549 27.3958 174.995 27.3958Z" fill="#D6DEF1"/>
<path d="M274.504 20.7905C273.217 20.7905 273.22 18.7945 274.504 18.7945C275.791 18.7945 275.788 20.7905 274.504 20.7905Z" fill="#D6DEF1"/>
<path d="M299.605 12.6985C298.928 12.6985 298.929 11.6478 299.605 11.6478C300.283 11.6478 300.281 12.6985 299.605 12.6985Z" fill="#D6DEF1"/>
<path d="M423.768 10.7891C423.24 10.7891 423.241 9.97041 423.768 9.97041C424.296 9.97041 424.296 10.7891 423.768 10.7891Z" fill="#D6DEF1"/>
<path d="M416.6 14.9092C416.015 14.9092 415.428 14.5052 415.635 13.6998L415.688 13.4918C415.803 13.0425 416.199 12.8185 416.596 12.8185C416.992 12.8185 417.389 13.0425 417.505 13.4918L417.559 13.6998C417.765 14.5078 417.183 14.9092 416.6 14.9092Z" fill="#D6DEF1"/>
<path d="M512.968 13.8052C512.02 13.8052 512.021 12.3332 512.968 12.3332C513.916 12.3332 513.914 13.8052 512.968 13.8052Z" fill="#D6DEF1"/>
<path d="M33.3506 17.0544C32.8361 17.0544 32.8365 16.2558 33.3506 16.2558C33.8651 16.2558 33.8641 17.0544 33.3506 17.0544Z" fill="#D6DEF1"/>
<path d="M23.9375 20.2478C22.773 20.2478 22.7751 18.4412 23.9375 18.4412C25.1022 18.4412 25.1006 20.2478 23.9375 20.2478Z" fill="#D6DEF1"/>
<path d="M238.644 30.5159C237.533 30.5159 237.536 28.7932 238.644 28.7932C239.755 28.7932 239.753 30.5159 238.644 30.5159Z" fill="#D6DEF1"/>
<path d="M225.197 28.6277C224.209 28.6277 224.211 27.0944 225.197 27.0944C226.187 27.0944 226.184 28.6277 225.197 28.6277Z" fill="#D6DEF1"/>
<path d="M127.481 20.3184C126.804 20.3184 126.805 19.2677 127.481 19.2677C128.159 19.2677 128.157 20.3184 127.481 20.3184Z" fill="#D6DEF1"/>
<path d="M354.291 21.3611C353.423 21.3611 353.424 20.0171 354.291 20.0171C355.157 20.0171 355.156 21.3611 354.291 21.3611Z" fill="#D6DEF1"/>
<path d="M375.805 20.2344C375.237 20.2344 375.239 19.3517 375.805 19.3517C376.375 19.3517 376.373 20.2344 375.805 20.2344Z" fill="#D6DEF1"/>
<path d="M477.108 30.3677C476.188 30.3677 476.189 28.9397 477.108 28.9397C478.029 28.9397 478.028 30.3677 477.108 30.3677Z" fill="#D6DEF1"/>
<path d="M292.433 19.313C290.741 19.313 290.744 16.6863 292.433 16.6863C294.127 16.6863 294.124 19.313 292.433 19.313Z" fill="#D6DEF1"/>
<path d="M75.4849 17.7732C73.4677 17.7732 73.4708 14.6412 75.4849 14.6412C77.5026 14.6412 77.4994 17.7732 75.4849 17.7732Z" fill="#AABDE3"/>
<path d="M166.925 26.7197C166.087 26.7197 166.088 25.4171 166.925 25.4171C167.765 25.4171 167.764 26.7197 166.925 26.7197Z" fill="#AABDE3"/>
<path d="M283.469 13.665C281.545 13.665 281.549 10.681 283.469 10.681C285.392 10.681 285.388 13.665 283.469 13.665Z" fill="#AABDE3"/>
<path d="M520.737 17.8198C518.852 17.8198 518.855 14.8932 520.737 14.8932C522.624 14.8932 522.62 17.8198 520.737 17.8198Z" fill="#AABDE3"/>
<path d="M509.829 20.2065C508.719 20.2065 508.721 18.4825 509.829 18.4825C510.94 18.4825 510.939 20.2065 509.829 20.2065Z" fill="#AABDE3"/>
<path d="M111.344 27.6677C110.437 27.6677 110.439 26.2611 111.344 26.2611C112.251 26.2611 112.249 27.6677 111.344 27.6677Z" fill="#AABDE3"/>
<path d="M364.152 11.9424C362.716 11.9424 362.719 9.71436 364.152 9.71436C365.587 9.71436 365.585 11.9424 364.152 11.9424Z" fill="#AABDE3"/>
<path d="M434.077 39.2385C433.279 39.2385 433.28 37.9999 434.077 37.9999C434.876 37.9999 434.875 39.2385 434.077 39.2385Z" fill="#AABDE3"/>
<path d="M441.248 32.9851C440.423 32.9851 440.424 31.7025 441.248 31.7025C442.076 31.7025 442.075 32.9851 441.248 32.9851Z" fill="#AABDE3"/>
</svg>
