<svg width="424" height="119" viewBox="0 0 424 119" fill="none" xmlns="http://www.w3.org/2000/svg">
<path d="M50.6984 24.8285C37.925 25.7249 25.2893 28.5601 13.3565 33.2068C7.27675 35.5753 0.277631 40.5155 1.85566 46.8461C3.5579 53.6781 12.9573 54.1567 19.9482 53.3191C34.1359 51.6178 48.6964 50.7752 62.566 54.2143C82.2465 59.093 100.78 72.4939 120.802 69.2858C132.712 67.3789 143.767 59.6082 155.75 60.9979C162.919 61.8313 169.474 65.9205 176.683 66.2957C182.483 66.5953 188.091 64.4639 193.634 62.7288C214.082 56.3304 236.12 55.0794 257.163 59.1198C273.783 62.3113 291.45 68.6443 306.964 61.8791C312.773 59.3458 322.203 57.5686 325.618 62.9076C330.54 70.6072 323.335 85.9971 334.007 85.7608C344.679 85.5244 333.726 62.2306 344.712 61.9873C355.695 61.744 343.247 112.879 358.93 110.722C371.597 108.978 354.567 61.9277 368.368 61.622C382.169 61.3163 368.777 85.152 378.844 84.9291C388.911 84.7061 378.288 54.5806 392.642 53.8413C423.39 52.2534 423.462 43.5096 422.053 40.2427C421.194 38.2492 419.086 37.1356 417.091 36.2809C404.077 30.709 389.201 29.4581 377.331 21.7458C371.226 17.7786 366.22 12.2735 360.006 8.48079C343.885 -1.3593 323.11 2.07888 305.144 7.90746C287.18 13.7374 269.07 21.747 250.259 20.0645C239.395 19.0928 229.051 14.9061 218.237 13.4879C200.583 11.1702 183.353 16.285 166.044 21.4016C151.433 25.7208 136.764 30.0414 121.736 29.8941C106.798 29.7462 92.2919 25.1769 77.4976 23.1133C62.7036 21.0498 28.5804 25.6278 13.3565 33.2068L50.6984 24.8285Z" fill="#F1F5FF"/>
<path d="M358.958 105.976C358.488 105.986 357.919 105.791 357.231 105.315C356.206 104.606 355.823 102.427 355.472 101.311C354.063 96.8314 353.89 91.9447 353.69 87.288C353.369 79.8039 354.257 71.5089 352.224 64.2108C351.04 59.9547 347.62 57.055 343.993 57.1353C341.934 57.181 339.808 58.1869 337.985 60.4492C335.433 63.6185 335.784 67.5863 335.851 71.3885C335.891 73.6801 337.488 81.2413 334.369 81.3117C330.207 81.4052 330.954 72.3278 330.946 69.5566C330.934 65.1398 330.52 60.5558 326.733 57.6923C324.453 55.9691 321.804 55.3876 318.992 55.4498C312.429 55.5952 304.984 59.245 299.289 60.0446C296.863 60.3837 294.434 60.5656 292.008 60.6193C280.174 60.8827 268.373 58.094 256.832 55.753C246.085 53.5705 235.162 51.5798 224.205 51.8225C221.194 51.8892 218.182 52.124 215.167 52.5708C208.449 53.5652 201.956 55.4761 195.43 57.2957C189.754 58.8791 183.169 61.1761 177.003 61.3127C175.868 61.3379 174.748 61.2893 173.648 61.1509C166.779 60.2802 160.834 55.9254 153.813 55.4901C153.106 55.4471 152.399 55.4347 151.694 55.4503C145.733 55.5824 139.854 57.7224 134.403 59.9103C127.703 62.598 121.165 65.6782 113.89 65.8394C113.356 65.8512 112.82 65.8484 112.278 65.827C104.598 65.5317 97.0551 63.2035 89.8508 60.6797C76.0975 55.8631 62.7026 49.5141 47.9357 48.6329C46.8048 48.5659 45.6803 48.5495 44.5617 48.5742C37.8883 48.7221 31.4095 50.3126 24.7474 50.9696C24.1611 51.0279 23.5102 51.0663 22.8145 51.0818C15.4143 51.2457 2.81669 48.7907 6.20484 39.0413C6.42763 38.4002 6.33765 37.818 6.05778 37.3454C8.20737 35.5867 10.8597 34.1797 13.3565 33.2068C14.0774 32.8481 14.84 32.4964 15.6421 32.1519C15.4926 32.7194 15.298 33.2958 15.0541 33.8814C14.2226 35.8749 16.7464 39.1812 18.0071 40.3549C20.9923 43.1335 26.1692 43.7737 30.081 43.8898C31.304 43.9267 32.5225 43.9264 33.7378 43.8994C37.6478 43.8128 41.5234 43.4443 45.3938 43.0745C49.2641 42.7047 53.1298 42.3363 57.0226 42.2501C60 42.1842 62.9926 42.2833 66.0156 42.6751C76.8033 44.0712 86.5308 48.9157 96.7249 52.3921C102.615 54.4009 107.878 55.1952 113.223 55.0768C117.818 54.975 122.473 54.1984 127.638 52.9438C135.194 51.1067 142.393 49.7909 149.814 49.6266C153.313 49.5491 156.863 49.7278 160.522 50.2283C165.953 50.9722 170.925 51.4356 175.918 51.325C180.216 51.2298 184.531 50.7088 189.163 49.5739C199.845 46.9554 210.28 43.7595 221.287 42.7316C221.875 42.6772 222.509 42.6432 223.19 42.6281C235.09 42.3645 260.742 47.9779 283.958 52.1728C286.696 52.6683 289.641 52.8378 292.665 52.7708C304.83 52.5001 318.267 48.4042 324.57 46.2948C331.389 44.0112 338.586 43.0583 346.77 42.877C354.224 42.7119 362.5 43.1875 372.051 43.8842C374.897 44.0918 378.63 44.1985 382.501 44.1128C391.576 43.9118 401.401 42.6513 402.276 39.1417C403.521 34.1342 387.132 26.6953 383.428 25.2597C381.779 24.62 380.249 23.7697 378.925 22.7334C380.931 23.9173 383.011 24.9368 385.146 25.8431C389.348 28.0226 393.811 29.8268 398.526 31.3828C401.968 32.5176 416.14 36.466 416.617 41.37C417.067 46.0332 409.068 46.6665 406.181 47.0265C398.293 48.0107 388.884 48.3952 384.078 55.8208C381.494 59.8123 381.227 64.6861 381.287 69.3139C381.318 71.6351 381.61 73.9585 381.589 76.2782C381.576 77.7575 380.895 82.7632 379.385 82.7966C378.914 82.8084 378.365 82.3378 377.729 81.1302C375.684 77.2412 378.13 70.4987 377.179 66.1094C376.283 61.9775 373.749 57.1151 369.158 56.1139C368.429 55.9553 367.747 55.8877 367.112 55.9018C360.229 56.0542 358.655 65.7235 358.711 71.1782C358.807 80.8491 361.76 90.5381 361.272 100.195C361.184 101.967 361.007 105.931 358.958 105.976Z" fill="#D6DEF1"/>
<path d="M358.133 110.786C351.314 110.937 350.343 100.036 350.088 88.5C350.018 85.3595 350.001 82.1711 349.934 79.1465C349.726 69.7288 349.026 61.8917 344.712 61.9873C333.726 62.2306 344.679 85.5244 334.007 85.7608C328.505 85.8827 327.755 81.8503 327.645 76.8595C327.61 75.2812 327.639 73.6068 327.602 71.9379C327.53 68.6494 327.2 65.3812 325.618 62.9076C323.924 60.2591 320.752 59.3625 317.274 59.4395C313.74 59.5178 309.892 60.6019 306.964 61.8791C302.308 63.9094 297.459 64.7596 292.501 64.8694C280.94 65.1255 268.795 61.3535 257.163 59.1198C248.131 57.3861 238.92 56.6272 229.728 56.8308C217.5 57.1016 205.308 59.0761 193.634 62.7288C188.606 64.3032 183.527 66.2028 178.296 66.3186C177.76 66.3305 177.222 66.3237 176.683 66.2957C169.474 65.9205 162.92 61.8313 155.75 60.9979C154.575 60.8625 153.409 60.8137 152.251 60.8393C141.592 61.0754 131.544 67.5662 120.802 69.2858C119.011 69.5735 117.234 69.7262 115.465 69.7654C97.4586 70.1642 80.4859 58.6559 62.566 54.2143C54.6984 52.2627 46.6083 51.6897 38.4905 51.8695C32.2973 52.0067 26.0876 52.583 19.9482 53.3191C18.6363 53.4762 17.2406 53.5871 15.8262 53.6184C9.70175 53.7541 3.23878 52.3969 1.85566 46.8461C1.71557 46.2838 1.64294 45.7319 1.63151 45.192C1.56726 42.1527 3.43898 39.4879 6.05778 37.3454C6.33765 37.818 6.42763 38.4001 6.20483 39.0412C2.81669 48.7907 15.4143 51.2456 22.8145 51.0817C23.5102 51.0663 24.1611 51.0279 24.7474 50.9696C31.4095 50.3126 37.8883 48.722 44.5617 48.5742C45.6803 48.5495 46.8048 48.5659 47.9357 48.6329C62.7026 49.5141 76.0975 55.8631 89.8508 60.6797C97.0551 63.2035 104.598 65.5317 112.278 65.827C112.82 65.8483 113.356 65.8512 113.89 65.8393C121.165 65.6782 127.703 62.598 134.403 59.9103C139.854 57.7224 145.733 55.5824 151.694 55.4503C152.399 55.4347 153.106 55.4471 153.813 55.4901C160.834 55.9254 166.779 60.2802 173.648 61.1509C174.748 61.2893 175.868 61.3378 177.003 61.3127C183.169 61.1761 189.754 58.8791 195.43 57.2957C201.956 55.4761 208.449 53.5652 215.167 52.5708C218.182 52.1239 221.194 51.8892 224.205 51.8225C235.162 51.5798 246.085 53.5704 256.832 55.753C268.373 58.094 280.174 60.8827 292.008 60.6193C294.434 60.5655 296.863 60.3837 299.289 60.0446C304.984 59.245 312.429 55.5952 318.992 55.4498C321.804 55.3876 324.453 55.969 326.733 57.6923C330.52 60.5558 330.934 65.1398 330.946 69.5566C330.954 72.3278 330.207 81.4052 334.369 81.3117C337.488 81.2413 335.891 73.6801 335.851 71.3884C335.784 67.5863 335.433 63.6184 337.985 60.4492C339.808 58.1869 341.934 57.1809 343.993 57.1353C347.62 57.055 351.04 59.9546 352.224 64.2108C354.257 71.5089 353.37 79.8039 353.69 87.288C353.89 91.9447 354.063 96.8314 355.472 101.311C355.823 102.427 356.206 104.606 357.231 105.315C357.919 105.791 358.488 105.986 358.958 105.976C361.007 105.931 361.184 101.967 361.272 100.195C361.76 90.5381 358.807 80.8491 358.711 71.1782C358.655 65.7234 360.229 56.0542 367.112 55.9018C367.747 55.8877 368.429 55.9553 369.158 56.1138C373.749 57.1151 376.283 61.9775 377.179 66.1094C378.13 70.4987 375.684 77.2412 377.729 81.1302C378.365 82.3377 378.914 82.8084 379.385 82.7966C380.895 82.7632 381.576 77.7575 381.589 76.2782C381.61 73.9585 381.318 71.6351 381.287 69.3138C381.227 64.686 381.494 59.8123 384.078 55.8207C388.884 48.3952 398.293 48.0107 406.181 47.0265C409.068 46.6665 417.067 46.0332 416.617 41.37C416.14 36.466 401.968 32.5175 398.526 31.3828C393.811 29.8268 389.348 28.0226 385.146 25.843C395.355 30.1727 406.805 31.8769 417.091 36.2809C419.086 37.1356 421.194 38.2492 422.053 40.2427C422.288 40.787 422.482 41.4828 422.499 42.272C422.587 46.223 418.271 52.5175 392.642 53.8413C378.288 54.5806 388.911 84.7061 378.844 84.9291C375.609 85.0007 374.796 82.5888 374.726 79.2922C374.663 76.3662 375.184 72.7431 375.114 69.5399C375.019 65.1196 373.8 61.5017 368.368 61.622C363.449 61.731 362.447 67.7786 362.621 75.5967C362.77 82.3124 363.787 90.3332 363.935 97.0195C364.098 104.387 363.205 110.134 358.93 110.722C358.656 110.76 358.391 110.78 358.133 110.786Z" fill="#9DB5E0"/>
<path d="M388.157 35.3307C387.639 35.3422 387.621 34.5358 388.139 34.5243C388.659 34.5128 388.676 35.3193 388.157 35.3307Z" fill="#D6DEF1"/>
</svg>
