<svg width="154" height="46" viewBox="0 0 154 46" fill="none" xmlns="http://www.w3.org/2000/svg">
<path d="M21.8 12.4C25.2 12.4 28 9.6 28 6.2C28 2.8 25.2 0 21.8 0C18.4 0 15.6 2.8 15.6 6.2C15.6 9.6 18.4 12.4 21.8 12.4Z" fill="#C0C0C0"/>
<path d="M36.7 28.1C37.5 28.1 38.1 27.5001 38.1 26.7001C38.1 25.9001 37.5 25.3 36.7 25.3C35.9 25.3 35.3 25.9001 35.3 26.7001C35.4 27.4001 36 28.1 36.7 28.1Z" fill="#A5A5A5"/>
<path d="M35.7 32.5C36.5 32.5 37.2 31.8 37.2 31C37.2 30.2 36.5 29.5 35.7 29.5C34.9 29.5 34.2 30.2 34.2 31C34.2 31.8 34.8 32.5 35.7 32.5Z" fill="#A5A5A5"/>
<path d="M33.4 36.3001C34.3 36.3001 35 35.6001 35 34.7001C35 33.8001 34.3 33.1001 33.4 33.1001C32.5 33.1001 31.8 33.8001 31.8 34.7001C31.8 35.6001 32.5 36.3001 33.4 36.3001Z" fill="#A5A5A5"/>
<path d="M28.3 38.9001C29.3 38.9001 30.1 38.1 30.1 37.1C30.1 36.1 29.3 35.3 28.3 35.3C27.3 35.3 26.5 36.1 26.5 37.1C26.5 38.1 27.3 38.9001 28.3 38.9001Z" fill="#A5A5A5"/>
<path d="M21.9 40.7C23.1 40.7 24 39.8 24 38.6C24 37.4 23.1 36.5 21.9 36.5C20.7 36.5 19.8 37.4 19.8 38.6C19.8 39.7 20.7 40.7 21.9 40.7Z" fill="#A5A5A5"/>
<path d="M13.7 39.5C15 39.5 16.1 38.3999 16.1 37.0999C16.1 35.7999 15 34.7 13.7 34.7C12.4 34.7 11.3 35.7999 11.3 37.0999C11.3 38.3999 12.4 39.5 13.7 39.5Z" fill="#A5A5A5"/>
<path d="M6.3 34.2999C7.8 34.2999 9 33.0999 9 31.5999C9 30.0999 7.8 28.8999 6.3 28.8999C4.8 28.8999 3.6 30.0999 3.6 31.5999C3.6 33.0999 4.8 34.2999 6.3 34.2999Z" fill="#A5A5A5"/>
<path d="M3.8 24.3001C5.6 24.3001 7.2 22.8001 7.2 20.9001C7.2 19.1001 5.7 17.6001 3.8 17.6001C2 17.6001 0.5 19.1001 0.5 20.9001C0.5 22.8001 2 24.3001 3.8 24.3001Z" fill="#A5A5A5"/>
<path d="M9.2 14.9C11.7 14.9 13.8 12.7999 13.8 10.2999C13.8 7.79995 11.7 5.69995 9.2 5.69995C6.7 5.69995 4.6 7.79995 4.6 10.2999C4.6 12.7999 6.7 14.9 9.2 14.9Z" fill="#A5A5A5"/>
<path d="M55.2 9.8999C55.2 8.4999 56.3 7.3999 57.7 7.3999C59.1 7.3999 60.2 8.4999 60.2 9.8999V30.6999H80.9C82.3 30.6999 83.4 31.7999 83.4 33.1999C83.4 34.5999 82.3 35.6999 80.9 35.6999H57.7C56.3 35.6999 55.2 34.5999 55.2 33.1999V9.8999Z" fill="#A5A5A5"/>
<path d="M115.6 30.6999C117 30.6999 118.1 31.7999 118.1 33.1999C118.1 34.5999 117 35.6999 115.6 35.6999H92.2C90.8 35.6999 89.7 34.5999 89.7 33.1999V9.8999C89.7 8.4999 90.8 7.3999 92.2 7.3999H115.5C116.9 7.3999 118 8.4999 118 9.8999C118 11.2999 116.9 12.3999 115.5 12.3999H94.7V30.6999H115.6Z" fill="#A5A5A5"/>
<path d="M125.4 11.5C124.4 10.5 124.4 8.9 125.4 8C126.4 7 128 7 128.9 8L140.6 19.6C141.6 20.6 141.6 22.2 140.6 23.1L128.6 35C127.6 36 126 36 125.1 35C124.1 34 124.1 32.4 125.1 31.5L135.3 21.4L125.4 11.5Z" fill="#A5A5A5"/>
<path d="M146.1 18.0999C145.1 19.0999 143.5 19.0999 142.5 18.0999C141.5 17.0999 141.5 15.4999 142.5 14.5999L149.2 7.8999C150.2 6.8999 151.8 6.8999 152.8 7.8999C153.8 8.8999 153.8 10.4999 152.8 11.4999L146.1 18.0999Z" fill="#A5A5A5"/>
<path d="M142.4 28.1001C141.4 27.1001 141.4 25.5001 142.4 24.6001C143.4 23.6001 145 23.6001 145.9 24.6001L152.7 31.4001C153.7 32.4001 153.7 34.0001 152.7 34.9001C151.7 35.9001 150.1 35.9001 149.1 34.9001L142.4 28.1001Z" fill="#A5A5A5"/>
<path d="M55.7 45.2V40.3H56.4V44.6H58.6V45.2H55.7ZM65.1 45.2V40.3H65.8V45.2H65.1ZM73.4 40.9001V42.3H75.1V42.9001H73.4V45.3001H72.7V40.4001H75.7V41L73.4 40.9001ZM82.9 40.9001V42.3H84.5V42.9001H82.9V44.7H85.1V45.3001H82.2V40.4001H85.1V41L82.9 40.9001Z" fill="#A5A5A5"/>
<path d="M100.3 40.9001V42.3H101.9V42.9001H100.3V44.7H102.5V45.3001H99.6V40.4001H102.5V41L100.3 40.9001ZM111.7 45.2L110.5 43.2L109.3 45.2H108.6L110.1 42.7001L108.7 40.3H109.4L110.5 42.1L111.6 40.3H112.3L110.8 42.7001L112.3 45.2H111.7ZM119.5 43.3001V45.2H118.8V40.3C119.3 40.3 119.6 40.3 119.7 40.3C121.1 40.3 121.8 40.8001 121.8 41.7001C121.8 42.8001 121.2 43.4001 119.9 43.4001C119.9 43.4001 119.7 43.4001 119.5 43.3001ZM119.5 40.9001V42.7001C119.8 42.7001 119.9 42.7001 120 42.7001C120.8 42.7001 121.3 42.4001 121.3 41.7001C121.3 41.1001 120.8 40.8 120 40.8C119.8 40.9 119.6 40.9001 119.5 40.9001ZM129.2 40.9001V42.3H130.8V42.9001H129.2V44.7H131.4V45.3001H128.5V40.4001H131.4V41L129.2 40.9001ZM140.7 45.2L139.4 43.1C139.2 43.1 139 43.1 138.7 43.1V45.2H138V40.3C138 40.3 138.2 40.3 138.5 40.3C138.8 40.3 139.1 40.3 139.2 40.3C140.4 40.3 141 40.8001 141 41.7001C141 42.0001 140.9 42.3 140.7 42.5C140.5 42.8 140.3 42.9 140 43L141.4 45.3001H140.7V45.2ZM138.7 40.9001V42.5C138.9 42.5 139 42.5 139.2 42.5C139.6 42.5 139.9 42.4 140.1 42.3C140.3 42.2 140.4 41.9 140.4 41.6C140.4 41.3 140.3 41.1 140.1 41C139.9 40.9 139.6 40.8 139.2 40.8C139 40.9 138.9 40.9001 138.7 40.9001ZM149.3 40.9001V45.2H148.6V40.9001H147V40.3H150.9V40.9001H149.3V40.9001Z" fill="#A5A5A5"/>
<path d="M99.1 24.1001C97.9 24.1001 97 23.0001 97 21.6001C97 20.2001 97.9 19.1001 99.1 19.1001H112C113.2 19.1001 114.1 20.2001 114.1 21.6001C114.1 23.0001 113.2 24.1001 112 24.1001H99.1Z" fill="#A5A5A5"/>
</svg>
