<svg width="142" height="37" viewBox="0 0 142 37" fill="none" xmlns="http://www.w3.org/2000/svg">
<path fill-rule="evenodd" clip-rule="evenodd" d="M136 2.9001C136 2.2001 136.3 1.5001 136.8 0.900101C137.3 0.400101 138 0.100098 138.8 0.100098C139.5 0.100098 140.2 0.400101 140.8 0.900101C141.3 1.4001 141.6 2.1001 141.6 2.9001C141.6 3.6001 141.3 4.3001 140.8 4.9001C140.3 5.4001 139.6 5.7001 138.8 5.7001C138.1 5.7001 137.4 5.4001 136.8 4.9001C136.2 4.3001 136 3.6001 136 2.9001ZM136.3 2.9001C136.3 2.3001 136.5 1.7001 137 1.2001C137.5 0.7001 138.1 0.500099 138.7 0.500099C139.3 0.500099 139.9 0.7001 140.4 1.2001C140.9 1.7001 141.1 2.3001 141.1 2.9001C141.1 3.5001 140.9 4.1001 140.4 4.6001C139.9 5.1001 139.3 5.3001 138.7 5.3001C138.1 5.3001 137.5 5.1001 137 4.6001C136.6 4.1001 136.3 3.5001 136.3 2.9001ZM138.3 2.7001H138.9C139 2.7001 139.1 2.7001 139.1 2.6001C139.2 2.5001 139.2 2.5001 139.2 2.4001C139.2 2.3001 139.2 2.3001 139.1 2.2001C139 2.2001 139 2.1001 138.9 2.1001H138.3V2.7001ZM138.3 4.4001H137.4V1.5001H139.2C139.4 1.5001 139.6 1.6001 139.8 1.7001C140 1.8001 140.1 2.0001 140.2 2.2001C140.2 2.5001 140.2 2.7001 140 2.9001C139.9 3.0001 139.8 3.0001 139.7 3.1001C139.9 3.1001 140.1 3.3001 140.1 3.5001C140.1 3.6001 140.1 3.6001 140.1 3.7001C140.1 3.9001 140.1 4.1001 140.2 4.3001C140.2 4.4001 140.2 4.4001 140.3 4.5001H139.4C139.4 4.4001 139.3 4.4001 139.3 4.3001C139.3 4.1001 139.3 3.9001 139.2 3.8001C139.2 3.7001 139.2 3.7001 139.1 3.6001C139 3.5001 139 3.5001 138.9 3.5001H138.4V4.4001H138.3ZM2.3 34.8001L8.1 20.2001C8.2 19.8001 8.5 19.6001 8.9 19.5001C9.3 19.4001 9.7 19.5001 10 19.7001C10.7 20.2001 11.3 20.8001 11.9 21.4001C12.1 21.6001 12.4 21.6001 12.6 21.5001C12.8 21.4001 12.9 21.1001 12.9 20.8001C12.7 17.2001 12.4 13.9001 12.1 10.3001C12.1 10.0001 11.9 9.8001 11.6 9.7001C11.3 9.6001 11.1 9.7001 10.9 9.9001L3 17.3001C2.8 17.4001 2.8 17.7001 2.9 17.9001C3 18.1001 3.2 18.2001 3.4 18.2001C4.2 18.3001 4.9 18.3001 5.7 18.3001C6.2 18.3001 6.6 18.5001 6.9 18.9001C7.2 19.3001 7.3 19.8001 7.1 20.2001L1.3 34.9001L0.400002 35.0001L6.1 20.3001C6.2 20.0001 6.2 19.7001 6 19.5001C5.8 19.3001 5.6 19.1001 5.3 19.1001C4.4 19.0001 3.7 19.0001 2.8 19.1001C2.3 19.1001 1.9 18.8001 1.7 18.3001C1.5 17.9001 1.6 17.4001 2 17.0001L10.3 9.2001C10.7 8.8001 11.3 8.6001 11.9 8.8001C12.5 9.0001 12.8 9.5001 12.9 10.1001C13.1 14.0001 13.4 17.5001 13.7 21.4001C13.8 21.9001 13.5 22.4001 13.1 22.7001C12.7 23.0001 12.1 23.0001 11.7 22.7001C10.9 22.1001 10.3 21.6001 9.6 20.9001C9.5 20.7001 9.3 20.7001 9.1 20.7001C8.9 20.7001 8.7 20.9001 8.6 21.0001C6.4 25.7001 4.7 30.0001 3.1 34.9001L2.3 34.8001ZM27.3 28.3001C27.8 29.0001 28.6 29.4001 29.7 29.4001C30.8 29.4001 31.9 29.0001 33 28.3001C34 27.6001 34.8 26.8001 35.5 25.9001C36.9 23.9001 37.7 21.9001 37.8 20.0001C37.8 19.1001 37.6 18.3001 37.2 17.6001C36.7 16.9001 35.8 16.5001 34.8 16.5001C33.7 16.5001 32.6 16.9001 31.5 17.6001C30.5 18.3001 29.7 19.1001 29 20.0001C27.5 22.0001 26.7 24.0001 26.7 26.0001C26.6 26.9001 26.8 27.7001 27.3 28.3001ZM13 35.1001L26.2 1.1001H36L31.5 12.6001C35 10.6001 38.5 9.7001 41.9 10.0001C45.4 10.3001 47.8 12.3001 48.3 15.4001C49.1 20.2001 46.9 25.8001 42.4 30.6001C39.4 33.7001 35.5 35.8001 31.7 36.1001C28.2 36.4001 25.3 35.3001 23.7 33.1001L22.9 35.2001H13V35.1001ZM44.3 35.1001L57.5 1.1001H67.7L54.5 35.1001H44.3ZM92.8 10.9001L83.4 35.1001H73.8L74.7 32.8001C73.4 33.8001 72.1 34.5001 70.6 35.0001C67.2 36.1001 64.1 36.2001 61.5 35.1001C58.5 33.9001 57.5 30.8001 58.9 27.3001L65.2 11.0001H75.2L69.6 25.4001C69.2 26.4001 69.3 27.3001 69.7 28.0001C70.1 28.7001 70.9 29.1001 71.9 29.1001C72.9 29.1001 74 28.7001 75.1 28.0001C76.1 27.3001 76.9 26.4001 77.3 25.4001L82.9 11.0001H92.8V10.9001ZM94 10.9001H102.9L101.9 13.6001C105.4 10.8001 109.5 9.5001 113 10.1001C115.2 10.5001 116.7 11.8001 117.3 13.8001C118.8 12.5001 120.4 11.6001 122.2 10.9001C125.2 9.8001 128 9.6001 130.4 10.4001C133.5 11.5001 134.7 14.9001 133.3 18.6001L127.4 35.0001H118.2L123.4 20.6001C123.8 19.6001 123.7 18.7001 123.3 17.9001C122.9 17.2001 122.1 16.8001 121.1 16.8001C120.2 16.8001 119.2 17.2001 118.2 17.9001C117.3 18.6001 116.6 19.5001 116.2 20.5001L111 35.0001H101.5L106.7 20.6001C107.1 19.6001 107 18.6001 106.6 17.9001C106.1 17.2001 105.3 16.8001 104.3 16.9001C103.4 16.9001 102.4 17.3001 101.5 18.0001C100.6 18.7001 100 19.6001 99.6 20.5001L94.3 35.0001H85L94 10.9001Z" fill="#A5A5A5"/>
</svg>
