<svg width="160" height="34" viewBox="0 0 160 34" fill="none" xmlns="http://www.w3.org/2000/svg">
<path fill-rule="evenodd" clip-rule="evenodd" d="M95.2 13.7999L91 23.1999L85.3 13.7999H75.4L69.8 25.9999L67 13.6999H58.1C58.1 13.6999 56.8 13.6999 55.7 14.1999C54.8 14.5999 54.1 15.1999 54.1 15.1999L45.8 22.4999C40.7 26.4999 31.7 28.8999 29.2 28.9999C17.2 29.4999 14.7 21.3999 15.6 17.4999C17.7 7.49992 33.2 5.19992 41.3 5.19992C45.1 5.19992 48.3 5.99992 50.8 6.59992L53.2 2.39992L51.3 1.99992C49.2 1.69992 45.8 0.999918 40.1 0.999918C17 0.899918 5.2 7.39992 1.6 15.6999C-2.5 25.0999 4.4 33.4999 23.7 33.4999C27.2 33.4999 34.1 33.1999 40.6 30.7999H47L50.2 27.8999H59.9L60.3 30.9999H71V30.8999H76.7L81.2 20.9999L87.1 30.8999H96.3L104.2 13.6999H95.2V13.7999ZM53.9 24.5999L59.1 19.6999L59.6 24.4999L53.9 24.5999Z" fill="#A5A5A5"/>
<path fill-rule="evenodd" clip-rule="evenodd" d="M121.1 13.7998H106.6L98.6 30.9998H113.1C124.7 31.0998 129.4 26.5998 131 23.1998C132.8 19.3998 131.3 13.7998 121.1 13.7998ZM122.5 22.0998C121.4 26.3998 115 26.6998 112.8 26.6998H110.2L114 18.0998H116.6C119.1 18.0998 123.5 18.4998 122.5 22.0998Z" fill="#A5A5A5"/>
<path fill-rule="evenodd" clip-rule="evenodd" d="M149.5 13.7L142.3 20.9L139.9 13.7999H131L136.8 26.9L131 32.5999H138.6C138.6 32.5999 140.1 32.3999 140.7 32.1999C141.3 31.9999 142.2 31.0999 142.2 31.0999L159.5 13.7H149.5Z" fill="#A5A5A5"/>
</svg>
