<svg width="169" height="100" viewBox="0 0 169 100" fill="none" xmlns="http://www.w3.org/2000/svg">
<path d="M51.5 57.3H44.4C44.4 57.3 42.8 60.6 39 60.6C36.6 60.7 34 59.4 32.8 57.3H25.7C25.7 57.3 28.8 66.6 39 66.6C47.9 66.6 51.5 57.3 51.5 57.3Z" fill="#A5A5A5"/>
<path d="M85.5 55.5999C85.6 55.5999 88 48.7999 88 48.7999L90.5 55.5999H97.3L91.4 40.3999H84.6L78.7 55.5999H85.5V55.5999Z" fill="#A5A5A5"/>
<path d="M49.9 73.6001H46.8L45 82.1001H46.1L46.8 78.6001H49.5C51.5 78.6001 52.5 77.3001 52.5 75.8001C52.6 74.4001 51.7 73.6001 49.9 73.6001ZM49.3 77.7001H47L47.7 74.6001H49.3C50.3 74.6001 51.4 74.6001 51.4 75.9001C51.5 77.1001 50.6 77.7001 49.3 77.7001Z" fill="#A5A5A5"/>
<path d="M68.6 55.5999L78.7 40.3999H70.3L65.2 49.6999H64.4L58.5 40.3999H50.9L61 55.5999H68.6Z" fill="#A5A5A5"/>
<path d="M68.6 57.3H61V66.6H68.6V57.3Z" fill="#A5A5A5"/>
<path d="M15.4 57.3C15.9 57.7 16.2 58.3001 16.2 58.9001C16.2 59.7001 15.4 61.4001 12 61.4001H7.8V55.5H21.3C20.6 54.5 19.7 53.7 18.8 53C17.6 52.3 18 52.2001 18 52.2001C18 52.2001 20.5 49.7 20.5 47.1C20.5 44.5 18.5 40.3 12 40.3H1V66.6H14.5C17.8 66.5 20.8 64.5 22.1 61.5C22.5 60.1 22.5 58.7 22.1 57.3H15.4V57.3ZM7.5 45C7.5 45 9.9 45.1 12.1 45C14.3 44.9 14.4 50.9001 11.9 50.9001C9.4 50.9001 7.5 50.9001 7.5 50.9001V45Z" fill="#A5A5A5"/>
<path d="M32.3 55.5999C32.3 55.5999 30.8 46.2999 38.4 46.2999C46.7 46.2999 45 55.5999 45 55.5999H51.8C51.8 55.5999 53.8 40.3999 38.3 40.3999C22.8 40.3999 25.5 55.5999 25.5 55.5999H32.3Z" fill="#A5A5A5"/>
<path d="M153.1 53C153.1 47 147.2 40.3 142.1 40.3H130.3V55.5H136.2V45.4001H140.4C143.4 45.4001 147.2 49.8 147.2 53C147.2 56.2 144 61.5 140.4 61.5H136.2V57.3H130.3V66.6H143C148 66.6 153.1 59.1 153.1 53Z" fill="#A5A5A5"/>
<path d="M96.5 31.9001L91.4 22.6001L85.5 38.7001H94L96.5 31.9001Z" fill="#C0C0C0"/>
<path d="M154.3 43.0999C155.8 43.0999 157.2 42.2999 157.9 40.9999C158.3 40.3999 158.5 39.5999 158.4 38.8999C158.4 38.1999 158.2 37.3999 157.9 36.7999C157.5 36.1999 157 35.6999 156.4 35.2999C155.8 34.8999 155 34.6999 154.3 34.7999C153.6 34.7999 152.8 34.9999 152.2 35.3999C151.6 35.7999 151 36.2999 150.7 36.8999C150 38.1999 150 39.7999 150.7 41.0999C151.5 42.3999 152.8 43.1999 154.3 43.0999ZM151.4 37.1999C151.7 36.6999 152.1 36.2999 152.6 35.9999C153.7 35.3999 155 35.3999 156.1 35.9999C156.6 36.2999 157 36.6999 157.3 37.1999C157.9 38.2999 157.9 39.5999 157.3 40.6999C157 41.1999 156.6 41.5999 156.1 41.8999C155.6 42.1999 155 42.3999 154.4 42.3999C153.8 42.3999 153.2 42.2999 152.7 41.9999C152.2 41.6999 151.8 41.2999 151.5 40.7999C150.8 39.5999 150.8 38.2999 151.4 37.1999Z" fill="#A5A5A5"/>
<path d="M153.8 39.9H154.6L155.5 41.2H156.7L155.7 39.7C156 39.6 156.2 39.4 156.3 39.1C156.5 38.8 156.5 38.5 156.5 38.2C156.5 37.7 156.3 37.3 156 37C155.6 36.7 155.1 36.5 154.5 36.6H152.5V41.2H153.7V39.9H153.8ZM153.7 37.6H154.4C154.6 37.6 154.9 37.7 155 37.8C155.2 37.9 155.2 38.1 155.2 38.3C155.2 38.5 155.1 38.7 155 38.8C154.8 38.9 154.6 39 154.4 39H153.7V37.6Z" fill="#A5A5A5"/>
<path d="M112.5 57.3L118.5 66.6H126.9L120.1 57.3H112.5Z" fill="#A5A5A5"/>
<path d="M111.7 57.3H105.8V66.6H111.7V57.3Z" fill="#A5A5A5"/>
<path d="M103.2 38.7001L105.8 31.9001L100.7 22.6001L94.8 38.7001H103.2Z" fill="#C0C0C0"/>
<path d="M74.5 66.6H82.1L83.8 61.5H92.3L94 66.6H101.6L98.2 57.3H77.9L74.5 66.6Z" fill="#A5A5A5"/>
<path d="M112.5 38.7001L115.1 31.9001L110 22.6001L104.1 38.7001H112.5Z" fill="#C0C0C0"/>
<path d="M103.5 76L103.2 77.3C102.9 78.7 102.4 80 101.6 81.3H100.9L100.3 84.1H101.3L101.7 82.2H106.3L105.9 84.1H106.9L107.5 81.3H106.7L107.8 76H103.5ZM105.6 81.2H102.6C103.3 80 103.8 78.7 104.1 77.3L104.2 76.7H106.5L105.6 81.2Z" fill="#A5A5A5"/>
<path d="M138.8 75.8C138.7 75.8 138.5 75.8 138.4 75.8C136.5 75.8 135.1 77.5 135.1 79.7C135 81 135.9 82.2 137.2 82.3C137.3 82.3 137.5 82.3 137.6 82.3C138.9 82.4 140.1 81.5 140.4 80.2H139.4C139.2 81 138.5 81.5 137.7 81.5C136.9 81.5 136.1 80.9 136.1 80.1C136.1 80 136.1 79.9 136.1 79.8C136.1 79.7 136.1 79.5 136.1 79.4H140.7C140.8 79.1 140.8 78.7 140.8 78.4C140.9 77.1 140 75.9 138.8 75.8ZM139.8 78.2C139.8 78.3 139.8 78.3 139.8 78.4H136.3C136.4 77.4 137.3 76.6 138.4 76.5C139.2 76.4 139.9 77 139.9 77.8C139.8 78 139.8 78.1 139.8 78.2Z" fill="#A5A5A5"/>
<path d="M110.1 79.3C109.7 80.8 109.3 81.3 108.8 81.3C108.6 81.3 108.5 81.3 108.3 81.2L108.1 82C108.3 82.1 108.6 82.1 108.8 82.1C109.8 82.1 110.5 81.4 111 79.5L111.7 76.8H113.8L112.7 82.1H113.7L115 76H110.9L110.1 79.3Z" fill="#A5A5A5"/>
<path d="M129.8 80.9L129 76H127.6L126.3 82.1H127.3L128.3 77.2H128.4L129.1 82.1H130.1L132.9 77.2L131.9 82.1H132.9L134.2 76H132.7L129.8 80.9Z" fill="#A5A5A5"/>
<path d="M116.5 77.6001C116.5 77.7001 116.5 77.8001 116.5 77.9001C116.5 78.7001 117 79.3001 117.8 79.4001L115.1 82.0001H116.4L118.8 79.4001H120.1L119.5 82.0001H120.5L121.8 75.9001H118.6C117.6 75.8001 116.6 76.6001 116.5 77.6001ZM120.7 76.8001L120.3 78.7001H118.9C118.3 78.7001 117.5 78.7001 117.5 77.9001C117.5 77.2001 118 76.8001 118.9 76.8001H120.7V76.8001Z" fill="#A5A5A5"/>
<path d="M146.2 73.8C145.2 73.8 144.2 74.3 143.5 75.1C142.6 76.5 142.2 78.1 142.1 79.7C141.9 81 142.8 82.1 144.1 82.2C144.3 82.2 144.4 82.2 144.6 82.2C146.7 82.2 148 80.3 148 78.3C148.1 77.1 147.2 76 146 75.9C145.8 75.9 145.7 75.9 145.5 75.9C144.6 75.9 143.8 76.4 143.3 77.2C143.8 75.7 144.6 74.9 145.9 74.8C147 74.7 148.3 74.8 148.6 73.5H147.6C147.4 73.7 147 73.7 146.2 73.8ZM145.4 76.7C146.2 76.6 146.9 77.2 146.9 78C146.9 78.1 146.9 78.2 146.9 78.3C146.9 80 145.9 81.3 144.7 81.3C143.9 81.3 143.1 80.7 143.1 79.8C143.1 79.7 143.1 79.6 143.1 79.5C143.1 78.3 143.9 76.7 145.4 76.7Z" fill="#A5A5A5"/>
<path d="M157 79.3C156.6 80.8 156.2 81.3 155.7 81.3C155.5 81.3 155.4 81.3 155.2 81.2L155 82C155.2 82.1 155.5 82.1 155.7 82.1C156.7 82.1 157.4 81.4 157.9 79.5L158.6 76.8H160.7L159.6 82.1H160.6L161.9 76H157.8L157 79.3Z" fill="#A5A5A5"/>
<path d="M152.9 75.8C152.8 75.8 152.6 75.8 152.5 75.8C150.6 75.8 149.2 77.5 149.2 79.7C149.1 81 150 82.2 151.3 82.3C151.4 82.3 151.6 82.3 151.7 82.3C153 82.4 154.2 81.5 154.5 80.2H153.5C153.3 81 152.6 81.5 151.8 81.5C150.8 81.4 150.1 80.5 150.2 79.6C150.2 79.5 150.2 79.5 150.2 79.4H154.8C154.9 79.1 154.9 78.7 154.9 78.4C155 77.1 154.1 75.9 152.9 75.8ZM153.9 78.2C153.9 78.3 153.9 78.4 153.9 78.4H150.4C150.5 77.4 151.4 76.6 152.5 76.5C153.3 76.4 154 77 154 77.8C153.9 78 153.9 78.1 153.9 78.2Z" fill="#A5A5A5"/>
<path d="M94.7 75.8C94.6 75.8 94.4 75.8 94.3 75.8C92.4 75.8 91 77.5 91 79.7C90.9 81 91.8 82.2 93.1 82.3C93.2 82.3 93.4 82.3 93.5 82.3C94.8 82.4 96 81.5 96.3 80.2H95.3C95.1 81 94.4 81.5 93.6 81.5C92.8 81.5 92 80.9 92 80C92 79.9 92 79.8 92 79.7C92 79.6 92 79.4 92 79.3H96.6C96.7 79 96.7 78.6 96.7 78.3C96.9 77.1 96 75.9 94.7 75.8ZM95.8 78.2C95.8 78.3 95.8 78.3 95.8 78.4H92.3C92.4 77.4 93.3 76.6 94.4 76.5C95.2 76.4 95.9 77 95.9 77.8C95.8 78 95.8 78.1 95.8 78.2Z" fill="#A5A5A5"/>
<path d="M73.8 75.8C73.7 75.8 73.5 75.8 73.4 75.8C71.5 75.8 70.1 77.5 70.1 79.7C70 81 70.9 82.2 72.2 82.3C72.3 82.3 72.5 82.3 72.6 82.3C73.9 82.4 75.1 81.5 75.4 80.2H74.4C74.2 81 73.5 81.5 72.7 81.5C71.7 81.4 71 80.6 71.1 79.6C71.1 79.5 71.1 79.4 71.1 79.4H75.7C75.8 79.1 75.8 78.7 75.8 78.4C75.9 77.1 75 75.9 73.8 75.8ZM74.8 78.2C74.8 78.3 74.8 78.4 74.8 78.4H71.3C71.4 77.4 72.3 76.6 73.4 76.5C74.2 76.4 74.9 77 74.9 77.8C74.9 78 74.8 78.1 74.8 78.2Z" fill="#A5A5A5"/>
<path d="M67.1 81.2H64.5L65.7 76H64.7L63.5 81.2H61L62.1 76H61.1L59.8 82.1H67.9L69.2 76H68.2L67.1 81.2Z" fill="#A5A5A5"/>
<path d="M167.6 75.8999L163.9 80.8999L164.9 75.8999H163.9L162.6 82.0999H164L167.8 77.0999L166.7 82.0999H167.7L169 75.8999H167.6Z" fill="#A5A5A5"/>
<path d="M56.9 75.8C56.8 75.8 56.6 75.8 56.5 75.8C54.6 75.8 53.2 77.5 53.2 79.7C53.1 81 54 82.2 55.3 82.3C55.4 82.3 55.6 82.3 55.7 82.3C57 82.4 58.2 81.5 58.5 80.2H57.5C57.3 81 56.6 81.5 55.8 81.5C55 81.5 54.2 80.9 54.2 80C54.2 79.9 54.2 79.8 54.2 79.7C54.2 79.6 54.2 79.4 54.2 79.3H58.8C58.9 79 58.9 78.6 58.9 78.3C59.1 77.1 58.2 75.9 56.9 75.8ZM58 78.2C58 78.3 58 78.3 58 78.4H54.5C54.6 77.4 55.5 76.6 56.6 76.5C57.4 76.4 58.1 77 58.1 77.8C58 78 58 78.1 58 78.2Z" fill="#A5A5A5"/>
<path d="M85 80.9L86.1 76H85.1L83.8 82.1H85.1L88.9 77.1L87.8 82.1H88.8L90.1 76H88.8L85 80.9Z" fill="#A5A5A5"/>
<path d="M81.5 78.4H78.5L79 76H78L76.7 82.1H77.7L78.3 79.2H81.3L80.8 82.1H81.8L83.1 76H82.1L81.5 78.4Z" fill="#A5A5A5"/>
<path d="M117.6 40.3999H105.8V55.5999H119.3C121.7 55.5999 124.4 50.9999 124.4 47.9999C124.4 44.8999 121 40.3999 117.6 40.3999ZM116.6 50.8999C113.8 50.8999 111.7 50.8999 111.7 50.8999V44.9999C111.7 44.9999 113.4 44.9999 116.6 44.9999C119.8 45.0999 119.4 50.8999 116.6 50.8999Z" fill="#A5A5A5"/>
</svg>
