<?xml version="1.0" encoding="utf-8"?>
<!-- Generator: Adobe Illustrator 19.0.1, SVG Export Plug-In . SVG Version: 6.00 Build 0)  -->
<svg version="1.1" id="Слой_1" xmlns="http://www.w3.org/2000/svg" xmlns:xlink="http://www.w3.org/1999/xlink" x="0px" y="0px"
	 viewBox="0 0 180 40" style="enable-background:new 0 0 180 40;" xml:space="preserve">
<style type="text/css">
	.st0{fill:#E40175;}
	.st1{fill:#353535;}
</style>
<g id="medium">
	<g>
		<g>
			<g>
				<g>
					<path class="st0" d="M46.7,6.2C45.2,2.5,41.6,0,38,0c-4.3,0-7.5,1.5-9.7,3.5c-2.2-1.9-5.1-3.4-8.9-3.4c-4.4,0-8,2.2-9.5,6
						c-1.7,4.1-0.6,9.4,2.6,12.7l8.6,8.6l5.6-5.6l-8.6-8.6c-1-1-1.4-2.8-0.9-4C17.3,8.7,17.6,8,19.4,8c3.5,0,5.2,3.3,5.4,3.6
						c0.7,1.5,2.1,2.4,3.8,2.4c1.6-0.1,3-1.1,3.5-2.6c0.2-0.5,1.7-3.4,5.9-3.4c0.2,0,1.1,0.4,1.4,1.3c0.5,1.3-0.5,2.6-1.4,3.5
						l-17,17L6.6,15.3l0,0c-0.7-0.6-1.6-1-2.6-1c-2.2,0-3.9,1.8-3.9,3.9c0,1.2,0.6,2.3,1.5,3.1l16.8,16.8c0.8,0.8,1.8,1.2,2.8,1.2
						c1,0,2-0.4,2.8-1.2l19.8-19.8C47.2,14.8,48.4,10.2,46.7,6.2z"/>
				</g>
				<g>
					<path class="st0" d="M55.7,18.3c0-2.2-1.8-3.9-3.9-3.9c-1.3,0-2.5,0.7-3.2,1.7L29.1,35.4l2.8,2.8c0.7,0.7,1.7,1.2,2.8,1.2h0
						c1.1,0,2.1-0.4,2.8-1.2l17.1-17.1L54.6,21C55.3,20.3,55.7,19.3,55.7,18.3z"/>
				</g>
			</g>
		</g>
	</g>
	<g>
		<path class="st1" d="M95.1,5.7l-4.3,13.2h-4l-2.5-8l-2.6,8h-4L73.4,5.7h3.8l2.7,8.4l2.8-8.4h3.4l2.7,8.5l2.8-8.5H95.1z"/>
		<path class="st1" d="M102.1,18.3c-1.1-0.6-2-1.4-2.6-2.4s-1-2.2-1-3.5c0-1.3,0.3-2.5,1-3.5c0.6-1,1.5-1.9,2.6-2.4
			c1.1-0.6,2.4-0.9,3.8-0.9c1.4,0,2.6,0.3,3.8,0.9c1.1,0.6,2,1.4,2.6,2.4c0.6,1,1,2.2,1,3.5c0,1.3-0.3,2.5-1,3.5s-1.5,1.9-2.6,2.4
			c-1.1,0.6-2.4,0.9-3.8,0.9C104.5,19.2,103.2,18.9,102.1,18.3z M107.7,15.6c0.5-0.3,1-0.8,1.3-1.3c0.3-0.6,0.5-1.2,0.5-2
			c0-0.7-0.2-1.4-0.5-2c-0.3-0.6-0.7-1-1.3-1.3c-0.5-0.3-1.1-0.5-1.8-0.5c-0.7,0-1.3,0.2-1.8,0.5c-0.5,0.3-1,0.8-1.3,1.3
			c-0.3,0.6-0.5,1.2-0.5,2c0,0.7,0.2,1.4,0.5,2c0.3,0.6,0.7,1,1.3,1.3c0.5,0.3,1.1,0.5,1.8,0.5C106.5,16.1,107.1,16,107.7,15.6z"/>
		<path class="st1" d="M138.3,5.7L134,18.9h-4l-2.5-8l-2.6,8h-4l-4.3-13.2h3.8l2.7,8.4l2.8-8.4h3.4l2.7,8.5l2.8-8.5H138.3z"/>
		<path class="st1" d="M79.5,33l-1.4,1.5v3.3h-3.7V24.6h3.7v5.5l5.1-5.5h4.1L82,30.4l5.7,7.3h-4.3L79.5,33z"/>
		<path class="st1" d="M91.5,24.6h3.7v13.2h-3.7V24.6z"/>
		<path class="st1" d="M103.7,27.6h-4.1v-3h11.8v3h-4v10.2h-3.7V27.6z"/>
		<path class="st1" d="M118.4,37.2c-1.1-0.6-2-1.4-2.6-2.4c-0.6-1-0.9-2.2-0.9-3.5c0-1.3,0.3-2.5,0.9-3.5c0.6-1,1.5-1.9,2.6-2.4
			c1.1-0.6,2.3-0.9,3.7-0.9c1.2,0,2.3,0.2,3.3,0.6c1,0.4,1.8,1,2.4,1.8l-2.4,2.1c-0.9-1-1.9-1.5-3.1-1.5c-0.7,0-1.4,0.2-1.9,0.5
			c-0.6,0.3-1,0.8-1.3,1.3c-0.3,0.6-0.5,1.2-0.5,2c0,0.7,0.2,1.4,0.5,2c0.3,0.6,0.7,1,1.3,1.3c0.6,0.3,1.2,0.5,1.9,0.5
			c1.2,0,2.3-0.5,3.1-1.5l2.4,2.1c-0.6,0.8-1.4,1.4-2.4,1.8c-1,0.4-2.1,0.6-3.3,0.6C120.7,38,119.5,37.8,118.4,37.2z"/>
		<path class="st1" d="M144.9,24.6v13.2h-3.7v-5.1h-5.1v5.1h-3.7V24.6h3.7v5h5.1v-5H144.9z"/>
		<path class="st1" d="M161.1,34.9v2.9h-10.6V24.6h10.3v2.9h-6.7v2.2h5.9v2.8h-5.9v2.4H161.1z"/>
		<path class="st1" d="M178.6,24.6v13.2h-3.1l-5.8-7v7h-3.7V24.6h3.1l5.8,7v-7H178.6z"/>
	</g>
</g>
</svg>
