<?xml version="1.0" encoding="utf-8"?>
<!-- Generator: Adobe Illustrator 19.0.1, SVG Export Plug-In . SVG Version: 6.00 Build 0)  -->
<svg version="1.1" xmlns="http://www.w3.org/2000/svg" xmlns:xlink="http://www.w3.org/1999/xlink" x="0px" y="0px"
	 viewBox="0 0 618 916.4" style="enable-background:new 0 0 618 916.4;" xml:space="preserve">
<style type="text/css">
	.st0{fill:#EAEAEA;}
</style>
<g id="Слой_4">
</g>
<g id="Слой_3">
</g>
<g id="Слой_2">
</g>
<g id="Слой_1_1_">
	<g>
		<path class="st0" d="M385,366.3c-0.6,0-1.3-0.1-1.9-0.3l-65.2-18.4c-3.8-1.1-6-5-4.9-8.7c1.1-3.8,5-6,8.7-4.9l54.9,15.5l-7.7-62.2
			c-0.3-2.5,0.7-5,2.7-6.5c2-1.5,4.6-1.9,7-1l48.4,19.5l-6.4-53.3c-0.5-3.9,2.3-7.4,6.2-7.9c3.9-0.5,7.4,2.3,7.9,6.2l7.9,65.2
			c0.3,2.5-0.7,5-2.7,6.5c-2,1.5-4.6,1.9-7,0.9l-48.4-19.5l7.5,60.9c0.3,2.4-0.6,4.7-2.4,6.2C388.3,365.7,386.7,366.3,385,366.3z"/>
		<path class="st0" d="M348,275.1c-0.4,0-0.8,0-1.2-0.1c-2.4-0.4-4.4-2-5.3-4.2l-20.7-49.3c-1-2.3-0.6-5,0.9-7c1.5-2,4-3.1,6.5-2.8
			l60,6.7c2.7,0.3,4.9,2.1,5.9,4.6c0.9,2.5,0.4,5.3-1.4,7.3l-39.3,42.7C351.8,274.3,349.9,275.1,348,275.1z M338.5,227l11.7,28
			l22.4-24.3L338.5,227z"/>
		<path class="st0" d="M421.3,203.1c-0.3,0-0.5,0-0.8,0l-54.7-6c-3.9-0.4-6.7-3.9-6.3-7.8c0.4-3.9,3.9-6.7,7.8-6.3l54.7,6
			c3.9,0.4,6.7,3.9,6.3,7.8C427.9,200.4,424.9,203.1,421.3,203.1z"/>
		<path class="st0" d="M234,329.9c-1.1,0-2.2-0.2-3.2-0.8c-16.5-8.3-26.9-28.7-22.7-44.6c1.9-7.1,9.7-23.4,41.6-21.6
			c17.7,1,30-2.6,33.7-9.8c3.5-6.8,0-17.9-8.9-29c-14.3-17.6-10.8-33.1-2.8-41.6c11.2-11.9,35.1-15.5,55.7-1c3.2,2.3,4,6.7,1.7,9.9
			c-2.3,3.2-6.7,4-9.9,1.7c-13.7-9.7-30.3-8.3-37.2-0.9c-7.1,7.5-0.8,17.6,3.5,23c12.9,16,16.8,32.2,10.5,44.4
			c-4.2,8.3-14.7,17.7-40.5,17.7c-2.1,0-4.3-0.1-6.6-0.2c-8.9-0.5-24.2,0.3-27.1,11.1c-2.5,9.5,4.8,23,15.4,28.2
			c3.5,1.8,4.9,6,3.2,9.5C239.1,328.5,236.5,329.9,234,329.9z"/>
		<path class="st0" d="M286.6,377.1c-1.6,0-3.1-0.5-4.5-1.6c-25.7-20.8-25.1-47.4-13-64.6c13.3-19,41.8-29,70.5-11.7
			c3.3,2,4.4,6.4,2.4,9.7c-2,3.3-6.4,4.4-9.7,2.4c-21.3-12.9-42-5.9-51.6,7.7c-7.6,10.9-9.5,29.3,10.4,45.4c3,2.5,3.5,6.9,1,10
			C290.7,376.2,288.7,377.1,286.6,377.1z"/>
		<path class="st0" d="M210.6,255"/>
		<path class="st0" d="M169,369.7c-1.4,0-2.8-0.4-4-1.2c-2.1-1.4-3.3-3.9-3.1-6.4l2.7-37.1L136,340.6c-3.3,1.8-7.4,0.7-9.4-2.5
			L100,295.8c-2.1-3.3-1.1-7.7,2.2-9.8c3.3-2.1,7.7-1.1,9.8,2.2l23.1,36.8l34.2-18.6c2.3-1.2,5-1.1,7.2,0.3c2.2,1.4,3.4,3.9,3.2,6.5
			l-2.8,37.7l34.2-16.6c3.5-1.7,7.8-0.2,9.5,3.3c1.7,3.5,0.2,7.8-3.3,9.5l-45.2,22C171.1,369.5,170,369.7,169,369.7z"/>
		<path class="st0" d="M258.6,407.7H204c-2.6,0-5-1.2-6.2-3.5c-1.2-2.3-1-5,0.5-7.1l32.7-46.4c2.2-3.2,6.6-3.9,9.8-1.7
			c1.9,1.4,3,3.5,3,5.7c0.2,0.3,0.4,0.7,0.6,1l20.7,42.4c1.1,2.2,0.9,4.5-0.4,6.5S261,407.7,258.6,407.7z M217.4,393.7h30
			l-12.3-25.2L217.4,393.7z"/>
		<path class="st0" d="M278,473.7c-0.3,0-0.7,0-1.1-0.1c-3.8-0.6-6.5-4.1-5.9-8l10-66c0.6-3.8,4.1-6.5,8-5.9c3.8,0.6,6.5,4.1,5.9,8
			l-10,66C284.4,471.2,281.4,473.7,278,473.7z"/>
		<path class="st0" d="M404.6,489.7c-1.6,0-3.1-0.5-4.4-1.6c-3.1-2.4-3.6-6.9-1.1-10l25.2-31.5l-44.5-19.6c-3.6-1.6-5.2-5.8-3.6-9.3
			c1.6-3.6,5.8-5.2,9.3-3.6l52.9,23.3c2,0.9,3.5,2.7,4,4.8c0.5,2.1,0,4.4-1.3,6.1l-30.9,38.7C408.8,488.8,406.7,489.7,404.6,489.7z"
			/>
		<path class="st0" d="M415.8,402.8c-4.8,0-9.9-0.9-15-2.9c-3.7-1.4-5.5-5.5-4.1-9.1c1.4-3.7,5.5-5.5,9.1-4.1
			c10.7,4.1,20.5,1.8,24.5-5.7c4.9-9.2,0.1-25.4-21.7-40.8c-3.2-2.3-4-6.7-1.7-9.9c2.3-3.2,6.7-4,9.9-1.7
			c30.8,21.8,33.3,45.4,26.1,59.1C437.6,397.4,427.4,402.8,415.8,402.8z"/>
		<path class="st0" d="M134.3,255.1c-3.1,0-6-2.1-6.8-5.2c-1-3.8,1.2-7.7,4.9-8.7c11.4-3.2,20.6-15.3,20.1-23.1
			c-0.3-4.7-4.5-7.6-12.5-8.7c-26.9-3.8-42.7-11.8-47-23.8c-3.3-9.1,0.2-19.2,10.1-30c10.1-11,11.1-16.9,10.9-18.1
			c-1-0.7-6.6-2-19.9,2.9c-3.7,1.3-7.7-0.5-9.1-4.2c-1.3-3.7,0.5-7.7,4.2-9.1c23.1-8.5,32.6-3.3,36.5,2.6c3.9,5.9,5,16.8-12.2,35.6
			c-3.4,3.7-8.9,10.7-7.2,15.6c0.8,2.4,5.9,10.4,35.6,14.6c21.2,3,24.3,16.3,24.7,21.8c1,15.3-13.2,32.9-30.5,37.7
			C135.5,255,134.9,255.1,134.3,255.1z"/>
		<path class="st0" d="M457.3,284.4c-3.4,0-6.4-2.5-7-6c-0.6-3.9,2-7.5,5.9-8.1c13.8-2.2,24-9.4,27.9-19.8c2.8-7.6,1.8-15.4-2.9-21
			c-5.8-7-16.2-9.5-29.3-7.2c-3.9,0.7-7.5-1.9-8.2-5.8c-0.7-3.9,1.9-7.5,5.8-8.2c24.8-4.4,37.4,5.7,42.7,12.1
			c7.8,9.4,9.8,22.9,5.2,35c-5.7,15.3-19.9,25.8-38.9,28.8C458,284.4,457.7,284.4,457.3,284.4z"/>
		<path class="st0" d="M509.9,395.7c-3.5,0-6.5-2.6-7-6.1l-7.3-54.3c-0.5-3.9,2.2-7.4,6.1-8c3.9-0.5,7.4,2.2,8,6.1l7.3,54.3
			c0.5,3.9-2.2,7.4-6.1,8C510.6,395.7,510.3,395.7,509.9,395.7z"/>
		<path class="st0" d="M336,423.1c-15.7,0-28.4-12.7-28.4-28.4s12.7-28.4,28.4-28.4s28.4,12.7,28.4,28.4S351.6,423.1,336,423.1z
			 M336,380.4c-7.9,0-14.2,6.4-14.2,14.2s6.4,14.2,14.2,14.2c7.9,0,14.2-6.4,14.2-14.2S343.8,380.4,336,380.4z"/>
		<path class="st0" d="M448,186.3c-0.2,0-0.3,0-0.5,0c-3.9-0.3-6.8-3.6-6.5-7.5l1.9-28.4l-41.8,15.7c-2.2,0.8-4.7,0.5-6.6-0.9
			c-1.9-1.4-3-3.6-2.9-6l1.3-26.7l-53.4,32.7c-2.3,1.4-5.2,1.4-7.5-0.1c-2.3-1.5-3.5-4.1-3.1-6.8l6.7-51.3c0.5-3.8,4-6.5,7.8-6
			c3.8,0.5,6.5,4,6,7.8l-4.8,36.8l52.2-32c2.2-1.4,5-1.4,7.2-0.1c2.2,1.3,3.5,3.8,3.4,6.4l-1.5,29.3l42-15.8
			c2.2-0.8,4.7-0.5,6.6,0.9c1.9,1.4,3,3.7,2.8,6.1l-2.7,39.2C454.7,183.5,451.6,186.3,448,186.3z"/>
		<path class="st0" d="M335.9,82.3c-3.3,0-6.2-2.3-6.9-5.6c-0.8-3.8,1.7-7.5,5.5-8.2l57.3-11.3c3.8-0.7,7.5,1.7,8.2,5.5
			s-1.7,7.5-5.5,8.2l-57.3,11.3C336.9,82.3,336.4,82.3,335.9,82.3z"/>
		<path class="st0" d="M468,507.7c-1.2,0-2.5-0.3-3.6-1c-3.3-2-4.4-6.3-2.4-9.6c18-29.9,10-39.1,0.7-49.8
			c-11.5-13.1-22.3-32.1-4-62.2c8.5-14,11.6-27.4,8.9-37.8c-2-7.6-7.1-13.7-15.1-18.3c-3.4-1.9-4.5-6.2-2.6-9.5
			c1.9-3.4,6.2-4.5,9.5-2.6c11.5,6.5,18.8,15.6,21.7,27c3.7,14.3,0.1,31.1-10.5,48.6c-12.7,21-8.1,33.5,2.6,45.8
			c13.1,15.1,22.3,30.4,0.7,66.2C472.6,506.5,470.3,507.7,468,507.7z"/>
		<path class="st0" d="M515.7,454.2c-12.8,0-23.3-10.4-23.3-23.3s10.4-23.3,23.3-23.3s23.3,10.4,23.3,23.3S528.5,454.2,515.7,454.2z
			 M515.7,421.7c-5.1,0-9.3,4.2-9.3,9.3s4.2,9.3,9.3,9.3s9.3-4.2,9.3-9.3S520.8,421.7,515.7,421.7z"/>
		<path class="st0" d="M302.1,159.7c-0.7,0-1.4-0.1-2.1-0.3c-14.3-4.5-35.5-17-35.5-32.5c0-6.5,3.8-15.4,21.4-20.8
			c12.8-3.9,26-8,27.6-11.6c1.3-3.1-3.5-12.7-5.1-15.9c-7.6-15.2-8.8-26.4-3.5-34.2c4.7-6.9,13.8-9.8,27-8.6l21.7,2
			c3.8,0.4,6.7,3.8,6.3,7.6c-0.4,3.8-3.8,6.7-7.6,6.3l-21.7-2c-7.3-0.7-12.6,0.3-14.2,2.5c-0.8,1.1-2.7,5.8,4.4,20
			c5.9,11.8,8.7,20.1,5.5,27.7c-4.1,9.6-16.2,13.3-36.3,19.5c-8.5,2.6-11.5,5.7-11.5,7.5c0,5,11.4,14.6,25.7,19.1
			c3.7,1.2,5.7,5.1,4.6,8.8C307.8,157.8,305,159.7,302.1,159.7z"/>
		<path class="st0" d="M129.6,389.7c-7.4,0-13.3-6-13.3-13.3s6-13.3,13.3-13.3s13.3,6,13.3,13.3S137,389.7,129.6,389.7z"/>
		<path class="st0" d="M315.8,279.7c-6.1,0-11-4.9-11-11s4.9-11,11-11s11,4.9,11,11S321.9,279.7,315.8,279.7z M315.8,265.7
			c-1.7,0-3,1.3-3,3s1.3,3,3,3s3-1.3,3-3S317.5,265.7,315.8,265.7z"/>
		<path class="st0" d="M369.6,109c-6.6,0-12-5.4-12-12s5.4-12,12-12s12,5.4,12,12S376.2,109,369.6,109z M369.6,95c-1.1,0-2,0.9-2,2
			s0.9,2,2,2s2-0.9,2-2S370.7,95,369.6,95z"/>
		<path class="st0" d="M446.3,91C440,91,435,85.9,435,79.7s5.1-11.3,11.3-11.3c6.2,0,11.3,5.1,11.3,11.3S452.5,91,446.3,91z
			 M446.3,77c-1.5,0-2.7,1.2-2.7,2.7s1.2,2.7,2.7,2.7c1.5,0,2.7-1.2,2.7-2.7S447.8,77,446.3,77z"/>
		<path class="st0" d="M436.1,121c-5.5,0-10-4.5-10-10s4.5-10,10-10s10,4.5,10,10S441.6,121,436.1,121z"/>
		<path class="st0" d="M245.6,232.1c-2.6,0-5.1-1.5-6.4-4l-27.3-56c-1.7-3.5-0.3-7.8,3.3-9.5c3.5-1.7,7.8-0.3,9.5,3.3l27.3,56
			c1.7,3.5,0.3,7.8-3.3,9.5C247.7,231.9,246.7,232.1,245.6,232.1z"/>
		<path class="st0" d="M157.5,176.5c-1.3,0-2.7-0.4-3.9-1.2c-3.2-2.2-4.1-6.8-1.9-10l19.8-29.7H144c-2.3,0-4.5-0.9-5.8-2.9
			c-1.3-1.9-1.5-4.5-0.7-6.7l16.7-40.4h-46.7c-3.9,0-7-3.1-7-7s3.1-7,7-7h57.2c2.3,0,4.5,1.4,5.8,3.4c1.3,1.9,1.5,4.3,0.7,6.4
			l-16.7,40.2h30.2c2.6,0,5,1.7,6.2,4s1.1,5.2-0.4,7.3l-27.1,40.4C162,175.4,159.7,176.5,157.5,176.5z"/>
		<path class="st0" d="M239.3,134c-0.9,0-1.8-0.2-2.7-0.6l-40.7-17.3c-2.4-1-4.1-3.4-4.2-6s1.2-5.2,3.5-6.5l46.3-26.7
			c3.4-1.9,7.6-0.8,9.6,2.6c1.9,3.4,0.8,7.6-2.6,9.6l-34.2,19.7l27.8,11.8c3.6,1.5,5.2,5.6,3.7,9.2C244.6,132.4,242,134,239.3,134z"
			/>
		<path class="st0" d="M186.8,462.9c-11.9,0-21.4-4.1-27.4-10.5c-11.1-11.9-13.9-35,11.6-64.3c2.5-2.9,7-3.2,9.9-0.7
			c2.9,2.5,3.2,7,0.7,9.9c-15.9,18.3-20.6,36.2-11.9,45.6c9,9.7,31.8,9.2,57.7-10.4c3.1-2.3,7.5-1.7,9.8,1.4
			c2.3,3.1,1.7,7.5-1.4,9.8C217.5,457.4,200.6,462.9,186.8,462.9z"/>
		<path class="st0" d="M385,762.3c-0.6,0-1.3-0.1-1.9-0.3l-65.2-18.4c-3.8-1.1-6-5-4.9-8.7c1.1-3.8,5-6,8.7-4.9l54.9,15.5l-7.7-62.2
			c-0.3-2.5,0.7-5,2.7-6.5c2-1.5,4.6-1.9,7-1l48.4,19.5l-6.4-53.3c-0.5-3.9,2.3-7.4,6.2-7.9c3.9-0.5,7.4,2.3,7.9,6.2l7.9,65.2
			c0.3,2.5-0.7,5-2.7,6.5c-2,1.5-4.6,1.9-7,0.9l-48.4-19.5l7.5,60.9c0.3,2.4-0.6,4.7-2.4,6.2C388.3,761.7,386.7,762.3,385,762.3z"/>
		<path class="st0" d="M348,671.1c-0.4,0-0.8,0-1.2-0.1c-2.4-0.4-4.4-2-5.3-4.2l-20.7-49.3c-1-2.3-0.6-5,0.9-7c1.5-2,4-3.1,6.5-2.8
			l60,6.7c2.7,0.3,4.9,2.1,5.9,4.6c0.9,2.5,0.4,5.3-1.4,7.3l-39.3,42.7C351.8,670.3,349.9,671.1,348,671.1z M338.5,623l11.7,28
			l22.4-24.3L338.5,623z"/>
		<path class="st0" d="M421.3,599.1c-0.3,0-0.5,0-0.8,0l-54.7-6c-3.9-0.4-6.7-3.9-6.3-7.8c0.4-3.9,3.9-6.7,7.8-6.3l54.7,6
			c3.9,0.4,6.7,3.9,6.3,7.8C427.9,596.4,424.9,599.1,421.3,599.1z"/>
		<path class="st0" d="M234,725.9c-1.1,0-2.2-0.2-3.2-0.8c-16.5-8.3-26.9-28.7-22.7-44.6c1.9-7.1,9.7-23.4,41.6-21.6
			c17.7,1,30-2.6,33.7-9.8c3.5-6.8,0-17.9-8.9-29c-14.3-17.6-10.8-33.1-2.8-41.6c11.2-11.9,35.1-15.5,55.7-1c3.2,2.3,4,6.7,1.7,9.9
			c-2.3,3.2-6.7,4-9.9,1.7c-13.7-9.7-30.3-8.3-37.2-0.9c-7.1,7.5-0.8,17.6,3.5,23c12.9,16,16.8,32.2,10.5,44.4
			c-4.2,8.3-14.7,17.7-40.5,17.7c-2.1,0-4.3-0.1-6.6-0.2c-8.9-0.5-24.2,0.3-27.1,11.1c-2.5,9.5,4.8,23,15.4,28.2
			c3.5,1.8,4.9,6,3.2,9.5C239.1,724.5,236.5,725.9,234,725.9z"/>
		<path class="st0" d="M286.6,773.1c-1.6,0-3.1-0.5-4.5-1.6c-25.7-20.8-25.1-47.4-13-64.6c13.3-19,41.8-29,70.5-11.7
			c3.3,2,4.4,6.4,2.4,9.7c-2,3.3-6.4,4.4-9.7,2.4c-21.3-12.9-42-5.9-51.6,7.7c-7.6,10.9-9.5,29.3,10.4,45.4c3,2.5,3.5,6.9,1,10
			C290.7,772.2,288.7,773.1,286.6,773.1z"/>
		<path class="st0" d="M169,765.7c-1.4,0-2.8-0.4-4-1.2c-2.1-1.4-3.3-3.9-3.1-6.4l2.7-37.1L136,736.6c-3.3,1.8-7.4,0.7-9.4-2.5
			L100,691.8c-2.1-3.3-1.1-7.7,2.2-9.8c3.3-2.1,7.7-1.1,9.8,2.2l23.1,36.8l34.2-18.6c2.3-1.2,5-1.1,7.2,0.3c2.2,1.4,3.4,3.9,3.2,6.5
			l-2.8,37.7l34.2-16.6c3.5-1.7,7.8-0.2,9.5,3.3c1.7,3.5,0.2,7.8-3.3,9.5l-45.2,22C171.1,765.5,170,765.7,169,765.7z"/>
		<path class="st0" d="M258.6,803.7H204c-2.6,0-5-1.2-6.2-3.5c-1.2-2.3-1-5,0.5-7.1l32.7-46.4c2.2-3.2,6.6-3.9,9.8-1.7
			c1.9,1.4,3,3.5,3,5.7c0.2,0.3,0.4,0.7,0.6,1l20.7,42.4c1.1,2.2,0.9,4.5-0.4,6.5S261,803.7,258.6,803.7z M217.4,789.7h30
			l-12.3-25.2L217.4,789.7z"/>
		<path class="st0" d="M278,869.7c-0.3,0-0.7,0-1.1-0.1c-3.8-0.6-6.5-4.1-5.9-8l10-66c0.6-3.8,4.1-6.5,8-5.9c3.8,0.6,6.5,4.1,5.9,8
			l-10,66C284.4,867.2,281.4,869.7,278,869.7z"/>
		<path class="st0" d="M404.6,885.7c-1.6,0-3.1-0.5-4.4-1.6c-3.1-2.4-3.6-6.9-1.1-10l25.2-31.5l-44.5-19.6c-3.6-1.6-5.2-5.8-3.6-9.3
			c1.6-3.6,5.8-5.2,9.3-3.6l52.9,23.3c2,0.9,3.5,2.7,4,4.8c0.5,2.1,0,4.4-1.3,6.1l-30.9,38.7C408.8,884.8,406.7,885.7,404.6,885.7z"
			/>
		<path class="st0" d="M415.8,798.8c-4.8,0-9.9-0.9-15-2.9c-3.7-1.4-5.5-5.5-4.1-9.1c1.4-3.7,5.5-5.5,9.1-4.1
			c10.7,4.1,20.5,1.8,24.5-5.7c4.9-9.2,0.1-25.4-21.7-40.8c-3.2-2.3-4-6.7-1.7-9.9c2.3-3.2,6.7-4,9.9-1.7
			c30.8,21.8,33.3,45.4,26.1,59.1C437.6,793.4,427.4,798.8,415.8,798.8z"/>
		<path class="st0" d="M134.3,651.1c-3.1,0-6-2.1-6.8-5.2c-1-3.8,1.2-7.7,4.9-8.7c11.4-3.2,20.6-15.3,20.1-23.1
			c-0.3-4.7-4.5-7.6-12.5-8.7c-26.9-3.8-42.7-11.8-47-23.8c-3.3-9.1,0.2-19.2,10.1-30c10.1-11,11.1-16.9,10.9-18.1
			c-1-0.7-6.6-2-19.9,2.9c-3.7,1.3-7.7-0.5-9.1-4.2c-1.3-3.7,0.5-7.7,4.2-9.1c23.1-8.5,32.6-3.3,36.5,2.6c3.9,5.9,5,16.8-12.2,35.6
			c-3.4,3.7-8.9,10.7-7.2,15.6c0.8,2.4,5.9,10.4,35.6,14.6c21.2,3,24.3,16.3,24.7,21.8c1,15.3-13.2,32.9-30.5,37.7
			C135.5,651,134.9,651.1,134.3,651.1z"/>
		<path class="st0" d="M457.3,680.4c-3.4,0-6.4-2.5-7-6c-0.6-3.9,2-7.5,5.9-8.1c13.8-2.2,24-9.4,27.9-19.8c2.8-7.6,1.8-15.4-2.9-21
			c-5.8-7-16.2-9.5-29.3-7.2c-3.9,0.7-7.5-1.9-8.2-5.8c-0.7-3.9,1.9-7.5,5.8-8.2c24.8-4.4,37.4,5.7,42.7,12.1
			c7.8,9.4,9.8,22.9,5.2,35c-5.7,15.3-19.9,25.8-38.9,28.8C458,680.4,457.7,680.4,457.3,680.4z"/>
		<path class="st0" d="M509.9,791.7c-3.5,0-6.5-2.6-7-6.1l-7.3-54.3c-0.5-3.9,2.2-7.4,6.1-8c3.9-0.5,7.4,2.2,8,6.1l7.3,54.3
			c0.5,3.9-2.2,7.4-6.1,8C510.6,791.7,510.3,791.7,509.9,791.7z"/>
		<path class="st0" d="M336,819.1c-15.7,0-28.4-12.7-28.4-28.4s12.7-28.4,28.4-28.4s28.4,12.7,28.4,28.4S351.6,819.1,336,819.1z
			 M336,776.4c-7.9,0-14.2,6.4-14.2,14.2s6.4,14.2,14.2,14.2c7.9,0,14.2-6.4,14.2-14.2S343.8,776.4,336,776.4z"/>
		<path class="st0" d="M448,582.3c-0.2,0-0.3,0-0.5,0c-3.9-0.3-6.8-3.6-6.5-7.5l1.9-28.4l-41.8,15.7c-2.2,0.8-4.7,0.5-6.6-0.9
			c-1.9-1.4-3-3.6-2.9-6l1.3-26.7l-53.4,32.7c-2.3,1.4-5.2,1.4-7.5-0.1c-2.3-1.5-3.5-4.1-3.1-6.8l6.7-51.3c0.5-3.8,4-6.5,7.8-6
			c3.8,0.5,6.5,4,6,7.8l-4.8,36.8l52.2-32c2.2-1.4,5-1.4,7.2-0.1c2.2,1.3,3.5,3.8,3.4,6.4l-1.5,29.3l42-15.8
			c2.2-0.8,4.7-0.5,6.6,0.9c1.9,1.4,3,3.7,2.8,6.1l-2.7,39.2C454.7,579.5,451.6,582.3,448,582.3z"/>
		<path class="st0" d="M335.9,478.3c-3.3,0-6.2-2.3-6.9-5.6c-0.8-3.8,1.7-7.5,5.5-8.2l57.3-11.3c3.8-0.7,7.5,1.7,8.2,5.5
			c0.8,3.8-1.7,7.5-5.5,8.2l-57.3,11.3C336.9,478.3,336.4,478.3,335.9,478.3z"/>
		<path class="st0" d="M468,903.7c-1.2,0-2.5-0.3-3.6-1c-3.3-2-4.4-6.3-2.4-9.6c18-29.9,10-39.1,0.7-49.8
			c-11.5-13.1-22.3-32.1-4-62.2c8.5-14,11.6-27.4,8.9-37.8c-2-7.6-7.1-13.7-15.1-18.3c-3.4-1.9-4.5-6.2-2.6-9.5
			c1.9-3.4,6.2-4.5,9.5-2.6c11.5,6.5,18.8,15.6,21.7,27c3.7,14.3,0.1,31.1-10.5,48.6c-12.7,21-8.1,33.5,2.6,45.8
			c13.1,15.1,22.3,30.4,0.7,66.2C472.6,902.5,470.3,903.7,468,903.7z"/>
		<path class="st0" d="M515.7,850.2c-12.8,0-23.3-10.4-23.3-23.3s10.4-23.3,23.3-23.3s23.3,10.4,23.3,23.3S528.5,850.2,515.7,850.2z
			 M515.7,817.7c-5.1,0-9.3,4.2-9.3,9.3s4.2,9.3,9.3,9.3s9.3-4.2,9.3-9.3S520.8,817.7,515.7,817.7z"/>
		<path class="st0" d="M300.1,558.7c-0.7,0-1.4-0.1-2.1-0.3c-14.3-4.5-35.5-17-35.5-32.5c0-6.5,3.8-15.4,21.4-20.8
			c12.8-3.9,26-8,27.6-11.6c1.3-3.1-3.5-12.7-5.1-15.9c-7.6-15.2-8.8-26.4-3.5-34.2c4.7-6.9,13.8-9.8,27-8.6l21.7,2
			c3.8,0.4,6.7,3.8,6.3,7.6c-0.4,3.8-3.8,6.7-7.6,6.3l-21.7-2c-7.3-0.7-12.6,0.3-14.2,2.5c-0.8,1.1-2.7,5.8,4.4,20
			c5.9,11.8,8.7,20.1,5.5,27.7c-4.1,9.6-16.2,13.3-36.3,19.5c-8.5,2.6-11.5,5.7-11.5,7.5c0,5,11.4,14.6,25.7,19.1
			c3.7,1.2,5.7,5.1,4.6,8.8C305.8,556.8,303,558.7,300.1,558.7z"/>
		<path class="st0" d="M129.6,785.7c-7.4,0-13.3-6-13.3-13.3s6-13.3,13.3-13.3s13.3,6,13.3,13.3S137,785.7,129.6,785.7z"/>
		<path class="st0" d="M315.8,675.7c-6.1,0-11-4.9-11-11s4.9-11,11-11s11,4.9,11,11S321.9,675.7,315.8,675.7z M315.8,661.7
			c-1.7,0-3,1.3-3,3s1.3,3,3,3s3-1.3,3-3S317.5,661.7,315.8,661.7z"/>
		<path class="st0" d="M369.6,505c-6.6,0-12-5.4-12-12s5.4-12,12-12s12,5.4,12,12S376.2,505,369.6,505z M369.6,491c-1.1,0-2,0.9-2,2
			s0.9,2,2,2s2-0.9,2-2S370.7,491,369.6,491z"/>
		<path class="st0" d="M446.3,487c-6.3,0-11.3-5.1-11.3-11.3s5.1-11.3,11.3-11.3c6.2,0,11.3,5.1,11.3,11.3S452.5,487,446.3,487z
			 M446.3,473c-1.5,0-2.7,1.2-2.7,2.7s1.2,2.7,2.7,2.7c1.5,0,2.7-1.2,2.7-2.7S447.8,473,446.3,473z"/>
		<path class="st0" d="M436.1,517c-5.5,0-10-4.5-10-10s4.5-10,10-10s10,4.5,10,10S441.6,517,436.1,517z"/>
		<path class="st0" d="M245.6,628.1c-2.6,0-5.1-1.5-6.4-4l-27.3-56c-1.7-3.5-0.3-7.8,3.3-9.5c3.5-1.7,7.8-0.3,9.5,3.3l27.3,56
			c1.7,3.5,0.3,7.8-3.3,9.5C247.7,627.9,246.7,628.1,245.6,628.1z"/>
		<path class="st0" d="M157.5,572.5c-1.3,0-2.7-0.4-3.9-1.2c-3.2-2.2-4.1-6.8-1.9-10l19.8-29.7H144c-2.3,0-4.5-0.9-5.8-2.9
			c-1.3-1.9-1.5-4.5-0.7-6.7l16.7-40.4h-46.7c-3.9,0-7-3.1-7-7s3.1-7,7-7h57.2c2.3,0,4.5,1.4,5.8,3.4c1.3,1.9,1.5,4.3,0.7,6.4
			l-16.7,40.2h30.2c2.6,0,5,1.7,6.2,4s1.1,5.2-0.4,7.3l-27.1,40.4C162,571.4,159.7,572.5,157.5,572.5z"/>
		<path class="st0" d="M239.3,527c-0.9,0-1.8-0.2-2.7-0.6l-40.7-17.3c-2.4-1-4.1-3.4-4.2-6s1.2-5.2,3.5-6.5l46.3-26.7
			c3.4-1.9,7.6-0.8,9.6,2.6c1.9,3.4,0.8,7.6-2.6,9.6l-34.2,19.7l27.8,11.8c3.6,1.5,5.2,5.6,3.7,9.2C244.6,525.4,242,527,239.3,527z"
			/>
		<path class="st0" d="M186.8,858.9c-11.9,0-21.4-4.1-27.4-10.5c-11.1-11.9-13.9-35,11.6-64.3c2.5-2.9,7-3.2,9.9-0.7
			c2.9,2.5,3.2,7,0.7,9.9c-15.9,18.3-20.6,36.2-11.9,45.6c9,9.7,31.8,9.2,57.7-10.4c3.1-2.3,7.5-1.7,9.8,1.4
			c2.3,3.1,1.7,7.5-1.4,9.8C217.5,853.4,200.6,858.9,186.8,858.9z"/>
		<path class="st0" d="M144,689c30-2.9,50.6-16.9,60.3-40.8l0.9,3.7c0.7,3,3.8,4.9,6.8,4.2c3-0.7,4.9-3.8,4.2-6.8l-5.7-24.6
			c-0.7-2.9-3.4-4.7-6.3-4.3c-1.2-0.3-2.5-0.3-3.7,0.1l-25.3,7.9c-3.7,1.2-5.8,5.1-4.6,8.9c1.2,3.7,5.1,5.8,8.9,4.6l13.6-4.3
			c-7,22.1-23.9,34.6-50.4,37.2c-3.9,0.4-6.7,3.8-6.4,7.7c0.4,3.7,3.4,6.4,7,6.4C143.5,689.1,143.7,689.1,144,689z"/>
		<path class="st0" d="M144,293c29.1-2.8,49.3-16,59.4-38.6l0.8,3.5c0.7,3,3.8,4.9,6.8,4.2c3-0.7,4.9-3.8,4.2-6.8l-5.5-23.7
			c0.1-2.2-0.8-4.3-2.5-5.7c-1.9-1.6-4.4-2.1-6.7-1.4l-25.3,7.9c-3.7,1.2-5.8,5.1-4.6,8.9c1.2,3.7,5.1,5.8,8.9,4.6l13.6-4.3
			c-7,22.1-23.9,34.6-50.4,37.2c-3.9,0.4-6.7,3.8-6.4,7.7c0.4,3.7,3.4,6.4,7,6.4C143.5,293.1,143.7,293.1,144,293z"/>
	</g>
</g>
</svg>
