<?xml version="1.0" encoding="utf-8"?>
<!-- Generator: Adobe Illustrator 19.0.1, SVG Export Plug-In . SVG Version: 6.00 Build 0)  -->
<svg version="1.1" id="Слой_1" xmlns="http://www.w3.org/2000/svg" xmlns:xlink="http://www.w3.org/1999/xlink" x="0px" y="0px"
	 viewBox="0 0 193 45" style="enable-background:new 0 0 193 45;" xml:space="preserve">
<style type="text/css">
	.st0{fill:#E40175;}
	.st1{fill:#353535;}
</style>
<g id="medium">
	<g>
		<g>
			<path class="st0" d="M52.2,7.4c-1.7-4.1-5.7-6.9-9.8-6.9c-4.8,0-8.4,1.7-10.9,3.9c-2.4-2.1-5.8-3.8-10-3.8c-5,0-9,2.5-10.7,6.7
				c-1.8,4.6-0.6,10.6,3,14.2l9.7,9.7l6.3-6.3l-9.7-9.7c-1.1-1.1-1.6-3.2-1-4.5c0.1-0.4,0.5-1.2,2.5-1.2c3.9,0,5.9,3.7,6.1,4
				c0.7,1.7,2.4,2.7,4.2,2.7c1.8-0.1,3.4-1.2,3.9-3c0.2-0.5,1.9-3.8,6.7-3.8c0.3,0,1.2,0.5,1.6,1.5c0.6,1.5-0.5,3-1.5,4l-19,19
				L7.3,17.7l0,0c-0.8-0.7-1.8-1.1-2.9-1.1C2,16.6,0,18.6,0,21c0,1.4,0.6,2.6,1.7,3.4l18.8,18.8c0.9,0.9,2,1.3,3.1,1.3
				c1.1,0,2.3-0.4,3.1-1.3l22.1-22.1C52.8,17.1,54.1,12,52.2,7.4z"/>
			<path class="st0" d="M62.3,21c0-2.4-2-4.4-4.4-4.4c-1.5,0-2.8,0.7-3.6,1.9L32.5,40.2l3.2,3.2c0.8,0.8,2,1.3,3.1,1.3l0,0
				c1.2,0,2.3-0.5,3.1-1.3l19.2-19.2L61,24.1C61.9,23.3,62.3,22.2,62.3,21z"/>
		</g>
	</g>
	<g>
		<path class="st1" d="M99.3,6.9l-4.8,14.8h-4.5l-2.8-9l-3,9h-4.5L75,6.9h4.3l3,9.5l3.1-9.5h3.8l3,9.5l3.1-9.5H99.3z"/>
		<path class="st1" d="M107.1,21.1c-1.2-0.7-2.2-1.6-2.9-2.7c-0.7-1.1-1.1-2.5-1.1-4s0.4-2.8,1.1-4c0.7-1.2,1.7-2.1,2.9-2.7
			c1.2-0.7,2.7-1,4.2-1c1.6,0,3,0.3,4.2,1c1.2,0.7,2.2,1.6,2.9,2.7c0.7,1.2,1.1,2.5,1.1,4s-0.4,2.8-1.1,4c-0.7,1.2-1.7,2.1-2.9,2.7
			c-1.2,0.7-2.7,1-4.2,1C109.8,22,108.4,21.7,107.1,21.1z M113.4,18.1c0.6-0.4,1.1-0.8,1.4-1.5c0.4-0.6,0.5-1.4,0.5-2.2
			c0-0.8-0.2-1.6-0.5-2.2c-0.4-0.6-0.8-1.1-1.4-1.5s-1.3-0.5-2-0.5c-0.7,0-1.4,0.2-2,0.5c-0.6,0.4-1.1,0.8-1.4,1.5
			c-0.4,0.6-0.5,1.4-0.5,2.2c0,0.8,0.2,1.6,0.5,2.2c0.4,0.6,0.8,1.1,1.4,1.5c0.6,0.4,1.3,0.5,2,0.5S112.8,18.4,113.4,18.1z"/>
		<path class="st1" d="M147.8,6.9L143,21.7h-4.5l-2.8-9l-3,9h-4.5l-4.8-14.8h4.3l3,9.5l3.1-9.5h3.8l3,9.5l3.1-9.5H147.8z"/>
		<path class="st1" d="M81.9,37.5l-1.6,1.7v3.7h-4.1V28.1h4.1v6.2l5.7-6.2h4.6l-6,6.6l6.4,8.2h-4.9L81.9,37.5z"/>
		<path class="st1" d="M95.3,28.1h4.2v14.8h-4.2V28.1z"/>
		<path class="st1" d="M108.8,31.4h-4.5v-3.3h13.3v3.3h-4.5v11.5h-4.2L108.8,31.4L108.8,31.4z"/>
		<path class="st1" d="M125.4,42.2c-1.2-0.7-2.2-1.6-2.9-2.7c-0.7-1.2-1.1-2.5-1.1-4s0.4-2.8,1.1-4c0.7-1.2,1.7-2.1,2.9-2.7
			c1.2-0.7,2.6-1,4.2-1c1.4,0,2.6,0.2,3.7,0.7c1.1,0.5,2,1.2,2.7,2.1l-2.7,2.4c-1-1.2-2.1-1.7-3.5-1.7c-0.8,0-1.5,0.2-2.1,0.5
			c-0.6,0.4-1.1,0.9-1.5,1.5c-0.3,0.6-0.5,1.4-0.5,2.2c0,0.8,0.2,1.6,0.5,2.2c0.3,0.6,0.8,1.1,1.5,1.5c0.6,0.4,1.3,0.5,2.1,0.5
			c1.4,0,2.5-0.6,3.5-1.7l2.7,2.4c-0.7,0.9-1.6,1.6-2.7,2.1c-1.1,0.5-2.3,0.7-3.7,0.7C128,43.2,126.6,42.9,125.4,42.2z"/>
		<path class="st1" d="M155.2,28.1v14.8H151v-5.8h-5.7v5.8h-4.2V28.1h4.2v5.6h5.7v-5.6C151,28.1,155.2,28.1,155.2,28.1z"/>
		<path class="st1" d="M173.3,39.7v3.2h-11.9V28.1H173v3.2h-7.5v2.5h6.6v3.1h-6.6v2.7L173.3,39.7L173.3,39.7z"/>
		<path class="st1" d="M193,28.1v14.8h-3.4l-6.5-7.9v7.9H179V28.1h3.4l6.5,7.9v-7.9C188.9,28.1,193,28.1,193,28.1z"/>
	</g>
</g>
</svg>
