<svg width="199" height="54" viewBox="0 0 199 54" fill="none" xmlns="http://www.w3.org/2000/svg">
<path d="M51.9295 18.0711C50.2383 14.1533 46.2591 11.4778 42.1803 11.4778C37.4052 11.4778 33.8238 13.1022 31.3368 15.2044C28.9492 13.1978 25.5668 11.5733 21.3886 11.5733C16.4145 11.5733 12.4352 13.9622 10.744 17.9756C8.95337 22.3711 10.1472 28.1044 13.7285 31.5444L23.3782 40.8133L29.6456 34.7933L19.9959 25.5244C18.9016 24.4733 18.4041 22.4667 19.001 21.2244C19.1005 20.8422 19.4984 20.0778 21.4881 20.0778C25.3679 20.0778 27.3575 23.6133 27.5565 23.9C28.2529 25.5244 29.944 26.48 31.7347 26.48C33.5254 26.3844 35.1171 25.3333 35.6145 23.6133C35.8135 23.1356 37.5047 19.9822 42.2798 19.9822C42.5782 19.9822 43.4736 20.46 43.8715 21.4156C44.4684 22.8489 43.3741 24.2822 42.3793 25.2378L23.4777 43.3933L7.26218 27.9133C6.46632 27.2444 5.4715 26.8622 4.3772 26.8622C1.98964 26.8622 0 28.7733 0 31.0667C0 32.4044 0.596891 33.5511 1.69119 34.3156L20.3938 52.28C21.2891 53.14 22.3834 53.5222 23.4777 53.5222C24.572 53.5222 25.7658 53.14 26.5617 52.28L48.5471 31.1622C52.5264 27.34 53.8197 22.4667 51.9295 18.0711Z" fill="#E40175"/>
<path d="M61.9772 31.0667C61.9772 28.7734 59.9876 26.8622 57.6 26.8622C56.1078 26.8622 54.8145 27.5311 54.0187 28.6778L32.3316 49.4134L35.515 52.4711C36.3109 53.2356 37.5047 53.7134 38.599 53.7134C39.7927 53.7134 40.887 53.2356 41.6829 52.4711L60.7834 34.1245L60.6839 34.0289C61.5793 33.2645 61.9772 32.2134 61.9772 31.0667Z" fill="#E40175"/>
<path d="M98.7854 17.5933L94.0102 31.7355H89.5335L86.748 23.1355L83.7636 31.7355H79.2869L74.6113 17.5933H78.889L81.8734 26.6711L84.9574 17.5933H88.7377L91.7221 26.6711L94.8061 17.5933H98.7854Z" fill="#3C3C3C"/>
<path d="M106.545 31.1622C105.351 30.4933 104.356 29.6333 103.66 28.5822C102.964 27.5311 102.566 26.1933 102.566 24.76C102.566 23.3267 102.964 22.0844 103.66 20.9378C104.356 19.7911 105.351 18.9311 106.545 18.3578C107.739 17.6889 109.231 17.4022 110.723 17.4022C112.315 17.4022 113.708 17.6889 114.901 18.3578C116.095 19.0267 117.09 19.8867 117.786 20.9378C118.483 22.0844 118.881 23.3267 118.881 24.76C118.881 26.1933 118.483 27.4356 117.786 28.5822C117.09 29.7289 116.095 30.5889 114.901 31.1622C113.708 31.8311 112.215 32.1178 110.723 32.1178C109.231 32.0222 107.838 31.7356 106.545 31.1622ZM112.812 28.2956C113.409 27.9133 113.907 27.5311 114.205 26.8622C114.603 26.2889 114.702 25.5244 114.702 24.76C114.702 23.9956 114.503 23.2311 114.205 22.6578C113.807 22.0844 113.409 21.6067 112.812 21.2244C112.215 20.8422 111.519 20.7467 110.823 20.7467C110.126 20.7467 109.43 20.9378 108.833 21.2244C108.236 21.6067 107.739 21.9889 107.44 22.6578C107.042 23.2311 106.943 23.9956 106.943 24.76C106.943 25.5244 107.142 26.2889 107.44 26.8622C107.838 27.4356 108.236 27.9133 108.833 28.2956C109.43 28.6778 110.126 28.7733 110.823 28.7733C111.519 28.7733 112.215 28.5822 112.812 28.2956Z" fill="#3C3C3C"/>
<path d="M147.034 17.5933L142.259 31.7355H137.782L134.997 23.1355L132.012 31.7355H127.536L122.76 17.5933H127.038L130.023 26.6711L133.107 17.5933H136.887L139.871 26.6711L142.955 17.5933H147.034Z" fill="#3C3C3C"/>
<path d="M81.4756 46.8333L79.8839 48.4578V51.9933H75.8052V37.8511H79.8839V43.7756L85.5544 37.8511H90.1306L84.1616 44.1578L90.5285 51.9933H85.6539L81.4756 46.8333Z" fill="#3C3C3C"/>
<path d="M94.8059 37.8511H98.9841V51.9933H94.8059V37.8511Z" fill="#3C3C3C"/>
<path d="M108.236 41.0045H103.759V37.8511H116.99V41.0045H112.514V51.9933H108.336L108.236 41.0045Z" fill="#3C3C3C"/>
<path d="M124.75 51.3244C123.556 50.6556 122.562 49.7956 121.865 48.7444C121.169 47.5978 120.771 46.3556 120.771 44.9222C120.771 43.4889 121.169 42.2467 121.865 41.1C122.562 39.9533 123.556 39.0933 124.75 38.52C125.944 37.8511 127.337 37.5645 128.928 37.5645C130.321 37.5645 131.515 37.7556 132.609 38.2333C133.704 38.7111 134.599 39.38 135.295 40.24L132.609 42.5333C131.614 41.3867 130.52 40.9089 129.127 40.9089C128.332 40.9089 127.635 41.1 127.038 41.3867C126.441 41.7689 125.944 42.2467 125.546 42.82C125.248 43.3933 125.049 44.1578 125.049 44.9222C125.049 45.6867 125.248 46.4511 125.546 47.0245C125.844 47.5978 126.342 48.0756 127.038 48.4578C127.635 48.84 128.332 48.9356 129.127 48.9356C130.52 48.9356 131.614 48.3622 132.609 47.3111L135.295 49.6045C134.599 50.4645 133.704 51.1333 132.609 51.6111C131.515 52.0889 130.321 52.28 128.928 52.28C127.337 52.28 125.944 51.9933 124.75 51.3244Z" fill="#3C3C3C"/>
<path d="M154.396 37.8511V51.9933H150.218V46.4511H144.547V51.9933H140.369V37.8511H144.547V43.2022H150.218V37.8511H154.396Z" fill="#3C3C3C"/>
<path d="M172.402 48.9356V51.9933H160.564V37.8511H172.104V40.9089H164.642V43.2978H171.208V46.26H164.642V48.84L172.402 48.9356Z" fill="#3C3C3C"/>
<path d="M192 37.8511V51.9933H188.618L182.151 44.4445V51.9933H178.072V37.8511H181.455L187.921 45.4V37.8511H192Z" fill="#3C3C3C"/>
<path d="M15.2841 10.0719C18.8182 9.8573 22.383 10.1239 25.8431 10.8628C26.4198 10.9855 27.0172 11.1331 27.4665 11.5074C27.9161 11.8817 28.1647 12.5514 27.8755 13.055C27.6803 13.3946 27.294 13.5834 26.9145 13.7009C26.0591 13.9656 25.1583 13.9624 24.2547 13.9596C23.7478 13.9581 23.2403 13.9565 22.7388 14.0022C21.3443 14.1291 19.7923 14.8479 19.5369 16.1958C19.4345 16.7348 19.5599 17.298 19.4457 17.8342C19.3318 18.3711 18.8051 18.9067 18.2767 18.7254C17.5049 18.4604 17.7964 17.2109 17.1955 16.6681C16.6899 16.2117 15.8067 16.5444 15.4601 17.126C15.1139 17.7071 15.1324 18.4197 15.1055 19.0922C15.0585 20.2693 15.8297 22.2232 15.2191 23.2387C14.4239 24.562 13.4697 23.1607 13.0716 22.6156C12.5551 21.9074 11.9583 22.1486 11.879 23.1607C11.7724 24.5163 11.4959 25.8356 11.0838 26.6641C10.791 27.252 10.311 27.8791 9.65178 27.9875C8.67514 28.1482 7.99483 26.718 7.73211 25.783C6.74843 22.2868 6.60699 18.4093 8.23995 15.154C9.87227 11.8983 13.5827 9.49803 17.2339 10.1138L15.2841 10.0719Z" fill="white"/>
<path d="M8.98653 26.3414C9.50013 26.3414 9.83486 25.8118 10.0121 25.3883C10.5062 24.208 10.3677 22.5379 11.2502 21.5838C11.5171 21.2953 11.8627 21.0949 12.2531 21.0949C12.4992 21.0949 12.7632 21.1748 13.0368 21.3624C13.4832 21.6687 13.8547 22.9291 14.455 22.9291C14.5085 22.9291 14.5635 22.9191 14.6208 22.8975C15.1254 22.7083 14.5881 21.1845 14.5277 20.7463C14.4131 19.9125 14.3533 18.9844 14.5433 18.154C14.7657 17.1827 15.4832 15.9692 16.4889 15.9692C16.7523 15.9692 17.0355 16.0522 17.3347 16.2446C18.0128 16.6806 17.7478 17.583 18.3261 17.9391C18.3792 17.9717 18.4262 17.9867 18.4684 17.9867C18.8016 17.9867 18.8166 17.0558 18.8713 16.6405C19.0813 15.0612 20.0505 14.0063 21.6461 13.5912C23.1267 13.206 27.9661 13.7854 27.1389 11.2846C26.7465 11.0672 26.2886 10.9576 25.8432 10.8627C25.7568 10.8442 25.6701 10.8261 25.5837 10.8082C22 10.0677 20.7826 10.1733 17.5 10.5C12.3272 11.0146 9 13 8 15.5C7.5104 17.1366 7.68524 16.3208 7.5 17C7.34587 17.5651 7 20 7 20.5C7 21 6.99998 19.8438 6.99998 20.7629C6.99998 22.0073 7.14942 23.2621 7.41086 24.4862C7.4675 24.5917 7.52477 24.6957 7.58301 24.7982C7.82397 25.2204 8.26014 26.135 8.70494 26.2907C8.80414 26.3255 8.89789 26.3414 8.98653 26.3414Z" fill="#D6DEF1"/>
<path d="M9.50112 28C9.5504 28 9.60096 27.9959 9.65184 27.9875C10.311 27.8791 10.791 27.252 11.0838 26.6641C11.496 25.8356 11.7725 24.5163 11.879 23.1606C11.9277 22.5401 12.1706 22.2097 12.4704 22.2097C12.6598 22.2097 12.872 22.3416 13.0717 22.6156C13.3491 22.9956 13.8963 23.7909 14.4717 23.7909C14.7222 23.7909 14.9782 23.6402 15.2192 23.2386C15.3933 22.9492 15.4551 22.5834 15.4554 22.1809C15.4563 21.2133 15.1027 20.0346 15.1034 19.1977C15.1037 19.1617 15.1043 19.1266 15.1056 19.0921C15.1325 18.4196 15.1139 17.7071 15.4602 17.126C15.6941 16.7335 16.1722 16.4545 16.6134 16.4545C16.8266 16.4545 17.031 16.5196 17.1955 16.6681C17.7965 17.2109 17.505 18.4604 18.2768 18.7254C18.3485 18.7501 18.4202 18.7614 18.4909 18.7614C18.9405 18.7614 19.3472 18.2984 19.4458 17.8342C19.4886 17.6331 19.4979 17.4283 19.4979 17.2222C19.4979 17.0721 19.4931 16.9212 19.4931 16.7708C19.4931 16.5776 19.5008 16.3852 19.537 16.1957C19.7923 14.8479 21.3443 14.1291 22.7389 14.0022C23.1482 13.9649 23.5616 13.9593 23.9754 13.9593C24.0685 13.9593 24.1616 13.9596 24.2547 13.9596C24.3478 13.9599 24.4406 13.9602 24.5334 13.9602C25.343 13.9602 26.1472 13.9383 26.9146 13.7009C27.2941 13.5834 27.6803 13.3946 27.8755 13.055C27.9616 12.9053 28 12.7412 28 12.5745C27.9997 12.1799 27.7827 11.7708 27.4666 11.5074C27.3642 11.4222 27.2544 11.3489 27.1389 11.2847C27.9661 13.7855 23.1267 13.206 21.6461 13.5913C20.0506 14.0063 19.0813 15.0612 18.8714 16.6405C18.8167 17.0559 18.8016 17.9868 18.4685 17.9868C18.4262 17.9868 18.3792 17.9717 18.3261 17.9392C17.7478 17.583 18.0128 16.6806 17.3347 16.2446C17.0355 16.0523 16.7523 15.9693 16.489 15.9693C15.4832 15.9693 14.7658 17.1827 14.5434 18.154C14.3533 18.9844 14.4131 19.9125 14.5277 20.7463C14.5882 21.1845 15.1254 22.7083 14.6208 22.8975C14.5635 22.9191 14.5085 22.9292 14.455 22.9292C13.8547 22.9292 13.4832 21.6687 13.0368 21.3624C12.7632 21.1748 12.4992 21.0949 12.2531 21.0949C11.8627 21.0949 11.5171 21.2954 11.2502 21.5839C10.3677 22.538 10.5062 24.2081 10.0122 25.3883C9.83489 25.8118 9.50016 26.3415 8.98656 26.3415C8.89792 26.3415 8.80417 26.3255 8.70497 26.2907C8.26017 26.135 7.82401 25.2204 7.58305 24.7982C7.52481 24.6958 7.46753 24.5918 7.41089 24.4862C7.50433 24.9229 7.61185 25.3557 7.73217 25.783C7.98113 26.6691 8.60512 28 9.50112 28Z" fill="#9DB5E0"/>
<path d="M24.9248 10.3405C22.3483 9.83739 17.015 9.58583 11.527 11.8498C7.73952 13.1075 6.19361 18.6415 7.40457 22.4148C8.57796 26.0709 9.46578 22.9178 11.0117 17.8869C12.5576 12.856 15.6494 12.856 22.3484 12.3529C24.9682 12.1561 27.5014 10.8436 24.9248 10.3405Z" fill="#E8EFFF"/>
<path d="M13.3082 12.1198C13.4119 12.1198 13.497 12.0064 13.4381 11.9033L13.4202 11.872C13.3879 11.8153 13.3437 11.7927 13.2989 11.7927C13.1671 11.7927 13.0336 11.9904 13.2045 12.0834L13.2362 12.101C13.2602 12.1141 13.2848 12.1198 13.3082 12.1198Z" fill="#AABDE3"/>
<path d="M11.5875 12.7728C11.7139 12.7728 11.7136 12.5808 11.5875 12.5808C11.4608 12.5808 11.4608 12.7728 11.5875 12.7728Z" fill="#D6DEF1"/>
<path d="M12.2764 13.5621C12.3488 13.5621 12.3488 13.4525 12.2764 13.4525C12.2048 13.4525 12.2048 13.5621 12.2764 13.5621Z" fill="#AABDE3"/>
<path d="M8.67105 22.9852C8.78145 22.9852 8.78145 22.8173 8.67105 22.8173C8.56065 22.8173 8.56065 22.9852 8.67105 22.9852Z" fill="#D6DEF1"/>
<path d="M7.71646 20.7695C7.91678 20.7695 7.91646 20.4656 7.71646 20.4656C7.51646 20.4656 7.51678 20.7695 7.71646 20.7695Z" fill="#AABDE3"/>
<path d="M9.46653 19.3496C9.57373 19.3496 9.57341 19.1867 9.46653 19.1867C9.35901 19.1867 9.35933 19.3496 9.46653 19.3496Z" fill="#D6DEF1"/>
<path d="M23.1993 11.4955C23.2841 11.4955 23.2841 11.3667 23.1993 11.3667C23.1145 11.3667 23.1145 11.4955 23.1993 11.4955Z" fill="#AABDE3"/>
<path d="M21.1511 12.1451C21.2253 12.1451 21.2621 12.0737 21.2618 12.0023C21.2618 11.9305 21.2243 11.8591 21.1504 11.8591C21.1335 11.8591 21.1149 11.8629 21.0947 11.8707L21.0467 11.8895C20.9341 11.9337 20.9344 12.0702 21.0467 12.1147L21.0947 12.1332C21.1152 12.1413 21.1341 12.1451 21.1511 12.1451Z" fill="#D6DEF1"/>
<path d="M19.3286 10.8762C19.4185 10.8762 19.4185 10.7403 19.3286 10.7403C19.239 10.7403 19.239 10.8762 19.3286 10.8762Z" fill="#AABDE3"/>
<path d="M47.7159 10.0719C44.1818 9.8573 40.617 10.1239 37.1569 10.8628C36.5802 10.9855 35.9828 11.1331 35.5335 11.5074C35.0839 11.8817 34.8353 12.5514 35.1245 13.055C35.3197 13.3946 35.706 13.5834 36.0855 13.7009C36.9409 13.9656 37.8417 13.9624 38.7453 13.9596C39.2522 13.9581 39.7597 13.9565 40.2612 14.0022C41.6557 14.1291 43.2077 14.8479 43.4631 16.1958C43.5655 16.7348 43.4401 17.298 43.5543 17.8342C43.6682 18.3711 44.1949 18.9067 44.7233 18.7254C45.4951 18.4604 45.2036 17.2109 45.8045 16.6681C46.3101 16.2117 47.1933 16.5444 47.5399 17.126C47.8861 17.7071 47.8676 18.4197 47.8945 19.0922C47.9415 20.2693 47.1703 22.2232 47.7809 23.2387C48.5761 24.562 49.5303 23.1607 49.9284 22.6156C50.4449 21.9074 51.0417 22.1486 51.121 23.1607C51.2276 24.5163 51.5041 25.8356 51.9162 26.6641C52.209 27.252 52.689 27.8791 53.3482 27.9875C54.3249 28.1482 55.0052 26.718 55.2679 25.783C56.2516 22.2868 56.393 18.4093 54.76 15.154C53.1277 11.8983 49.4173 9.49803 45.7661 10.1138L47.7159 10.0719Z" fill="white"/>
<path d="M54.0135 26.3414C53.4999 26.3414 53.1651 25.8118 52.9879 25.3883C52.4938 24.208 52.6323 22.5379 51.7498 21.5838C51.4829 21.2953 51.1373 21.0949 50.7469 21.0949C50.5008 21.0949 50.2368 21.1748 49.9632 21.3624C49.5168 21.6687 49.1453 22.9291 48.545 22.9291C48.4915 22.9291 48.4365 22.9191 48.3792 22.8975C47.8746 22.7083 48.4119 21.1845 48.4723 20.7463C48.5869 19.9125 48.6467 18.9844 48.4567 18.154C48.2343 17.1827 47.5168 15.9692 46.5111 15.9692C46.2477 15.9692 45.9645 16.0522 45.6653 16.2446C44.9872 16.6806 45.2522 17.583 44.6739 17.9391C44.6208 17.9717 44.5738 17.9867 44.5316 17.9867C44.1984 17.9867 44.1834 17.0558 44.1287 16.6405C43.9187 15.0612 42.9495 14.0063 41.3539 13.5912C39.8733 13.206 35.0339 13.7854 35.8611 11.2846C36.2535 11.0672 36.7114 10.9576 37.1568 10.8627C37.2432 10.8442 37.3299 10.8261 37.4163 10.8082C41 10.0677 42.2174 10.1733 45.5 10.5C50.6728 11.0146 54 13 55 15.5C55.4896 17.1366 55.3148 16.3208 55.5 17C55.6541 17.5651 56 20 56 20.5C56 21 56 19.8438 56 20.7629C56 22.0073 55.8506 23.2621 55.5891 24.4862C55.5325 24.5917 55.4752 24.6957 55.417 24.7982C55.176 25.2204 54.7399 26.135 54.2951 26.2907C54.1959 26.3255 54.1021 26.3414 54.0135 26.3414Z" fill="#D6DEF1"/>
<path d="M53.4989 28C53.4496 28 53.399 27.9959 53.3482 27.9875C52.689 27.8791 52.209 27.252 51.9162 26.6641C51.504 25.8356 51.2275 24.5163 51.121 23.1606C51.0723 22.5401 50.8294 22.2097 50.5296 22.2097C50.3402 22.2097 50.128 22.3416 49.9283 22.6156C49.6509 22.9956 49.1037 23.7909 48.5283 23.7909C48.2778 23.7909 48.0218 23.6402 47.7808 23.2386C47.6067 22.9492 47.5449 22.5834 47.5446 22.1809C47.5437 21.2133 47.8973 20.0346 47.8966 19.1977C47.8963 19.1617 47.8957 19.1266 47.8944 19.0921C47.8675 18.4196 47.8861 17.7071 47.5398 17.126C47.3059 16.7335 46.8278 16.4545 46.3866 16.4545C46.1734 16.4545 45.969 16.5196 45.8045 16.6681C45.2035 17.2109 45.495 18.4604 44.7232 18.7254C44.6515 18.7501 44.5798 18.7614 44.5091 18.7614C44.0595 18.7614 43.6528 18.2984 43.5542 17.8342C43.5114 17.6331 43.5021 17.4283 43.5021 17.2222C43.5021 17.0721 43.5069 16.9212 43.5069 16.7708C43.5069 16.5776 43.4992 16.3852 43.463 16.1957C43.2077 14.8479 41.6557 14.1291 40.2611 14.0022C39.8518 13.9649 39.4384 13.9593 39.0246 13.9593C38.9315 13.9593 38.8384 13.9596 38.7453 13.9596C38.6522 13.9599 38.5594 13.9602 38.4666 13.9602C37.657 13.9602 36.8528 13.9383 36.0854 13.7009C35.7059 13.5834 35.3197 13.3946 35.1245 13.055C35.0384 12.9053 35 12.7412 35 12.5745C35.0003 12.1799 35.2173 11.7708 35.5334 11.5074C35.6358 11.4222 35.7456 11.3489 35.8611 11.2847C35.0339 13.7855 39.8733 13.206 41.3539 13.5913C42.9494 14.0063 43.9187 15.0612 44.1286 16.6405C44.1833 17.0559 44.1984 17.9868 44.5315 17.9868C44.5738 17.9868 44.6208 17.9717 44.6739 17.9392C45.2522 17.583 44.9872 16.6806 45.6653 16.2446C45.9645 16.0523 46.2477 15.9693 46.511 15.9693C47.5168 15.9693 48.2342 17.1827 48.4566 18.154C48.6467 18.9844 48.5869 19.9125 48.4723 20.7463C48.4118 21.1845 47.8746 22.7083 48.3792 22.8975C48.4365 22.9191 48.4915 22.9292 48.545 22.9292C49.1453 22.9292 49.5168 21.6687 49.9632 21.3624C50.2368 21.1748 50.5008 21.0949 50.7469 21.0949C51.1373 21.0949 51.4829 21.2954 51.7498 21.5839C52.6323 22.538 52.4938 24.2081 52.9878 25.3883C53.1651 25.8118 53.4998 26.3415 54.0134 26.3415C54.1021 26.3415 54.1958 26.3255 54.295 26.2907C54.7398 26.135 55.176 25.2204 55.417 24.7982C55.4752 24.6958 55.5325 24.5918 55.5891 24.4862C55.4957 24.9229 55.3881 25.3557 55.2678 25.783C55.0189 26.6691 54.3949 28 53.4989 28Z" fill="#9DB5E0"/>
<path d="M38.0752 10.3405C40.6517 9.83739 45.985 9.58583 51.473 11.8498C55.2605 13.1075 56.8064 18.6415 55.5954 22.4148C54.422 26.0709 53.5342 22.9178 51.9883 17.8869C50.4424 12.856 47.3506 12.856 40.6516 12.3529C38.0318 12.1561 35.4986 10.8436 38.0752 10.3405Z" fill="#E8EFFF"/>
<path d="M49.6918 12.1198C49.5881 12.1198 49.503 12.0064 49.5619 11.9033L49.5798 11.872C49.6121 11.8153 49.6563 11.7927 49.7011 11.7927C49.8329 11.7927 49.9664 11.9904 49.7955 12.0834L49.7638 12.101C49.7398 12.1141 49.7152 12.1198 49.6918 12.1198Z" fill="#AABDE3"/>
<path d="M51.4125 12.7728C51.2861 12.7728 51.2864 12.5808 51.4125 12.5808C51.5392 12.5808 51.5392 12.7728 51.4125 12.7728Z" fill="#D6DEF1"/>
<path d="M50.7236 13.5621C50.6512 13.5621 50.6512 13.4525 50.7236 13.4525C50.7952 13.4525 50.7952 13.5621 50.7236 13.5621Z" fill="#AABDE3"/>
<path d="M54.329 22.9852C54.2186 22.9852 54.2186 22.8173 54.329 22.8173C54.4394 22.8173 54.4394 22.9852 54.329 22.9852Z" fill="#D6DEF1"/>
<path d="M55.2835 20.7695C55.0832 20.7695 55.0835 20.4656 55.2835 20.4656C55.4835 20.4656 55.4832 20.7695 55.2835 20.7695Z" fill="#AABDE3"/>
<path d="M53.5335 19.3496C53.4263 19.3496 53.4266 19.1867 53.5335 19.1867C53.641 19.1867 53.6407 19.3496 53.5335 19.3496Z" fill="#D6DEF1"/>
<path d="M39.8007 11.4955C39.7159 11.4955 39.7159 11.3667 39.8007 11.3667C39.8855 11.3667 39.8855 11.4955 39.8007 11.4955Z" fill="#AABDE3"/>
<path d="M41.8489 12.1451C41.7747 12.1451 41.7379 12.0737 41.7382 12.0023C41.7382 11.9305 41.7757 11.8591 41.8496 11.8591C41.8665 11.8591 41.8851 11.8629 41.9053 11.8707L41.9533 11.8895C42.0659 11.9337 42.0656 12.0702 41.9533 12.1147L41.9053 12.1332C41.8848 12.1413 41.8659 12.1451 41.8489 12.1451Z" fill="#D6DEF1"/>
<path d="M43.6714 10.8762C43.5815 10.8762 43.5815 10.7403 43.6714 10.7403C43.761 10.7403 43.761 10.8762 43.6714 10.8762Z" fill="#AABDE3"/>
<path d="M188.476 29.4159C189.279 31.0949 190.493 32.5049 191 33H170C170.324 32.5479 171.236 31.237 172.297 29.6096C173.359 27.9822 173.818 26.6497 173.915 26.1869L170.971 27.1879C171.23 26.908 172.006 25.9479 173.042 24.3464C174.077 22.7448 174.724 21.1605 174.918 20.5685L171.747 22.0215C172.211 21.365 173.43 19.4642 174.595 17.1135C175.76 14.7628 176.396 12.2808 176.569 11.3337L174.271 12.4961C174.638 11.9795 175.773 10.21 177.378 7.26517C178.982 4.32035 180.096 1.19472 180.451 0C180.851 1.06556 181.966 3.85538 183.234 6.49022C184.503 9.12505 185.941 11.4413 186.502 12.2701L184.529 11.1722C184.496 11.6458 184.677 13.1935 185.661 15.5959C186.645 17.9982 188.357 20.8806 189.091 22.0215L186.146 20.5685C186.265 20.9883 186.703 22.2217 187.505 23.7975C188.308 25.3732 189.414 26.7143 189.867 27.1879L186.955 26.3483C187.128 26.6712 187.674 27.7368 188.476 29.4159Z" fill="#04B991"/>
<path d="M185.942 28.9562C187.024 30.077 189.098 32.1191 190 33L171 32.9363C171.258 32.7559 172.192 31.9238 173.866 30.0388C175.541 28.1538 177.097 26.6637 177.666 26.1542C177.484 26.1755 176.887 26.4153 175.959 27.205C175.032 27.9946 174.177 28.5317 173.866 28.7015C174.145 28.3619 174.864 27.4342 175.508 26.4408C176.153 25.4474 176.764 24.5622 176.99 24.2438C176.893 24.2119 176.552 24.2947 175.959 24.8806C175.367 25.4665 174.768 25.7403 174.542 25.804L175.347 24.7851C175.272 24.8275 174.942 25.008 174.22 25.3901C173.499 25.7721 173.04 25.8252 172.9 25.804C173.158 25.5386 173.924 24.7087 174.929 23.5114C175.934 22.3142 176.399 21.3144 176.507 20.9642C176.464 21.0385 176.294 21.2635 175.959 21.5692C175.624 21.8748 175.262 22.1423 175.122 22.2378C175.24 22.0468 175.599 21.4227 176.088 20.4547C176.578 19.4868 177.001 18.7353 177.151 18.4806C177.001 18.4275 176.455 18.5379 175.476 19.404C174.497 20.2701 173.737 20.3804 173.48 20.3274C173.888 19.8816 174.832 18.7481 175.347 17.7801C175.863 16.8121 176.464 15.5512 176.7 15.0418C176.582 15.0949 176.146 15.4621 175.347 16.5065C175.702 15.0736 177.537 11.794 178.729 10.1065C179.682 8.75642 179.792 7.90945 179.727 7.65473C179.588 7.89884 179.122 8.55901 178.375 9.24677C177.627 9.93453 177.011 10.4461 176.797 10.6159C177.011 10.3612 177.492 9.69891 177.698 9.08756C177.466 9.34229 176.915 9.57579 176.668 9.6607C177.097 9.01327 178.136 7.39363 178.858 6.09453C179.579 4.79542 180.253 2.15688 180.5 1C180.682 1.84909 181.215 3.9803 181.885 5.71244C182.722 7.87761 183.366 8.70547 184.236 9.85174C183.823 9.64796 183.291 9.1937 183.076 8.99204C183.012 9.00265 183.115 9.09393 183.269 9.37413C183.424 9.65433 183.914 10.4036 184.139 10.7433L181.144 7.84577C181.455 8.48259 182.387 10.272 183.624 12.3353C184.86 14.3986 185.363 15.8697 185.459 16.3473L184.139 14.8507C184.44 15.4982 185.227 17.0987 185.975 18.3214C186.722 19.5441 187.273 20.2955 187.456 20.5184C187.359 20.4653 187.205 20.3528 186.329 20.0726C185.453 19.7924 183.924 18.6186 183.269 18.0667C183.431 18.2259 183.888 18.7162 184.429 19.404C184.97 20.0917 185.47 21.5161 185.653 22.1423L184.429 21.0915C184.461 21.3463 184.712 22.0913 185.459 23.0338C186.206 23.9763 187.488 25.3582 188.036 25.9313C187.939 25.9313 187.611 25.8549 187.069 25.5493C186.528 25.2436 185.899 24.9124 185.653 24.7851L186.329 25.9313L184.042 24.3711L186.715 28.606L183.753 26.3453C184.032 26.7486 184.86 27.8354 185.942 28.9562Z" fill="#198E75"/>
<path d="M196.038 34.2112C194.651 33.4482 193.153 32.6995 191.403 32.4786C190.476 32.3616 189.529 32.3992 188.582 32.437C187.566 32.4777 186.551 32.5182 185.564 32.3674C183.121 31.9944 181.392 30.5569 179.339 29.5758C175.037 27.5195 169.177 27.5219 164.247 28.7504C159.316 29.9789 155.13 32.277 151.154 34.6208C150.327 35.1081 149.469 35.6354 149.137 36.3468C148.805 37.0581 149.297 38.3401 151.088 38.1093C151.675 38.1139 152.242 37.9751 152.811 37.8745C154.157 37.6365 155.589 37.6109 156.938 37.8417C159.058 38.2049 160.846 39.1638 162.858 39.7484C165.085 40.3952 167.6 40.569 169.971 40.2404C172.045 39.9527 173.976 39.2978 176.037 38.9703C178.097 38.6426 180.482 38.7054 182.047 39.6801C182.478 39.9487 182.838 40.2808 183.349 40.4734C183.86 40.6658 184.608 40.6578 184.919 40.3205C185.217 39.9965 184.97 39.5613 185.129 39.1941C185.424 38.5109 186.48 38.3666 187.186 38.8896C187.893 39.4128 187.267 41.0249 188.523 41.0249C190.157 41.0249 189.274 38.9446 189.718 38.5391C190.162 38.1336 191.361 38.2302 191.403 39.1973C191.425 39.7073 191.508 40.2165 191.688 40.7114C191.868 41.2065 192.578 41.6951 193.276 41.5166C193.546 41.4477 193.749 41.292 193.91 41.1281C194.907 40.1104 194.674 38.6269 195.953 37.769C196.513 37.3933 197.321 37.1767 197.696 36.705C198.392 35.8303 197.173 34.835 196.038 34.2112Z" fill="#F1F5FF"/>
<path d="M188.594 40.4326C188.253 40.4326 187.916 40.1738 187.989 39.6591C188.09 38.9426 187.442 38.3209 186.413 38.3209C186.105 38.3209 185.763 38.3763 185.398 38.5013C184.668 38.7511 184.562 39.3223 183.887 39.3223C183.765 39.3223 183.625 39.3037 183.459 39.2612C182.499 39.0159 181.779 38.3368 180.797 38.0522C179.917 37.7968 178.983 37.6907 178.042 37.6907C177.01 37.6907 175.97 37.8183 174.985 38.017C172.791 38.4595 170.72 39.3117 168.396 39.4037C168.218 39.4108 168.039 39.4143 167.862 39.4143C165.547 39.4143 163.284 38.8345 161.233 38.1435C159.376 37.5182 157.548 36.7125 155.44 36.5716C155.271 36.5604 155.104 36.5553 154.939 36.5553C154.094 36.5553 153.298 36.6864 152.448 36.7744C152.293 36.7906 152.141 36.7982 151.993 36.7982C150.756 36.7982 149.85 36.247 149.922 35.43C150.289 35.1362 150.726 34.873 151.154 34.6208C151.165 34.6139 151.176 34.6075 151.188 34.6007C151.404 34.787 151.649 34.9628 151.915 35.1444C153.031 35.9057 154.432 36.0308 155.914 36.0308C156.514 36.0308 157.129 36.0103 157.742 36.0032C157.856 36.0018 157.969 36.0012 158.082 36.0012C160.502 36.0012 162.741 36.3012 165.016 36.883C166.561 37.2781 168.013 37.641 169.56 37.641C170.145 37.641 170.744 37.589 171.367 37.4671C173.765 36.9979 175.923 36.1601 178.417 35.9149C178.96 35.8616 179.492 35.8378 180.017 35.8378C182.074 35.8378 184.017 36.2035 186.051 36.5916C187.222 36.8144 188.32 36.9639 189.414 36.9639C190.318 36.9639 191.219 36.8617 192.156 36.615C193.706 36.2066 194.857 35.4101 195.215 34.6181C195.27 34.4965 195.375 34.2977 195.308 33.8924C195.32 33.964 195.32 33.9915 195.313 33.9915C195.303 33.9915 195.275 33.9192 195.254 33.8466C195.248 33.8248 195.242 33.8028 195.238 33.7831C195.509 33.9229 195.776 34.0669 196.038 34.2112C196.397 34.4085 196.764 34.6431 197.077 34.8991C197.145 35.3471 196.917 35.8283 196.258 36.3344C195.429 36.9703 193.93 36.8562 193.488 38.0929C193.276 38.6868 193.95 40.3111 192.896 40.3425C192.88 40.343 192.865 40.3432 192.849 40.3432C191.85 40.3432 192.085 39.3626 192.11 39.1093C192.153 38.4343 191.499 37.8315 190.71 37.8315C190.699 37.8315 190.689 37.8315 190.678 37.8318C188.631 37.8732 189.354 39.7002 189.153 40.0989C189.041 40.3215 188.817 40.4326 188.594 40.4326Z" fill="#D6DEF1"/>
<path d="M192.975 41.5542C192.385 41.5542 191.842 41.135 191.688 40.7114C191.508 40.2165 191.425 39.7073 191.403 39.1973C191.376 38.5756 190.871 38.3136 190.396 38.3136C190.131 38.3136 189.877 38.3943 189.718 38.5391C189.592 38.6543 189.573 38.9049 189.573 39.2044C189.573 39.3331 189.576 39.4709 189.576 39.6109C189.576 40.2917 189.493 41.0249 188.523 41.0249C187.267 41.0249 187.893 39.4128 187.187 38.8896C186.899 38.6762 186.552 38.5741 186.223 38.5741C185.745 38.5741 185.304 38.7897 185.129 39.1941C185.081 39.3053 185.07 39.4227 185.07 39.5415C185.07 39.6378 185.077 39.7351 185.077 39.8305C185.077 40.0055 185.054 40.1742 184.919 40.3204C184.739 40.5152 184.414 40.6004 184.073 40.6004C183.823 40.6004 183.565 40.5548 183.349 40.4734C182.838 40.2808 182.478 39.9487 182.047 39.6801C181.016 39.0384 179.631 38.7918 178.216 38.7918C177.483 38.7918 176.741 38.8584 176.037 38.9703C173.976 39.2978 172.045 39.9527 169.971 40.2404C169.189 40.3487 168.39 40.4024 167.591 40.4024C165.971 40.4024 164.35 40.1816 162.859 39.7484C160.846 39.1638 159.058 38.2048 156.938 37.8417C156.305 37.7334 155.655 37.6817 155.003 37.6817C154.265 37.6817 153.526 37.7482 152.811 37.8745C152.251 37.9735 151.695 38.1093 151.117 38.1093C151.108 38.1093 151.098 38.1093 151.088 38.1093C150.943 38.1279 150.807 38.1367 150.679 38.1367C149.525 38.1367 149.04 37.4223 149.041 36.8005C149.041 36.6382 149.074 36.4821 149.137 36.3468C149.297 36.0038 149.58 35.7037 149.922 35.43C149.851 36.247 150.756 36.7983 151.993 36.7983C152.141 36.7983 152.293 36.7906 152.449 36.7744C153.298 36.6864 154.095 36.5553 154.939 36.5553C155.104 36.5553 155.271 36.5604 155.44 36.5716C157.548 36.7125 159.376 37.5183 161.233 38.1435C163.284 38.8345 165.547 39.4143 167.862 39.4143C168.04 39.4143 168.218 39.4108 168.396 39.4037C170.72 39.3117 172.791 38.4596 174.985 38.0171C175.971 37.8183 177.01 37.6907 178.042 37.6907C178.983 37.6907 179.917 37.7968 180.797 38.0522C181.779 38.3368 182.499 39.0159 183.459 39.2613C183.625 39.3038 183.765 39.3223 183.887 39.3223C184.562 39.3223 184.668 38.7512 185.398 38.5013C185.764 38.3764 186.105 38.3209 186.413 38.3209C187.442 38.3209 188.091 38.9426 187.989 39.6591C187.917 40.1738 188.254 40.4326 188.594 40.4326C188.817 40.4326 189.042 40.3215 189.154 40.0989C189.354 39.7002 188.632 37.8732 190.679 37.8318C190.689 37.8315 190.699 37.8315 190.71 37.8315C191.499 37.8315 192.153 38.4343 192.11 39.1093C192.085 39.3626 191.85 40.3432 192.849 40.3432C192.865 40.3432 192.881 40.343 192.897 40.3426C193.951 40.3111 193.276 38.6868 193.488 38.0929C193.93 36.8562 195.429 36.9703 196.258 36.3344C196.917 35.8283 197.145 35.3471 197.077 34.8991C197.552 35.2881 197.9 35.727 197.9 36.1613C197.9 36.3448 197.838 36.5274 197.696 36.705C197.321 37.1767 196.513 37.3933 195.953 37.769C194.674 38.6269 194.908 40.1104 193.91 41.1281C193.749 41.292 193.546 41.4477 193.276 41.5166C193.175 41.5423 193.075 41.5542 192.975 41.5542Z" fill="#9DB5E0"/>
<path d="M169.242 29.7059C169.23 29.7059 169.218 29.7052 169.205 29.7041C169.116 29.6964 169.067 29.6625 169.056 29.6019C169.049 29.5663 169.057 29.5411 169.071 29.5066C169.1 29.437 169.194 29.3961 169.288 29.3961C169.343 29.3961 169.399 29.4098 169.442 29.4396C169.561 29.521 169.505 29.6623 169.344 29.6935C169.307 29.701 169.276 29.7059 169.242 29.7059Z" fill="#AABDE3"/>
<path d="M164.63 31.222C164.57 31.222 164.51 31.1948 164.506 31.1407C164.504 31.1035 164.513 31.082 164.538 31.0493C164.557 31.0259 164.593 31.0141 164.63 31.0141C164.666 31.0141 164.702 31.0259 164.721 31.0493C164.746 31.082 164.754 31.1035 164.752 31.1407C164.749 31.1948 164.689 31.222 164.63 31.222Z" fill="#AABDE3"/>
<path d="M172.898 30.9381C172.839 30.9381 172.779 30.914 172.789 30.866C172.795 30.8326 172.801 30.8114 172.825 30.782C172.841 30.7634 172.869 30.7541 172.898 30.7541C172.926 30.7541 172.955 30.7634 172.97 30.782C172.995 30.8114 173 30.8326 173.007 30.866C173.016 30.914 172.957 30.9381 172.898 30.9381Z" fill="#AABDE3"/>
<path d="M190.96 33.4986C190.659 33.4986 190.659 33.1794 190.96 33.1794C191.26 33.1794 191.26 33.4986 190.96 33.4986Z" fill="#D6DEF1"/>
<path d="M188.953 34.02C188.809 34.02 188.809 33.867 188.953 33.867C189.097 33.867 189.096 34.02 188.953 34.02Z" fill="#AABDE3"/>
<path d="M193.127 34.1624C192.922 34.1624 192.922 33.9443 193.127 33.9443C193.332 33.9443 193.332 34.1624 193.127 34.1624Z" fill="#D6DEF1"/>
<path d="M169.446 34.7413C169.289 34.7413 169.289 34.5748 169.446 34.5748C169.603 34.5748 169.602 34.7413 169.446 34.7413Z" fill="#D6DEF1"/>
<path d="M155.879 33.9229C155.711 33.9229 155.711 33.7445 155.879 33.7445C156.048 33.7445 156.047 33.9229 155.879 33.9229Z" fill="#D6DEF1"/>
<path d="M157.565 34.4736C157.292 34.4736 157.292 34.1832 157.565 34.1832C157.839 34.1832 157.838 34.4736 157.565 34.4736Z" fill="#AABDE3"/>
<path d="M184.5 11.5C182 16 176.5 21 175 21" stroke="#F6E43E" stroke-dasharray="1 2"/>
<path d="M187.5 26.5C183.5 28 177 24.5 175 21" stroke="#F6E43E" stroke-dasharray="1 2"/>
</svg>
