<svg width="15" height="14" viewBox="0 0 15 14" xmlns="http://www.w3.org/2000/svg">
<path fill-rule="evenodd" clip-rule="evenodd" d="M0 7.00001C0 6.76795 0.0921874 6.54539 0.256282 6.38129C0.420376 6.2172 0.642935 6.12501 0.875 6.12501H11.0127L7.2555 2.36951C7.0912 2.20521 6.99889 1.98237 6.99889 1.75001C6.99889 1.51765 7.0912 1.29481 7.2555 1.13051C7.4198 0.966205 7.64264 0.873901 7.875 0.873901C8.10736 0.873901 8.3302 0.966205 8.4945 1.13051L13.7445 6.38051C13.826 6.46179 13.8906 6.55835 13.9347 6.66465C13.9789 6.77096 14.0016 6.88492 14.0016 7.00001C14.0016 7.1151 13.9789 7.22906 13.9347 7.33537C13.8906 7.44167 13.826 7.53823 13.7445 7.61951L8.4945 12.8695C8.3302 13.0338 8.10736 13.1261 7.875 13.1261C7.64264 13.1261 7.4198 13.0338 7.2555 12.8695C7.0912 12.7052 6.99889 12.4824 6.99889 12.25C6.99889 12.0177 7.0912 11.7948 7.2555 11.6305L11.0127 7.87501H0.875C0.642935 7.87501 0.420376 7.78282 0.256282 7.61873C0.0921874 7.45464 0 7.23207 0 7.00001Z"/>
</svg>
