<svg xmlns="http://www.w3.org/2000/svg" width="15.969" height="20" viewBox="0 0 15.969 20">
  <defs>
    <style>
      .cls-1 {
        fill: #04b991;
        fill-rule: evenodd;
      }
    </style>
  </defs>
  <path id="attachment" class="cls-1" d="M513.414,1904.62h0a1,1,0,0,1,.489,1.33l-4.71,9.9a2.037,2.037,0,0,1-2.685.97h0l-7.327-3.38h0a1.994,1.994,0,0,1-.977-2.66l5.991-12.62a2.025,2.025,0,0,1,2.686-.96h0l4.579,2.11h0a1.992,1.992,0,0,1,.977,2.66l-4.283,8.99a2.025,2.025,0,0,1-2.686.96h0l-1.831-.84h0a2,2,0,0,1-.978-2.66l3-6.27a1.008,1.008,0,0,1,1.343-.48h0a0.985,0.985,0,0,1,.489,1.32l-2.575,5.37a1,1,0,0,0,.489,1.33h0a1.017,1.017,0,0,0,1.343-.48l3.428-7.18a1,1,0,0,0-.489-1.33l-2.747-1.27a1.017,1.017,0,0,0-1.343.48l-5.135,10.8a1,1,0,0,0,.491,1.34l5.487,2.53a1.019,1.019,0,0,0,1.349-.49l4.281-8.98A1.02,1.02,0,0,1,513.414,1904.62Z" transform="translate(-498.031 -1897)"/>
</svg>
