<svg width="26" height="26" viewBox="0 0 26 26" fill="none" xmlns="http://www.w3.org/2000/svg">
<path d="M15.55 11.5833C15.1486 11.5833 14.8124 11.4473 14.5413 11.1753C14.2693 10.9043 14.1333 10.5681 14.1333 10.1667V4.5C14.1333 4.09861 14.2693 3.76192 14.5413 3.48992C14.8124 3.21886 15.1486 3.08333 15.55 3.08333C15.9514 3.08333 16.2881 3.21886 16.5601 3.48992C16.8311 3.76192 16.9667 4.09861 16.9667 4.5V6.76667L23.0583 0.675C23.3181 0.415278 23.6486 0.285417 24.05 0.285417C24.4514 0.285417 24.7819 0.415278 25.0417 0.675C25.3014 0.934722 25.4312 1.26528 25.4312 1.66667C25.4312 2.06806 25.3014 2.39861 25.0417 2.65833L18.95 8.75H21.2167C21.6181 8.75 21.9548 8.88553 22.2267 9.15658C22.4978 9.42858 22.6333 9.76528 22.6333 10.1667C22.6333 10.5681 22.4978 10.9043 22.2267 11.1753C21.9548 11.4473 21.6181 11.5833 21.2167 11.5833H15.55ZM24.2625 25.75C21.2167 25.75 18.2478 25.0709 15.3559 23.7128C12.4631 22.3557 9.90128 20.5612 7.6705 18.3295C5.43878 16.0987 3.64433 13.5369 2.28717 10.6441C0.929056 7.75219 0.25 4.78333 0.25 1.7375C0.25 1.3125 0.391667 0.958333 0.675 0.675C0.958333 0.391667 1.3125 0.25 1.7375 0.25H7.475C7.80556 0.25 8.10069 0.35625 8.36042 0.56875C8.62014 0.78125 8.77361 1.05278 8.82083 1.38333L9.74167 6.34167C9.78889 6.67222 9.78322 6.97303 9.72467 7.24408C9.66517 7.51608 9.52917 7.75833 9.31667 7.97083L5.91667 11.4417C6.90833 13.1417 8.14792 14.7354 9.63542 16.2229C11.1229 17.7104 12.7639 18.9972 14.5583 20.0833L17.8875 16.7542C18.1 16.5417 18.3777 16.3821 18.7205 16.2753C19.0624 16.1696 19.3986 16.1403 19.7292 16.1875L24.6167 17.1792C24.9472 17.25 25.2187 17.4091 25.4312 17.6566C25.6437 17.905 25.75 18.1944 25.75 18.525V24.2625C25.75 24.6875 25.6083 25.0417 25.325 25.325C25.0417 25.6083 24.6875 25.75 24.2625 25.75Z" fill="white"/>
</svg>
