<svg width="24" height="24" viewBox="0 0 24 24" xmlns="http://www.w3.org/2000/svg">
<path d="M10.3668 17.3667L18.5918 9.14171L16.9585 7.50837L10.3668 14.1L7.04183 10.775L5.4085 12.4084L10.3668 17.3667ZM12.0002 23.6667C10.3863 23.6667 8.86961 23.3603 7.45016 22.7474C6.03072 22.1353 4.796 21.3042 3.746 20.2542C2.696 19.2042 1.86494 17.9695 1.25283 16.55C0.639941 15.1306 0.333496 13.6139 0.333496 12C0.333496 10.3862 0.639941 8.86949 1.25283 7.45004C1.86494 6.0306 2.696 4.79587 3.746 3.74587C4.796 2.69587 6.03072 1.86443 7.45016 1.25154C8.86961 0.63943 10.3863 0.333374 12.0002 0.333374C13.6141 0.333374 15.1307 0.63943 16.5502 1.25154C17.9696 1.86443 19.2043 2.69587 20.2543 3.74587C21.3043 4.79587 22.1354 6.0306 22.7475 7.45004C23.3604 8.86949 23.6668 10.3862 23.6668 12C23.6668 13.6139 23.3604 15.1306 22.7475 16.55C22.1354 17.9695 21.3043 19.2042 20.2543 20.2542C19.2043 21.3042 17.9696 22.1353 16.5502 22.7474C15.1307 23.3603 13.6141 23.6667 12.0002 23.6667Z"/>
</svg>
