<svg width="24" height="24" viewBox="0 0 24 24" fill="none" xmlns="http://www.w3.org/2000/svg">
<path d="M10.8333 17.8333H13.1666V13.1666H17.8333V10.8333H13.1666V6.16665H10.8333V10.8333H6.16658V13.1666H10.8333V17.8333ZM11.9999 23.6666C10.386 23.6666 8.86936 23.3602 7.44992 22.7473C6.03047 22.1344 4.79575 21.3034 3.74575 20.2541C2.69575 19.2041 1.8647 17.9694 1.25259 16.55C0.640474 15.1305 0.33403 13.6139 0.333252 12C0.333252 10.3861 0.639697 8.86942 1.25259 7.44998C1.86547 6.03054 2.69653 4.79581 3.74575 3.74581C4.79575 2.69581 6.03047 1.86476 7.44992 1.25265C8.86936 0.640535 10.386 0.334091 11.9999 0.333313C13.6138 0.333313 15.1305 0.639758 16.5499 1.25265C17.9694 1.86554 19.2041 2.69659 20.2541 3.74581C21.3041 4.79581 22.1355 6.03054 22.7484 7.44998C23.3613 8.86942 23.6674 10.3861 23.6666 12C23.6666 13.6139 23.3601 15.1305 22.7473 16.55C22.1344 17.9694 21.3033 19.2041 20.2541 20.2541C19.2041 21.3041 17.9694 22.1356 16.5499 22.7485C15.1305 23.3614 13.6138 23.6674 11.9999 23.6666Z" fill="white"/>
</svg>
