<svg width="35" height="35" viewBox="0 0 35 35" fill="none" xmlns="http://www.w3.org/2000/svg">
<path d="M22.625 14.0833L17.5 17.5V8.95833M2.125 17.5C2.125 19.5191 2.52269 21.5184 3.29535 23.3838C4.06802 25.2491 5.20053 26.9441 6.62823 28.3718C8.05593 29.7995 9.75086 30.932 11.6162 31.7046C13.4816 32.4773 15.4809 32.875 17.5 32.875C19.5191 32.875 21.5184 32.4773 23.3838 31.7046C25.2491 30.932 26.9441 29.7995 28.3718 28.3718C29.7995 26.9441 30.932 25.2491 31.7046 23.3838C32.4773 21.5184 32.875 19.5191 32.875 17.5C32.875 15.4809 32.4773 13.4816 31.7046 11.6162C30.932 9.75086 29.7995 8.05593 28.3718 6.62823C26.9441 5.20053 25.2491 4.06802 23.3838 3.29535C21.5184 2.52269 19.5191 2.125 17.5 2.125C15.4809 2.125 13.4816 2.52269 11.6162 3.29535C9.75086 4.06802 8.05593 5.20053 6.62823 6.62823C5.20053 8.05593 4.06802 9.75086 3.29535 11.6162C2.52269 13.4816 2.125 15.4809 2.125 17.5Z" stroke="#3C3C3C" stroke-width="3" stroke-linecap="round" stroke-linejoin="round"/>
</svg>
