<svg xmlns="http://www.w3.org/2000/svg" width="18.5" height="18.5" viewBox="0 0 18.5 18.5">
  <defs>
    <style>
      .cls-1 {
        fill: #f3f4f9;
        fill-rule: evenodd;
      }
    </style>
  </defs>
  <path id="clock" class="cls-1" d="M762.552,430.168a0.925,0.925,0,0,1-.925.925h-3.7a1.85,1.85,0,0,1-1.849-1.851v-4.625a0.925,0.925,0,1,1,1.849,0v3.7a0.926,0.926,0,0,0,.924.924h2.774A0.926,0.926,0,0,1,762.552,430.168Zm3.7-.926A9.245,9.245,0,1,1,757,419.991,9.248,9.248,0,0,1,766.249,429.242Zm-1.848,0a7.4,7.4,0,1,0-7.4,7.4A7.408,7.408,0,0,0,764.4,429.242Z" transform="translate(-747.75 -420)"/>
</svg>
