<svg id="Группа_1" data-name="Группа 1" xmlns="http://www.w3.org/2000/svg" width="182.41" height="115.9" viewBox="0 0 182.41 115.9">
  <path id="Фигура_5" data-name="Фигура 5" class="cls-1" d="M7588.68,1626.45a104.218,104.218,0,0,1-32.77-5.04h-33.6s10.22-3.31,16.67-8.33c-7.99-5.7-12.75-12.8-12.75-20.51,0-18.72,27.96-33.89,62.45-33.89s62.45,15.17,62.45,33.89S7623.17,1626.45,7588.68,1626.45Z" transform="translate(-7522.31 -1558.69)" fill="#04b991" fill-rule="evenodd"/>
  <path id="Фигура_5_копия" data-name="Фигура 5 копия" class="cls-2" d="M7638.34,1606.82a103.931,103.931,0,0,1,32.77,5.04h33.6s-10.21,3.31-16.67,8.33c7.99,5.69,12.75,12.8,12.75,20.51,0,18.71-27.96,33.88-62.45,33.88s-62.45-15.17-62.45-33.88S7603.85,1606.82,7638.34,1606.82Z" transform="translate(-7522.31 -1558.69)" fill="#f3f4f9" fill-rule="evenodd"/>
</svg>
