<svg width="18" height="18" viewBox="0 0 18 18" fill="none" xmlns="http://www.w3.org/2000/svg">
<path d="M10.9974 9.00006L17.0891 2.92256C17.3558 2.6558 17.5057 2.29399 17.5057 1.91673C17.5057 1.53947 17.3558 1.17766 17.0891 0.910893C16.8223 0.644129 16.4605 0.494263 16.0832 0.494263C15.706 0.494263 15.3442 0.644129 15.0774 0.910893L8.99991 7.00256L2.92241 0.910893C2.65565 0.644129 2.29384 0.494263 1.91658 0.494263C1.53932 0.494263 1.17751 0.644129 0.910747 0.910893C0.643983 1.17766 0.494117 1.53947 0.494117 1.91673C0.494117 2.29399 0.643983 2.6558 0.910747 2.92256L7.00241 9.00006L0.910747 15.0776C0.777965 15.2093 0.672573 15.3659 0.600651 15.5386C0.528729 15.7112 0.491699 15.8964 0.491699 16.0834C0.491699 16.2704 0.528729 16.4556 0.600651 16.6282C0.672573 16.8008 0.777965 16.9575 0.910747 17.0892C1.04244 17.222 1.19913 17.3274 1.37176 17.3993C1.5444 17.4712 1.72956 17.5083 1.91658 17.5083C2.1036 17.5083 2.28876 17.4712 2.4614 17.3993C2.63403 17.3274 2.79072 17.222 2.92241 17.0892L8.99991 10.9976L15.0774 17.0892C15.2091 17.222 15.3658 17.3274 15.5384 17.3993C15.7111 17.4712 15.8962 17.5083 16.0832 17.5083C16.2703 17.5083 16.4554 17.4712 16.6281 17.3993C16.8007 17.3274 16.9574 17.222 17.0891 17.0892C17.2219 16.9575 17.3273 16.8008 17.3992 16.6282C17.4711 16.4556 17.5081 16.2704 17.5081 16.0834C17.5081 15.8964 17.4711 15.7112 17.3992 15.5386C17.3273 15.3659 17.2219 15.2093 17.0891 15.0776L10.9974 9.00006Z" fill="white"/>
</svg>
