<svg width="18" height="15" viewBox="0 0 18 15" fill="none" xmlns="http://www.w3.org/2000/svg">
<g clip-path="url(#clip0)">
<path d="M14.85 13.125H3.15C2.9025 13.125 2.7 13.3359 2.7 13.5937V14.5312C2.7 14.7891 2.9025 15 3.15 15H14.85C15.0975 15 15.3 14.7891 15.3 14.5312V13.5937C15.3 13.3359 15.0975 13.125 14.85 13.125ZM16.65 3.75C15.9047 3.75 15.3 4.37988 15.3 5.15625C15.3 5.36426 15.345 5.55762 15.4237 5.73633L13.3875 7.00781C12.9544 7.27734 12.3947 7.125 12.1444 6.66797L9.85219 2.49023C10.1531 2.23242 10.35 1.8457 10.35 1.40625C10.35 0.629883 9.74531 0 9 0C8.25469 0 7.65 0.629883 7.65 1.40625C7.65 1.8457 7.84688 2.23242 8.14781 2.49023L5.85562 6.66797C5.60531 7.125 5.04281 7.27734 4.6125 7.00781L2.57906 5.73633C2.655 5.56055 2.70281 5.36426 2.70281 5.15625C2.70281 4.37988 2.09812 3.75 1.35281 3.75C0.6075 3.75 0 4.37988 0 5.15625C0 5.93262 0.604688 6.5625 1.35 6.5625C1.42312 6.5625 1.49625 6.55078 1.56656 6.53906L3.6 12.1875H14.4L16.4334 6.53906C16.5037 6.55078 16.5769 6.5625 16.65 6.5625C17.3953 6.5625 18 5.93262 18 5.15625C18 4.37988 17.3953 3.75 16.65 3.75Z" fill="#3C3C3C"/>
</g>
<defs>
<clipPath id="clip0">
<rect width="18" height="15" fill="white"/>
</clipPath>
</defs>
</svg>
