<svg width="26" height="26" viewBox="0 0 26 26" fill="none" xmlns="http://www.w3.org/2000/svg">
<path d="M22.9167 0.25H3.08333C1.51083 0.25 0.25 1.51083 0.25 3.08333V22.9167C0.25 23.6681 0.548511 24.3888 1.07986 24.9201C1.61122 25.4515 2.33189 25.75 3.08333 25.75H22.9167C24.4892 25.75 25.75 24.4892 25.75 22.9167V3.08333C25.75 2.33189 25.4515 1.61122 24.9201 1.07986C24.3888 0.548511 23.6681 0.25 22.9167 0.25ZM8.50917 5.9875C9.8975 5.9875 11.0167 7.10667 11.0167 8.50917C11.0167 9.8975 9.8975 11.0167 8.50917 11.0167C7.10667 11.0167 5.9875 9.8975 5.9875 8.50917C5.9875 7.10667 7.10667 5.9875 8.50917 5.9875ZM17.5617 20.0833C16.1733 20.0833 15.0542 18.95 15.0542 17.5617C15.0542 16.1733 16.1733 15.0542 17.5617 15.0542C18.95 15.0542 20.0833 16.1733 20.0833 17.5617C20.0833 18.95 18.95 20.0833 17.5617 20.0833ZM8.04167 20.1258L5.91667 18.0008L18.0008 5.91667L20.1258 8.04167L8.04167 20.1258Z" fill="#E40175"/>
</svg>
