<svg xmlns="http://www.w3.org/2000/svg" width="101.594" height="73.87" viewBox="0 0 101.594 73.87">
  <path id="_01" data-name="01" d="M694.413,5709.52a30.471,30.471,0,0,0,16.162-4.28,28.953,28.953,0,0,0,11-12.38q3.978-8.1,3.979-19.3t-3.979-19.31a29.068,29.068,0,0,0-11-12.38,32.722,32.722,0,0,0-32.324,0,29.056,29.056,0,0,0-11,12.38q-3.978,8.115-3.979,19.31t3.979,19.3a28.94,28.94,0,0,0,11,12.38,30.466,30.466,0,0,0,16.162,4.28h0Zm0-18.57q-7.861,0-7.86-17.39t7.86-17.39q7.859,0,7.86,17.39t-7.86,17.39h0Zm33.5-51.78v17.49h11.79v51.29h23.186v-68.78H727.915Z" transform="translate(-662.281 -5636.63)" fill="none" stroke="#353535" stroke-linecap="round" stroke-width="2" stroke-dasharray="0.001 4" fill-rule="evenodd" />
</svg>
