<svg xmlns="http://www.w3.org/2000/svg" width="126.218" height="75.18" viewBox="0 0 126.218 75.18">
  <path id="_03" data-name="03" class="cls-1" d="M383.6,5710.85a31.015,31.015,0,0,0,16.45-4.35,29.553,29.553,0,0,0,11.2-12.6q4.05-8.25,4.05-19.65t-4.05-19.65a29.553,29.553,0,0,0-11.2-12.6,33.279,33.279,0,0,0-32.9,0,29.546,29.546,0,0,0-11.2,12.6q-4.05,8.25-4.05,19.65t4.05,19.65a29.546,29.546,0,0,0,11.2,12.6,31.013,31.013,0,0,0,16.45,4.35h0Zm0-18.9q-8,0-8-17.7t8-17.7q8,0,8,17.7t-8,17.7h0Zm75.8-25,13-13.2v-14.5H420.2v17.8h25l-10.3,10.5v14.5h9.3q8.3,0,8.3,4.8a4.379,4.379,0,0,1-2.5,4,13.512,13.512,0,0,1-6.6,1.4,37.407,37.407,0,0,1-9.55-1.3,37,37,0,0,1-9.25-3.8l-8,17.4a45.948,45.948,0,0,0,12.85,4.7,68.938,68.938,0,0,0,14.75,1.6q10.7,0,17.9-3.4a24.6,24.6,0,0,0,10.65-8.85,21.558,21.558,0,0,0,3.45-11.75,19.189,19.189,0,0,0-4.35-12.65q-4.35-5.25-12.45-7.25h0Z" transform="translate(-350.938 -5636.66)" fill="none" stroke="#fff" stroke-linecap="round" stroke-width="2" stroke-dasharray="0.001 4" fill-rule="evenodd"/>
</svg>
