<svg xmlns="http://www.w3.org/2000/svg" width="121.129" height="72.22" viewBox="0 0 121.129 72.22">
  <path id="_02" data-name="02" d="M1004.93,5708.17a29.81,29.81,0,0,0,15.78-4.18,28.328,28.328,0,0,0,10.74-12.09q3.885-7.9,3.89-18.85t-3.89-18.85a28.444,28.444,0,0,0-10.74-12.09,31.952,31.952,0,0,0-31.565,0A28.441,28.441,0,0,0,978.4,5654.2q-3.885,7.92-3.885,18.85t3.885,18.85a28.325,28.325,0,0,0,10.745,12.09,29.778,29.778,0,0,0,15.785,4.18h0Zm0-18.14q-7.682,0-7.679-16.98t7.679-16.98q7.665,0,7.67,16.98t-7.67,16.98h0Zm66.09-.96,9.6-8.73q6.81-6.135,9.16-10.98a23.494,23.494,0,0,0,2.35-10.41,18.4,18.4,0,0,0-3.45-11.03,22.139,22.139,0,0,0-9.6-7.39,36.11,36.11,0,0,0-14.1-2.59q-10.455,0-17.84,4.17a28.112,28.112,0,0,0-11.23,11.37l17.08,8.54a10.657,10.657,0,0,1,4.12-4.6,10.878,10.878,0,0,1,5.76-1.63,7.388,7.388,0,0,1,4.84,1.39,4.749,4.749,0,0,1,1.68,3.88,9.263,9.263,0,0,1-1.05,4.13,20.246,20.246,0,0,1-4.22,5.08l-24.27,22.45v13.91h53.81v-17.56h-22.64Z" transform="translate(-973.531 -5636.94)" fill="none" stroke="#fff" stroke-linecap="round" stroke-width="2" stroke-dasharray="0.001 4" fill-rule="evenodd"/>
</svg>
