<svg width="21" height="15" viewBox="0 0 21 15" fill="none" xmlns="http://www.w3.org/2000/svg">
<path d="M14.61 6.5C13.81 6.85 13.11 7.36 12.54 8H7.5C6.83696 8 6.20107 7.73661 5.73223 7.26777C5.26339 6.79893 5 6.16304 5 5.5C5 4.83696 5.26339 4.20107 5.73223 3.73223C6.20107 3.26339 6.83696 3 7.5 3H15V4.5H7.5C6.95 4.5 6.5 4.95 6.5 5.5C6.5 6.05 6.95 6.5 7.5 6.5H14.61ZM1.5 5.5C1.5 3.29 3.29 1.5 5.5 1.5H16C16.5299 1.49863 17.0464 1.66597 17.4748 1.9778C17.9032 2.28963 18.2212 2.72974 18.3827 3.23439C18.5442 3.73903 18.5409 4.28199 18.3732 4.78462C18.2055 5.28725 17.8822 5.72344 17.45 6.03C18.05 6.07 18.63 6.2 19.17 6.41C19.69 5.74 20 4.91 20 4C20 1.79 18.21 0 16 0H5.5C2.46 0 0 2.46 0 5.5C0 8.54 2.46 11 5.5 11H11.09C11.18 10.47 11.34 9.97 11.55 9.5H5.5C3.29 9.5 1.5 7.71 1.5 5.5ZM19.34 8.84L15.75 12.43L14.16 10.84L13 12L15.75 15L20.5 10.25L19.34 8.84Z" fill="white"/>
</svg>
