<svg width="18" height="18" viewBox="0 0 18 18" fill="none" xmlns="http://www.w3.org/2000/svg">
<path d="M8.99984 0.666748C13.6023 0.666748 17.3332 4.39758 17.3332 9.00008C17.3332 13.6026 13.6023 17.3334 8.99984 17.3334C4.39734 17.3334 0.666504 13.6026 0.666504 9.00008C0.666504 4.39758 4.39734 0.666748 8.99984 0.666748ZM7.23234 6.05341C7.08272 5.90237 6.88103 5.81422 6.66855 5.80701C6.45607 5.7998 6.24886 5.87408 6.08935 6.01463C5.92984 6.15519 5.83008 6.3514 5.8105 6.5631C5.79092 6.7748 5.85298 6.98598 5.984 7.15341L6.054 7.23258L7.82067 8.99925L6.054 10.7676C5.90296 10.9172 5.81481 11.1189 5.8076 11.3314C5.80039 11.5438 5.87467 11.7511 6.01522 11.9106C6.15578 12.0701 6.35199 12.1698 6.56369 12.1894C6.77539 12.209 6.98657 12.1469 7.154 12.0159L7.23234 11.9467L8.99984 10.1784L10.7673 11.9467C10.917 12.0978 11.1186 12.1859 11.3311 12.1931C11.5436 12.2004 11.7508 12.1261 11.9103 11.9855C12.0698 11.845 12.1696 11.6488 12.1892 11.4371C12.2088 11.2254 12.1467 11.0142 12.0157 10.8467L11.9465 10.7676L10.1782 9.00008L11.9465 7.23258C12.0975 7.08296 12.1857 6.88127 12.1929 6.66879C12.2001 6.45631 12.1258 6.24911 11.9853 6.0896C11.8447 5.93009 11.6485 5.83033 11.4368 5.81074C11.2251 5.79116 11.0139 5.85323 10.8465 5.98425L10.7673 6.05341L8.99984 7.82175L7.23234 6.05341Z" fill="#D5D5D5"/>
</svg>
