<svg xmlns="http://www.w3.org/2000/svg" width="20" height="20" viewBox="0 0 20 20">
  <defs>
    <style>
      .cls-1 {
        fill: #04b991;
        fill-rule: evenodd;
      }
    </style>
  </defs>
  <path id="file_pdf" class="cls-1" d="M509.986,2193v2h-4v2h4v2h-4v2h-2v-8h6Zm-7,3v2a3,3,0,0,1-3,3h-3v-8h3A3.008,3.008,0,0,1,502.989,2196Zm-2,.1a1.091,1.091,0,0,0-1-1.1h-1v4h1a0.914,0.914,0,0,0,1-.9v-2Zm-5-.1a3,3,0,0,1-3,3h-1v2h-2v-8h3A3,3,0,0,1,495.993,2196Zm-2,.1a1,1,0,0,0-1-1h-1v2h1A1,1,0,0,0,493.994,2196.1Zm9.974-15.09H490V2191h2v-8h10v6h6v2h2v-3.56Z" transform="translate(-490 -2181)"/>
</svg>
