<svg width="28" height="28" viewBox="0 0 28 28" fill="none" xmlns="http://www.w3.org/2000/svg">
<path d="M22.1658 10.5C22.1658 10.1906 22.0428 9.89382 21.8241 9.67503C21.6053 9.45624 21.3085 9.33332 20.9991 9.33332C20.6897 9.33332 20.3929 9.45624 20.1741 9.67503C19.9553 9.89382 19.8324 10.1906 19.8324 10.5C19.8324 10.8094 19.9553 11.1062 20.1741 11.3249C20.3929 11.5437 20.6897 11.6667 20.9991 11.6667C21.3085 11.6667 21.6053 11.5437 21.8241 11.3249C22.0428 11.1062 22.1658 10.8094 22.1658 10.5ZM22.1658 7.19832C22.8489 7.43936 23.4404 7.88635 23.8588 8.47769C24.2773 9.06903 24.502 9.77559 24.502 10.5C24.502 11.2244 24.2773 11.931 23.8588 12.5223C23.4404 13.1136 22.8489 13.5606 22.1658 13.8017L22.1658 22.1667C22.1658 22.4761 22.0428 22.7728 21.8241 22.9916C21.6053 23.2104 21.3085 23.3333 20.9991 23.3333C20.6897 23.3333 20.3929 23.2104 20.1741 22.9916C19.9553 22.7728 19.8324 22.4761 19.8324 22.1667L19.8324 13.8017C19.1493 13.5606 18.5578 13.1136 18.1393 12.5223C17.7209 11.931 17.4962 11.2244 17.4962 10.5C17.4962 9.77559 17.7209 9.06903 18.1393 8.47769C18.5578 7.88635 19.1493 7.43936 19.8324 7.19832L19.8324 5.83332C19.8324 5.5239 19.9553 5.22716 20.1741 5.00837C20.3929 4.78957 20.6897 4.66666 20.9991 4.66666C21.3085 4.66666 21.6053 4.78957 21.8241 5.00837C22.0428 5.22716 22.1658 5.5239 22.1658 5.83332L22.1658 7.19832ZM15.1658 17.5C15.1658 17.1906 15.0428 16.8938 14.8241 16.675C14.6053 16.4562 14.3085 16.3333 13.9991 16.3333C13.6897 16.3333 13.3929 16.4562 13.1741 16.675C12.9553 16.8938 12.8324 17.1906 12.8324 17.5C12.8324 17.8094 12.9553 18.1062 13.1741 18.3249C13.3929 18.5437 13.6897 18.6667 13.9991 18.6667C14.3085 18.6667 14.6053 18.5437 14.8241 18.3249C15.0428 18.1062 15.1658 17.8094 15.1658 17.5ZM15.1658 14.1983C15.8489 14.4394 16.4404 14.8864 16.8588 15.4777C17.2773 16.069 17.502 16.7756 17.502 17.5C17.502 18.2244 17.2773 18.931 16.8588 19.5223C16.4404 20.1136 15.8489 20.5606 15.1658 20.8017L15.1658 22.1667C15.1658 22.4761 15.0428 22.7728 14.8241 22.9916C14.6053 23.2104 14.3085 23.3333 13.9991 23.3333C13.6897 23.3333 13.3929 23.2104 13.1741 22.9916C12.9553 22.7728 12.8324 22.4761 12.8324 22.1667L12.8324 20.8017C12.1493 20.5606 11.5578 20.1136 11.1393 19.5223C10.7209 18.931 10.4962 18.2244 10.4962 17.5C10.4962 16.7756 10.7209 16.069 11.1393 15.4777C11.5578 14.8864 12.1493 14.4394 12.8324 14.1983L12.8324 5.83332C12.8324 5.5239 12.9553 5.22716 13.1741 5.00836C13.3929 4.78957 13.6897 4.66666 13.9991 4.66666C14.3085 4.66666 14.6053 4.78957 14.8241 5.00836C15.0428 5.22716 15.1658 5.5239 15.1658 5.83332L15.1658 14.1983ZM8.16576 10.5C8.16576 10.1906 8.04284 9.89382 7.82405 9.67503C7.60526 9.45624 7.30851 9.33332 6.99909 9.33332C6.68967 9.33332 6.39293 9.45624 6.17413 9.67503C5.95534 9.89382 5.83243 10.1906 5.83243 10.5C5.83243 10.8094 5.95534 11.1062 6.17413 11.3249C6.39293 11.5437 6.68967 11.6667 6.99909 11.6667C7.30851 11.6667 7.60526 11.5437 7.82405 11.3249C8.04284 11.1062 8.16576 10.8094 8.16576 10.5ZM8.16576 7.19832C8.84888 7.43936 9.44042 7.88635 9.85884 8.47769C10.2773 9.06903 10.502 9.77559 10.502 10.5C10.502 11.2244 10.2773 11.931 9.85884 12.5223C9.44042 13.1136 8.84888 13.5606 8.16576 13.8017L8.16576 22.1667C8.16576 22.4761 8.04284 22.7728 7.82405 22.9916C7.60526 23.2104 7.30851 23.3333 6.99909 23.3333C6.68967 23.3333 6.39293 23.2104 6.17413 22.9916C5.95534 22.7728 5.83243 22.4761 5.83243 22.1667L5.83243 13.8017C5.1493 13.5606 4.55777 13.1136 4.13935 12.5223C3.72093 11.931 3.49623 11.2244 3.49623 10.5C3.49623 9.77559 3.72093 9.06903 4.13935 8.47769C4.55777 7.88635 5.14931 7.43936 5.83243 7.19832L5.83243 5.83332C5.83243 5.5239 5.95534 5.22716 6.17414 5.00836C6.39293 4.78957 6.68967 4.66666 6.99909 4.66666C7.30851 4.66666 7.60526 4.78957 7.82405 5.00836C8.04284 5.22716 8.16576 5.5239 8.16576 5.83332L8.16576 7.19832Z" fill="white"/>
</svg>
