<svg width="16" height="18" viewBox="0 0 16 18" fill="none" xmlns="http://www.w3.org/2000/svg">
<path fill-rule="evenodd" clip-rule="evenodd" d="M13.8333 9.00002V15.6667C13.8333 16.1087 13.6577 16.5326 13.3452 16.8452C13.0326 17.1578 12.6087 17.3334 12.1667 17.3334H3.83333C3.39131 17.3334 2.96738 17.1578 2.65482 16.8452C2.34226 16.5326 2.16667 16.1087 2.16667 15.6667V9.00002C1.72464 9.00002 1.30072 8.82443 0.988155 8.51187C0.675595 8.19931 0.5 7.77538 0.5 7.33335V5.66669C0.5 5.22466 0.675595 4.80074 0.988155 4.48818C1.30072 4.17561 1.72464 4.00002 2.16667 4.00002H3.14167C3.02095 3.65687 2.97658 3.29151 3.01164 2.92944C3.04671 2.56737 3.16036 2.21732 3.34467 1.9037C3.52898 1.59009 3.77951 1.32048 4.07878 1.11368C4.37804 0.906889 4.71883 0.767892 5.07736 0.706395C5.43589 0.644898 5.80351 0.662382 6.15459 0.757628C6.50566 0.852873 6.83172 1.02358 7.11 1.25785C7.38829 1.49211 7.6121 1.78428 7.76582 2.11397C7.91954 2.44366 7.99946 2.80292 8 3.16669C8.00054 2.80292 8.08046 2.44366 8.23418 2.11397C8.3879 1.78428 8.61171 1.49211 8.88999 1.25785C9.16828 1.02358 9.49434 0.852873 9.84541 0.757628C10.1965 0.662382 10.5641 0.644898 10.9226 0.706395C11.2812 0.767892 11.622 0.906889 11.9212 1.11368C12.2205 1.32048 12.471 1.59009 12.6553 1.9037C12.8396 2.21732 12.9533 2.56737 12.9884 2.92944C13.0234 3.29151 12.979 3.65687 12.8583 4.00002H13.8333C14.2754 4.00002 14.6993 4.17561 15.0118 4.48818C15.3244 4.80074 15.5 5.22466 15.5 5.66669V7.33335C15.5 7.77538 15.3244 8.19931 15.0118 8.51187C14.6993 8.82443 14.2754 9.00002 13.8333 9.00002ZM7.16667 5.66669H2.16667V7.33335H7.16667V5.66669ZM8.83333 5.66669V7.33335H13.8333V5.66669H8.83333ZM3.83333 9.00002V15.6667H12.1667V9.00002H3.83333ZM5.5 4.00002H6.33333V3.16669C6.33333 3.00187 6.28446 2.84075 6.19289 2.70371C6.10132 2.56667 5.97117 2.45986 5.8189 2.39679C5.66663 2.33371 5.49908 2.31721 5.33742 2.34937C5.17577 2.38152 5.02729 2.46089 4.91074 2.57743C4.7942 2.69397 4.71483 2.84246 4.68268 3.00411C4.65052 3.16576 4.66703 3.33332 4.7301 3.48559C4.79317 3.63786 4.89998 3.76801 5.03702 3.85958C5.17407 3.95115 5.33518 4.00002 5.5 4.00002ZM10.5 4.00002C10.6648 4.00002 10.8259 3.95115 10.963 3.85958C11.1 3.76801 11.2068 3.63786 11.2699 3.48559C11.333 3.33332 11.3495 3.16576 11.3173 3.00411C11.2852 2.84246 11.2058 2.69397 11.0893 2.57743C10.9727 2.46089 10.8242 2.38152 10.6626 2.34937C10.5009 2.31721 10.3334 2.33371 10.1811 2.39679C10.0288 2.45986 9.89868 2.56667 9.80711 2.70371C9.71554 2.84075 9.66667 3.00187 9.66667 3.16669V4.00002H10.5Z" fill="#3C3C3C"/>
</svg>
