<svg xmlns="http://www.w3.org/2000/svg" width="20" height="20" viewBox="0 0 20 20">
  <defs>
    <style>
      .cls-1 {
        fill: #f3f4f9;
        fill-rule: evenodd;
      }
    </style>
  </defs>
  <path id="menu_navigation_grid" class="cls-1" d="M1855.95,722.993h-3a2.973,2.973,0,0,0-2.96,3.01v3a2.956,2.956,0,0,0,2.96,2.99h3A3.032,3.032,0,0,0,1859,729v-3A3.049,3.049,0,0,0,1855.95,722.993Zm1.04,6.009a1.029,1.029,0,0,1-1.04.991h-3a0.954,0.954,0,0,1-.96-0.991v-3a0.971,0.971,0,0,1,.96-1.01h3a1.046,1.046,0,0,1,1.04,1.01v3Zm9.97-6.009h-3A2.973,2.973,0,0,0,1861,726v3a2.956,2.956,0,0,0,2.96,2.99h3a3.032,3.032,0,0,0,3.05-2.99v-3A3.049,3.049,0,0,0,1866.96,722.993Zm1.05,6.009a1.038,1.038,0,0,1-1.05.991h-3A0.961,0.961,0,0,1,1863,729v-3a0.977,0.977,0,0,1,.96-1.01h3a1.055,1.055,0,0,1,1.05,1.01v3Zm-12.06,4.99h-3a2.972,2.972,0,0,0-2.96,3.009v3a2.956,2.956,0,0,0,2.96,2.99h3A3.032,3.032,0,0,0,1859,740v-3A3.049,3.049,0,0,0,1855.95,733.992Zm1.04,6.008a1.029,1.029,0,0,1-1.04.991h-3a0.954,0.954,0,0,1-.96-0.991v-3a0.97,0.97,0,0,1,.96-1.009h3a1.045,1.045,0,0,1,1.04,1.009v3Zm9.97-6.008h-3A2.972,2.972,0,0,0,1861,737v3a2.956,2.956,0,0,0,2.96,2.99h3a3.032,3.032,0,0,0,3.05-2.99v-3A3.049,3.049,0,0,0,1866.96,733.992Zm1.05,6.008a1.038,1.038,0,0,1-1.05.991h-3A0.961,0.961,0,0,1,1863,740v-3a0.977,0.977,0,0,1,.96-1.009h3a1.054,1.054,0,0,1,1.05,1.009v3Z" transform="translate(-1850 -723)"/>
</svg>
