<svg width="36" height="36" viewBox="0 0 36 36" fill="none" xmlns="http://www.w3.org/2000/svg">
<path d="M25.39 25.4501C25.1684 25.3063 24.8988 25.2561 24.6402 25.3104C24.3816 25.3648 24.1551 25.5192 24.01 25.7401C22.6 27.9001 20.01 30.5501 17.7 31.4401C15.39 32.3301 13.58 32.0101 12.86 31.4401C12.55 31.1701 11.74 30.4401 12.43 27.9501C12.89 26.2901 15.75 18.4701 16.43 16.5701L14.25 16.8501C13.56 18.7101 10.96 25.6901 10.49 27.4301C9.81004 29.9201 10.15 31.7301 11.58 32.9901C12.5792 33.6911 13.7803 34.0458 15 34.0001C16.1835 33.983 17.3535 33.7456 18.45 33.3001C21.24 32.2101 24.17 29.1801 25.71 26.8301C25.7799 26.7185 25.827 26.5943 25.8487 26.4645C25.8704 26.3347 25.8663 26.2018 25.8365 26.0736C25.8068 25.9454 25.7521 25.8244 25.6754 25.7173C25.5988 25.6103 25.5018 25.5195 25.39 25.4501Z" fill="#3C3C3C"/>
<path d="M19.3 11C20.1901 11 21.0601 10.7361 21.8001 10.2416C22.5401 9.74715 23.1169 9.04434 23.4575 8.22208C23.7981 7.39981 23.8872 6.49501 23.7136 5.6221C23.5399 4.74918 23.1114 3.94736 22.482 3.31802C21.8527 2.68868 21.0509 2.2601 20.178 2.08647C19.305 1.91283 18.4002 2.00195 17.578 2.34254C16.7557 2.68314 16.0529 3.25991 15.5584 3.99994C15.064 4.73996 14.8 5.60999 14.8 6.5C14.8 7.69348 15.2742 8.83807 16.1181 9.68198C16.962 10.5259 18.1066 11 19.3 11ZM19.3 4C19.7945 4 20.2779 4.14662 20.689 4.42133C21.1001 4.69603 21.4205 5.08648 21.6097 5.54329C21.799 6.00011 21.8485 6.50278 21.752 6.98773C21.6555 7.47268 21.4174 7.91814 21.0678 8.26777C20.7182 8.6174 20.2727 8.8555 19.7878 8.95197C19.3028 9.04843 18.8002 8.99892 18.3433 8.8097C17.8865 8.62048 17.4961 8.30005 17.2214 7.88893C16.9467 7.4778 16.8 6.99446 16.8 6.5C16.8 5.83696 17.0634 5.20108 17.5323 4.73223C18.0011 4.26339 18.637 4 19.3 4Z" fill="#3C3C3C"/>
<path d="M11.8101 15C11.8701 15 18.0801 14.18 19.5401 14C20.1901 13.9 20.6801 14 20.8401 14.15C21.0001 14.3 21.0501 14.95 20.7701 15.83C20.1601 17.69 17.0801 26.83 16.1801 29.54C16.62 29.4498 17.0515 29.3227 17.4701 29.16C17.8704 28.9944 18.2552 28.7936 18.6201 28.56C19.8501 25 22.1501 18.1 22.6701 16.52C23.1901 14.94 23.0601 13.74 22.3701 12.92C21.9764 12.5209 21.4837 12.2337 20.9425 12.0878C20.4012 11.942 19.8309 11.9427 19.2901 12.09C17.8601 12.24 11.8201 13.03 11.5601 13.09C11.2948 13.1245 11.0542 13.2629 10.891 13.4748C10.7279 13.6867 10.6556 13.9548 10.6901 14.22C10.7245 14.4852 10.863 14.7259 11.0749 14.889C11.2868 15.0522 11.5548 15.1245 11.8201 15.09L11.8101 15Z" fill="#3C3C3C"/>
</svg>
