<svg xmlns="http://www.w3.org/2000/svg" width="20" height="20" viewBox="0 0 20 20">
  <defs>
    <style>
      .cls-1 {
        fill: #f3f4f9;
        fill-rule: evenodd;
      }
    </style>
  </defs>
  <path id="leaf" class="cls-1" d="M201.61,82.381a45.344,45.344,0,0,0-5.845-.391c-5.952,0-9.777,1.822-9.777,7.773,0,0.764.087,4.511,0.241,6.579l-3.951,3.95a1,1,0,0,0,1.415,1.415l3.952-3.95c2.068,0.154,5.816.241,6.581,0.241C200.179,98,202,93.175,202,87.223A31.08,31.08,0,0,0,201.61,82.381ZM194.226,96c-0.762,0-2.9-.056-4.686-0.135l3.575-3.573,2.9,1.233a0.928,0.928,0,1,0,.725-1.709l-2.213-.939,2.784-2.784a1,1,0,1,0-1.416-1.415L194.573,88,193.8,86.678a0.968,0.968,0,0,0-1.672.976l1.029,1.761-5.032,5.031c-0.08-1.793-.136-3.922-0.136-4.683,0-3.564,1.3-5.773,7.775-5.773,0.849,0,2.769.079,4.08,0.18,0.089,1.013.154,2.334,0.154,3.053C200,96,195.805,96,194.226,96Z" transform="translate(-182 -82)"/>
</svg>
