<svg width="16" height="22" viewBox="0 0 16 22" fill="none" xmlns="http://www.w3.org/2000/svg">
<path d="M12.4702 0.0935008C12.6047 0.171516 12.7089 0.292862 12.7656 0.437715C12.8223 0.582568 12.8281 0.742365 12.7823 0.891001L10.3059 8.9375H14.875C15.0093 8.93745 15.1407 8.97672 15.2529 9.05046C15.3651 9.1242 15.4532 9.22919 15.5065 9.35246C15.5597 9.47574 15.5757 9.6119 15.5524 9.74415C15.5291 9.87639 15.4676 9.99893 15.3755 10.0966L4.37553 21.7841C4.2691 21.8973 4.12746 21.9711 3.97372 21.9935C3.81997 22.0159 3.66318 21.9855 3.5289 21.9074C3.39462 21.8292 3.29077 21.7079 3.23427 21.5632C3.17777 21.4184 3.17196 21.2588 3.21778 21.1104L5.69416 13.0625H1.12503C0.990754 13.0626 0.859402 13.0233 0.747188 12.9495C0.634974 12.8758 0.546811 12.7708 0.493582 12.6475C0.440353 12.5243 0.424389 12.3881 0.447659 12.2559C0.47093 12.1236 0.532417 12.0011 0.62453 11.9034L11.6245 0.215876C11.7308 0.10285 11.8722 0.0291077 12.0258 0.00664011C12.1793 -0.0158275 12.3359 0.0143007 12.4702 0.0921258V0.0935008Z" fill="#F6E43E"/>
</svg>
