<svg xmlns="http://www.w3.org/2000/svg" width="20" height="20" viewBox="0 0 20 20">
  <defs>
    <style>
      .cls-1 {
        fill: #aca8c3;
        fill-rule: evenodd;
      }
    </style>
  </defs>
  <path id="link_round" class="cls-1" d="M2504.25,2394.32l1.42,1.41-5.96,5.96-1.41-1.41Zm-3.41,10.5a4.02,4.02,0,0,1-5.67,0,4.02,4.02,0,0,1,0-5.67l2.57-2.57-1.42-1.42-2.57,2.57a6.014,6.014,0,1,0,8.51,8.5l2.57-2.56-1.42-1.42Zm9.39-15.06a6.005,6.005,0,0,0-8.5,0l-2.57,2.57,1.41,1.41,2.57-2.56a4.009,4.009,0,0,1,5.67,5.67l-2.57,2.56,1.42,1.42,2.57-2.57A6.005,6.005,0,0,0,2510.23,2389.76Z" transform="translate(-2492 -2388)"/>
</svg>
