<svg xmlns="http://www.w3.org/2000/svg" width="42.875" height="10.438" viewBox="0 0 42.875 10.438">
  <defs>
    <style>
      .cls-1 {
        fill: #04b991;
        fill-rule: evenodd;
      }
    </style>
  </defs>
  <path id="arrow_right_копия_16" data-name="arrow_right копия 16" class="cls-1" d="M591.6,191.535l1.488,1.549a0.516,0.516,0,0,1-.382.873H555.015a0.908,0.908,0,0,0-.87,1.045v-0.009a0.915,0.915,0,0,0,.87,1.054h37.673a0.528,0.528,0,0,1,.378.894l-1.477,1.523a1.031,1.031,0,0,0,.041,1.473l0,0a1.049,1.049,0,0,0,1.47-.044l3.346-3.49a2.076,2.076,0,0,0-.007-2.876l-3.316-3.426a1.049,1.049,0,0,0-1.464-.044l-0.012.011A1.03,1.03,0,0,0,591.6,191.535Z" transform="translate(-554.156 -189.781)"/>
</svg>
