<svg width="260" height="260" viewBox="0 0 260 260" fill="none" xmlns="http://www.w3.org/2000/svg">
<path d="M129.033 1.68262C129.294 0.687984 130.706 0.687985 130.967 1.68262L150.882 77.5066C151.05 78.1465 151.782 78.4498 152.353 78.1161L220.05 38.582C220.938 38.0634 221.937 39.0618 221.418 39.9498L181.884 107.647C181.55 108.218 181.853 108.95 182.493 109.118L258.317 129.033C259.312 129.294 259.312 130.706 258.317 130.967L182.493 150.882C181.853 151.05 181.55 151.782 181.884 152.353L221.418 220.05C221.937 220.938 220.938 221.937 220.05 221.418L152.353 181.884C151.782 181.55 151.05 181.853 150.882 182.493L130.967 258.317C130.706 259.312 129.294 259.312 129.033 258.317L109.118 182.493C108.95 181.853 108.218 181.55 107.647 181.884L39.9498 221.418C39.0618 221.937 38.0634 220.938 38.582 220.05L78.1161 152.353C78.4498 151.782 78.1466 151.05 77.5066 150.882L1.68262 130.967C0.687984 130.706 0.687985 129.294 1.68262 129.033L77.5066 109.118C78.1465 108.95 78.4498 108.218 78.1161 107.647L38.582 39.9498C38.0634 39.0618 39.0618 38.0634 39.9498 38.582L107.647 78.1161C108.218 78.4498 108.95 78.1466 109.118 77.5066L129.033 1.68262Z" fill="#F3F4F9"/>
</svg>
