<svg width="104" height="103" viewBox="0 0 104 103" fill="none" xmlns="http://www.w3.org/2000/svg">
<path opacity="0.4" d="M51.0911 2.98097C51.4477 2.20366 52.5523 2.20366 52.9089 2.98097L59.653 17.68C59.9213 18.2646 60.6637 18.4476 61.1729 18.0546L73.9755 8.17342C74.6525 7.65088 75.6305 8.16418 75.5851 9.01819L74.7257 25.1677C74.6915 25.81 75.2639 26.317 75.8974 26.2057L91.8256 23.406C92.6679 23.258 93.2953 24.167 92.8582 24.902L84.5922 38.8023C84.2635 39.3552 84.5346 40.0702 85.1473 40.266L100.552 45.1891C101.367 45.4495 101.5 46.5459 100.771 46.9937L86.9923 55.4604C86.4442 55.7971 86.3521 56.5562 86.8036 57.0144L98.1559 68.5325C98.7562 69.1417 98.3646 70.1744 97.5113 70.2322L81.376 71.3257C80.7342 71.3692 80.2998 71.9985 80.4867 72.614L85.186 88.0886C85.4345 88.9069 84.6077 89.6393 83.8253 89.294L69.03 82.7638C68.4416 82.5041 67.7645 82.8594 67.644 83.4913L64.6135 99.3771C64.4533 100.217 63.3808 100.482 62.8485 99.8121L52.7827 87.1542C52.3823 86.6508 51.6177 86.6508 51.2173 87.1542L41.1515 99.8121C40.6192 100.482 39.5467 100.217 39.3865 99.3771L36.356 83.4913C36.2355 82.8594 35.5584 82.5041 34.97 82.7638L20.1747 89.294C19.3923 89.6393 18.5655 88.9069 18.8141 88.0886L23.5132 72.614C23.7002 71.9985 23.2658 71.3692 22.624 71.3257L6.48871 70.2322C5.63544 70.1744 5.24378 69.1417 5.84411 68.5325L17.1964 57.0144C17.6479 56.5562 17.5558 55.7971 17.0077 55.4604L3.22882 46.9937C2.50016 46.5459 2.6333 45.4495 3.44793 45.1891L18.8527 40.266C19.4654 40.0702 19.7365 39.3552 19.4078 38.8023L11.1418 24.902C10.7047 24.167 11.3321 23.258 12.1744 23.406L28.1026 26.2057C28.7361 26.317 29.3085 25.81 29.2743 25.1677L28.4149 9.01819C28.3695 8.16418 29.3475 7.65089 30.0245 8.17342L42.8271 18.0546C43.3363 18.4476 44.0788 18.2646 44.347 17.68L51.0911 2.98097Z" stroke="#AABDE3" stroke-width="4" stroke-linejoin="round"/>
</svg>
