<svg width="119" height="90" viewBox="0 0 119 90" fill="none" xmlns="http://www.w3.org/2000/svg">
<path d="M118.601 50.4149C122.567 18.7626 96.0604 1.15468 78.5286 0.106585C57.8662 -0.941505 29.0639 5.34704 25.5158 36.5801C21.9677 67.8132 36.995 81.8576 62.2491 88.3558C87.5033 94.854 114.636 82.0673 118.601 50.4149Z" fill="#E8EFFF"/>
<circle cx="96" cy="48" r="8" fill="#F57968"/>
<ellipse cx="40.5" cy="38" rx="7.5" ry="8" fill="#F57968"/>
<path d="M65.1825 61.7759L28.7824 62.4595C24.1398 62.5467 23.1017 55.9825 27.5447 54.6329L59.1044 45.0461C60.9208 44.7741 65.0986 45.5766 67.2784 50.9627C69.4581 56.3489 66.0907 60.4157 65.1825 61.7759Z" fill="#F35928"/>
<path d="M60 49.9744V58.5475L54.7312 51.4525L52.4731 58.5475L44.4946 53.6697L42.5376 59.2866L37.2688 55.5913L35.914 60.0256L32 57.8085" stroke="#D2522A" stroke-width="1.4359" stroke-linecap="round" stroke-linejoin="round"/>
<circle cx="48.5" cy="29.5" r="4.5" fill="black"/>
<ellipse cx="91.5" cy="37" rx="4.5" ry="5" fill="black"/>
<circle cx="46.5" cy="28.5" r="1.5" fill="white"/>
<circle cx="90.5" cy="35.5" r="1.5" fill="white"/>
</svg>
