<svg width="99" height="99" viewBox="0 0 99 99" fill="none" xmlns="http://www.w3.org/2000/svg">
<path d="M48.5328 2.68262C48.794 1.68799 50.206 1.68799 50.4672 2.68262L57.2822 28.631C57.4503 29.2709 58.1824 29.5742 58.7537 29.2405L81.921 15.7112C82.809 15.1926 83.8074 16.191 83.2888 17.079L69.7595 40.2463C69.4258 40.8176 69.7291 41.5497 70.369 41.7178L96.3174 48.5328C97.312 48.794 97.312 50.206 96.3174 50.4672L70.369 57.2822C69.729 57.4503 69.4258 58.1824 69.7595 58.7537L83.2888 81.921C83.8074 82.809 82.809 83.8074 81.921 83.2888L58.7537 69.7595C58.1824 69.4258 57.4503 69.7291 57.2822 70.369L50.4672 96.3174C50.206 97.312 48.794 97.312 48.5328 96.3174L41.7178 70.369C41.5497 69.729 40.8176 69.4258 40.2463 69.7595L17.079 83.2888C16.191 83.8074 15.1926 82.809 15.7112 81.921L29.2405 58.7537C29.5742 58.1824 29.2709 57.4503 28.631 57.2822L2.68262 50.4672C1.68799 50.206 1.68799 48.794 2.68262 48.5328L28.631 41.7178C29.2709 41.5497 29.5742 40.8176 29.2405 40.2463L15.7112 17.079C15.1926 16.191 16.191 15.1926 17.079 15.7112L40.2463 29.2405C40.8176 29.5742 41.5497 29.2709 41.7178 28.631L48.5328 2.68262Z" stroke="#198E75" stroke-width="3" stroke-linejoin="round"/>
</svg>
