<svg width="71" height="71" viewBox="0 0 71 71" fill="none" xmlns="http://www.w3.org/2000/svg">
<path d="M35.1721 0C35.1721 8.33977 34.4469 28.464 32.6339 29.3705C30.8209 30.277 23.025 23.025 17.5861 17.586C23.025 23.025 30.277 30.6396 29.3705 32.6339C28.464 34.6282 8.33977 35.1721 0 35.1721C8.33977 35.1721 28.464 35.8973 29.3705 37.7103C30.0957 39.5233 23.025 47.3191 17.5861 52.7581C23.025 47.3191 30.8209 40.0672 32.6339 40.9737C34.4469 41.8802 35.1721 62.0044 35.1721 70.3441C35.1721 62.0044 36.2599 41.6989 37.7103 40.9737C39.1607 40.2485 47.3191 47.3191 52.7581 52.7581C47.3191 47.3191 40.0672 39.342 40.7924 37.7103C41.6988 36.0786 61.8231 35.1721 70.1629 35.1721C61.8231 35.1721 41.6988 34.2656 40.7924 32.6339C40.0672 31.0022 47.1378 23.025 52.7581 17.586C47.3191 23.025 39.5233 30.0957 37.7103 29.3705C35.8973 28.6453 35.1721 8.33977 35.1721 0Z" fill="#198E75"/>
</svg>
