<svg width="57" height="58" viewBox="0 0 57 58" fill="none" xmlns="http://www.w3.org/2000/svg">
<path d="M27.5911 2.98097C27.9477 2.20366 29.0523 2.20366 29.4089 2.98097L32.5453 9.81692C32.8136 10.4015 33.556 10.5845 34.0652 10.1915L40.0192 5.59618C40.6962 5.07365 41.6742 5.58694 41.6288 6.44095L41.2291 13.9515C41.195 14.5938 41.7673 15.1008 42.4009 14.9895L49.8084 13.6875C50.6507 13.5394 51.2782 14.4484 50.841 15.1835L46.9969 21.648C46.6681 22.2008 46.9393 22.9158 47.552 23.1116L54.7161 25.4012C55.5307 25.6616 55.6639 26.758 54.9352 27.2058L48.5272 31.1433C47.9791 31.4801 47.887 32.2391 48.3385 32.6973L53.618 38.0539C54.2184 38.663 53.8267 39.6958 52.9734 39.7536L45.4695 40.2622C44.8277 40.3057 44.3934 40.935 44.5803 41.5504L46.7657 48.7471C47.0142 49.5654 46.1874 50.2978 45.405 49.9525L38.5243 46.9156C37.9359 46.6558 37.2588 47.0112 37.1382 47.643L35.7289 55.0309C35.5687 55.871 34.4962 56.1353 33.9639 55.4659L29.2827 49.5792C28.8823 49.0758 28.1177 49.0758 27.7173 49.5792L23.0361 55.4659C22.5038 56.1353 21.4313 55.871 21.2711 55.0309L19.8618 47.643C19.7412 47.0112 19.0641 46.6558 18.4757 46.9156L11.595 49.9525C10.8125 50.2978 9.98581 49.5654 10.2343 48.7471L12.4197 41.5504C12.6066 40.935 12.1723 40.3057 11.5305 40.2622L4.02658 39.7536C3.17331 39.6958 2.78165 38.663 3.38198 38.0539L8.6615 32.6973C9.11303 32.2391 9.02086 31.4801 8.47282 31.1433L2.06477 27.2058C1.33612 26.758 1.46925 25.6616 2.28388 25.4012L9.44804 23.1116C10.0607 22.9158 10.3319 22.2008 10.0031 21.648L6.15896 15.1835C5.72184 14.4484 6.34927 13.5394 7.19158 13.6875L14.5991 14.9895C15.2327 15.1008 15.805 14.5938 15.7709 13.9515L15.3712 6.44096C15.3258 5.58694 16.3038 5.07365 16.9808 5.59618L22.9348 10.1915C23.444 10.5845 24.1864 10.4016 24.4547 9.81692L27.5911 2.98097Z" stroke="#E40175" stroke-width="3" stroke-linejoin="round"/>
</svg>
