<svg width="55" height="55" viewBox="0 0 55 55" fill="none" xmlns="http://www.w3.org/2000/svg">
<path d="M0 27.3762C6.52678 27.3762 22.2998 26.8323 22.8437 25.3819C23.5689 23.9315 17.9486 17.9486 13.5974 13.5974C17.9486 17.9486 23.7502 23.5689 25.3819 22.8437C27.0136 22.1185 27.3762 6.52678 27.3762 0C27.3762 6.52678 27.9201 22.2998 29.3705 22.8437C30.8209 23.3876 36.8037 17.9486 41.1549 13.5974C36.8037 17.9486 31.3648 23.9315 31.9087 25.3819C32.6339 26.8323 48.4069 27.3762 54.7524 27.3762C48.2256 27.3762 32.4526 28.2827 31.9087 29.3705C31.3648 30.4583 36.8037 36.8038 41.1549 41.1549C36.8037 36.8038 30.6396 31.1835 29.3705 31.9087C28.1014 32.6339 27.3762 48.4069 27.3762 54.7524C27.3762 48.2256 26.651 32.4526 25.3819 31.9087C24.1128 31.3648 17.9486 36.8038 13.5974 41.1549C17.9486 36.8038 23.3876 30.8209 22.8437 29.3705C22.2998 27.9201 6.34548 27.3762 0 27.3762Z" fill="#D7D7D8"/>
</svg>
