<svg width="71" height="71" viewBox="0 0 71 71" fill="none" xmlns="http://www.w3.org/2000/svg">
<path d="M0.101329 34.9907C8.4411 34.9907 28.5653 34.2656 29.2905 32.4526C30.197 30.6396 22.945 22.8436 17.506 17.4047C22.945 22.8436 30.5596 30.0956 32.5539 29.1891C34.5482 28.2826 35.0921 8.15845 35.0921 -2.59472e-05C35.0921 8.33975 35.8173 28.4639 37.6303 29.1891C39.4433 29.9143 47.2392 22.8436 52.6781 17.4047C47.2392 22.8436 39.9872 30.6396 40.8937 32.4526C41.8002 34.2656 61.9244 34.9907 70.0828 34.9907C61.7431 34.9907 41.4376 36.0786 40.8937 37.529C40.1685 38.9794 47.2392 47.1378 52.6781 52.5768C47.2392 47.1378 39.262 39.8858 37.6303 40.7923C35.9986 41.6988 35.0921 61.8231 35.0921 70.1628C35.0921 61.8231 34.1856 41.6988 32.5539 40.7923C30.9222 40.0671 22.945 47.1378 17.506 52.5768C22.945 47.1378 30.0157 39.342 29.2905 37.529C28.7466 35.716 8.4411 34.9907 0.101329 34.9907Z" fill="#F6E43E"/>
</svg>
