<svg width="92" height="93" viewBox="0 0 92 93" fill="none" xmlns="http://www.w3.org/2000/svg">
<path d="M-4.18142e-05 46.0001C10.9637 46.0001 37.4196 45.0468 38.373 42.6634C39.5647 40.2799 30.031 30.0311 22.8808 22.8808C30.031 30.0311 40.0414 39.5648 42.6632 38.3731C45.285 37.1814 46 10.7254 46 3.42053e-05C46 10.9638 46.9533 37.4197 49.3368 38.3731C51.7202 39.3265 61.9689 30.0311 69.1192 22.8808C61.9689 30.0311 52.4352 40.2799 53.627 42.6634C54.8187 45.0468 81.2746 46.0001 92 46.0001C81.0363 46.0001 54.342 47.4302 53.627 49.3369C52.6736 51.2437 61.9689 61.969 69.1192 69.1193C61.9689 61.969 51.4818 52.4353 49.3368 53.627C47.1917 54.8188 46 81.2748 46 92.2385C46 81.2748 44.8083 54.8188 42.6632 53.627C40.5181 52.6737 30.031 61.969 22.8808 69.1193C30.031 61.969 39.3264 51.7203 38.373 49.3369C37.658 46.9535 10.9637 46.0001 -4.18142e-05 46.0001Z" fill="white"/>
</svg>
