<svg width="70" height="71" viewBox="0 0 70 71" fill="none" xmlns="http://www.w3.org/2000/svg">
<path d="M1.07042e-05 34.9907C8.33978 34.9907 28.464 34.2656 29.1892 32.4526C30.0957 30.6396 22.8437 22.8436 17.4047 17.4047C22.8437 22.8436 30.4583 30.0956 32.4526 29.1891C34.4469 28.2826 34.9908 8.15845 34.9908 -2.59472e-05C34.9908 8.33975 35.7159 28.4639 37.5289 29.1891C39.3419 29.9143 47.1378 22.8436 52.5768 17.4047C47.1378 22.8436 39.8859 30.6396 40.7924 32.4526C41.6989 34.2656 61.823 34.9907 69.9815 34.9907C61.6417 34.9907 41.3363 36.0786 40.7924 37.529C40.0672 38.9794 47.1378 47.1378 52.5768 52.5768C47.1378 47.1378 39.1606 39.8858 37.5289 40.7923C35.8972 41.6988 34.9908 61.8231 34.9908 70.1628C34.9908 61.8231 34.0843 41.6988 32.4526 40.7923C30.8209 40.0671 22.8437 47.1378 17.4047 52.5768C22.8437 47.1378 29.9144 39.342 29.1892 37.529C28.6453 35.716 8.33978 34.9907 1.07042e-05 34.9907Z" fill="#51ACCD"/>
</svg>
