<svg width="99" height="107" viewBox="0 0 99 107" fill="none" xmlns="http://www.w3.org/2000/svg">
<circle cx="42.0277" cy="64.9286" r="30.5094" transform="rotate(31.9216 42.0277 64.9286)" fill="#F7CE37"/>
<path d="M67.9233 81.0606C59.0137 95.3624 40.1973 99.7336 25.8956 90.8241C17.4869 85.5857 12.5111 76.9228 11.6489 67.7663C15.956 48.6866 19.5857 78.5793 35.9599 82.9113C50.0846 83.3966 63.6695 75.7208 58.1625 55.9069C55.9246 44.9762 63.0936 42.653 65.0336 44.8773C73.6216 54.724 75.191 69.3944 67.9233 81.0606Z" fill="#C09C29"/>
<path d="M35.7554 48.3058C31.3283 44.8142 16.2129 58.8723 21.2118 62.231C26.2107 65.5897 42.0336 53.9286 35.7554 48.3058Z" fill="#EDDA5F"/>
<path d="M44.6329 41.1208C41.901 38.4408 36.2089 42.4751 39.1834 45.5508C42.1579 48.6264 47.8038 43.0962 44.6329 41.1208Z" fill="#EDDA5F"/>
<path fill-rule="evenodd" clip-rule="evenodd" d="M61.0422 29.4354C61.323 27.4469 62.2304 25.041 63.7019 22.6789C66.6718 17.9117 70.8145 15.128 72.9549 16.4614C75.0952 17.7948 74.4228 22.7403 71.453 27.5076C69.9977 29.8437 68.2607 31.7035 66.6158 32.8359C72.2018 38.7878 69.5538 47.8652 64.5564 50.3536C61.392 51.9293 60.8524 50.2691 60.3178 48.624C59.8941 47.3204 59.4736 46.0264 57.7526 46.3596C55.8896 46.7203 55.2158 47.1497 54.7826 46.9767C54.3105 46.7882 54.1241 45.8843 52.9962 43.3965C51.9703 41.1336 50.9183 41.3852 49.8367 41.6438C48.6379 41.9304 47.4027 42.2257 46.126 39.1166C43.9668 33.8582 53.1961 27.3833 61.0422 29.4354ZM65.53 31.8088C65.0329 31.3902 64.487 30.9928 63.8896 30.6206C63.4216 30.343 62.9414 30.1055 62.4523 29.9053C62.4413 28.1985 63.2533 25.7542 64.7589 23.3374C67.1227 19.543 70.3008 17.2533 71.8574 18.223C73.4141 19.1928 72.7598 23.0548 70.396 26.8491C68.8945 29.2594 67.0644 31.0625 65.53 31.8088Z" fill="#7A4F3B"/>
<path d="M49.9609 41.7969C50.0517 41.6963 50.4165 41.2569 51.1652 40.0551C53.6019 36.1437 55.5489 44.0087 57.6622 42.5795C62.7401 41.8863 62.8513 46.6954 63.8692 46.7467C69.5082 47.0305 68.1623 42.8835 63.8894 30.6205C72.8735 36.2174 70.228 47.5292 64.5562 50.3535C58.8843 53.1778 61.6452 45.6058 57.7524 46.3594C53.8595 47.1131 55.159 48.1672 52.996 43.3964C51.6282 40.3794 50.161 41.6032 49.9609 41.7969C49.9294 41.8318 49.931 41.8259 49.9609 41.7969Z" fill="#66422E"/>
<path d="M59.9146 31.0755C57.7978 27.8006 48.1464 32.3027 49.2726 35.205C50.3989 38.1074 61.0409 33.9778 59.9146 31.0755Z" fill="#AF795E"/>
</svg>
