<svg width="21" height="20" viewBox="0 0 21 20" xmlns="http://www.w3.org/2000/svg">
<path d="M19.875 20C17.275 20 14.8293 19.5083 12.538 18.525C10.246 17.5417 8.24595 16.196 6.53795 14.488C4.82929 12.7793 3.47929 10.7793 2.48795 8.488C1.49595 6.196 0.999955 3.74167 0.999955 1.125C0.983288 0.825 1.08329 0.562333 1.29995 0.337C1.51662 0.112333 1.78329 0 2.09995 0H5.99995C6.29995 0 6.55829 0.112333 6.77495 0.337C6.99162 0.562333 7.09996 0.833333 7.09996 1.15C7.09996 1.88333 7.14995 2.575 7.24995 3.225C7.34995 3.875 7.50829 4.49167 7.72496 5.075C7.80829 5.25833 7.82495 5.44567 7.77495 5.637C7.72495 5.829 7.62496 6.00833 7.47496 6.175L4.97495 8.675C5.69162 10.1417 6.70829 11.5333 8.02495 12.85C9.34162 14.1667 10.7583 15.2167 12.275 16L14.775 13.5C14.925 13.35 15.1 13.25 15.3 13.2C15.5 13.15 15.7 13.1667 15.9 13.25C16.5166 13.45 17.154 13.604 17.812 13.712C18.4706 13.8207 19.15 13.875 19.85 13.875C20.1666 13.875 20.4376 13.9917 20.663 14.225C20.8876 14.4583 21 14.7417 21 15.075V18.9C21 19.2 20.8916 19.4583 20.675 19.675C20.4583 19.8917 20.1916 20 19.875 20ZM19 10C19 7.76667 18.225 5.875 16.675 4.325C15.125 2.775 13.2333 2 11 2V0C12.3833 0 13.6833 0.262333 14.9 0.787C16.1166 1.31233 17.175 2.025 18.075 2.925C18.975 3.825 19.6873 4.88333 20.212 6.1C20.7373 7.31667 21 8.61667 21 10H19ZM15 10C15 8.9 14.6083 7.95833 13.825 7.175C13.0416 6.39167 12.1 6 11 6V4C12.6666 4 14.0833 4.58333 15.25 5.75C16.4166 6.91667 17 8.33333 17 10H15Z"/>
</svg>
