<svg width="37" height="37" viewBox="0 0 37 37" fill="none" xmlns="http://www.w3.org/2000/svg">
<path d="M36.8333 2.46521C36.8608 22.0154 21.8458 36.854 2.46521 36.8333C1.19792 36.8333 0.166668 35.8067 0.166668 34.5417L0.166668 28.4917C0.166668 27.3573 1.00083 26.3925 2.12375 26.2252C4.81658 25.8262 7.43823 25.0429 9.90854 23.8992L10.4173 23.6631C10.7596 23.5046 11.1466 23.4705 11.5114 23.5667C11.8762 23.6629 12.196 23.8834 12.4156 24.1902C13.754 26.0648 16.4467 26.7798 18.5458 25.32C21.1813 23.489 23.4913 21.1813 25.3223 18.5458C26.7798 16.4444 26.0648 13.7517 24.1925 12.4156C23.8848 12.1962 23.6635 11.8762 23.5668 11.5108C23.4701 11.1455 23.5042 10.7579 23.6631 10.415L23.8969 9.90855C25.0427 7.43813 25.8265 4.81646 26.2252 2.12376C26.3925 1.00084 27.3573 0.166672 28.494 0.166671L34.5417 0.166671C34.8428 0.166671 35.141 0.226024 35.4192 0.341335C35.6974 0.456645 35.9501 0.625652 36.1629 0.838699C36.3758 1.05174 36.5445 1.30464 36.6596 1.58294C36.7746 1.86125 36.8336 2.15949 36.8333 2.46063L36.8333 2.46521Z" fill="#353535"/>
</svg>
