<svg xmlns="http://www.w3.org/2000/svg" width="22.5" height="22.469" viewBox="0 0 22.5 22.469">
  <defs>
    <style>
      .cls-1 {
        fill: #aca8c3;
        fill-rule: evenodd;
      }
    </style>
  </defs>
  <path id="call" class="cls-1" d="M576.081,35.513c-0.7,2.11-3.418,3.163-5.363,2.988a17.109,17.109,0,0,1-7.741-3.2,25.491,25.491,0,0,1-8.007-9.552c-1.245-2.644-1.523-5.9.329-8.308a3.172,3.172,0,0,1,2.535-1.422c1.542-.075,1.759.807,2.287,2.182,0.4,1.027.923,2.075,1.218,3.141,0.55,1.988-1.375,2.069-1.618,3.7-0.153,1.024,1.091,2.4,1.652,3.13a15.161,15.161,0,0,0,3.914,3.6c0.854,0.538,2.234,1.509,3.213.973,1.5-.824,1.362-3.365,3.471-2.5a34.287,34.287,0,0,1,3.189,1.645c1.61,0.866,1.535,1.763.921,3.627C575.622,36.9,576.539,34.12,576.081,35.513Z" transform="translate(-553.969 -16.031)"/>
</svg>
