<?xml version="1.0" encoding="utf-8"?>
<!-- Generator: Adobe Illustrator 19.0.1, SVG Export Plug-In . SVG Version: 6.00 Build 0)  -->
<svg version="1.1" id="Слой_1" xmlns="http://www.w3.org/2000/svg" xmlns:xlink="http://www.w3.org/1999/xlink" x="0px" y="0px"
	 viewBox="0 0 42 42" style="enable-background:new 0 0 42 42;" xml:space="preserve">
<g>
	<circle class="st0" cx="21" cy="21" r="21" fill="#F6E43E"/>
	<g>
		<g>
			<path class="st1" d="M21,5C12.2,5,5,12.2,5,21s7.2,16,16,16s16-7.2,16-16S29.8,5,21,5z M27.4,21.6l-9.3,6
				c-0.1,0.1-0.3,0.1-0.3,0.1s-0.3,0-0.3-0.1C17.1,27.5,17,27.2,17,27V15c0-0.3,0.2-0.5,0.3-0.6c0.3-0.1,0.5-0.1,0.7,0l9.3,6
				c0.2,0.1,0.3,0.3,0.3,0.6C27.7,21.3,27.6,21.4,27.4,21.6z" fill="#3C3C3C"/>
		</g>
	</g>
</g>
</svg>
