<svg xmlns="http://www.w3.org/2000/svg" width="192.937" height="142.094" viewBox="0 0 192.937 142.094">
  <defs>
    <style>
      .cls-1 {
        fill: #f3f4f9;
        fill-rule: evenodd;
      }
    </style>
  </defs>
  <path id="reviews-bgr" class="cls-1" d="M598.114,60.147L615.529,1.285H566.768l-24.381,51.9q-8.71,18.465-11.146,27.515A69.367,69.367,0,0,0,528.8,98.808q0,20.2,12.887,32.392t33.088,12.19q20.2,0,33.088-12.19t12.887-32.392q0-13.584-5.921-23.51a38.537,38.537,0,0,0-16.718-15.151h0Zm101.006,0L716.535,1.285H667.773l-24.38,51.9Q634.683,71.647,632.247,80.7a69.367,69.367,0,0,0-2.438,18.111q0,20.2,12.887,32.392t33.088,12.19q20.2,0,33.088-12.19t12.887-32.392q0-13.584-5.921-23.51A38.543,38.543,0,0,0,699.12,60.147h0Z" transform="translate(-528.813 -1.281)"/>
</svg>
