<svg width="25" height="25" viewBox="0 0 25 25" fill="none" xmlns="http://www.w3.org/2000/svg">
<path d="M23.7458 3.92744L22.1485 5.17637C19.9707 2.39248 16.5836 0.605469 12.7801 0.605469C6.21266 0.605469 0.896934 5.91553 0.888438 12.4858C0.879942 19.0618 6.20699 24.3945 12.7801 24.3945C17.9146 24.3945 22.2901 21.1377 23.9553 16.5753C23.9978 16.4563 23.9355 16.3232 23.8166 16.2836L22.2108 15.7313C22.1548 15.7122 22.0935 15.7156 22.0401 15.741C21.9866 15.7664 21.9452 15.8118 21.9248 15.8673C21.8738 16.0089 21.8172 16.1505 21.7577 16.2893C21.2677 17.4504 20.5654 18.4926 19.6705 19.3875C18.7828 20.2769 17.7317 20.9865 16.5751 21.4775C15.3771 21.9845 14.0999 22.2422 12.7858 22.2422C11.4689 22.2422 10.1945 21.9845 8.99654 21.4775C7.83874 20.9886 6.78733 20.2787 5.90113 19.3875C5.01103 18.4999 4.30212 17.4476 3.81393 16.2893C3.30699 15.0885 3.04928 13.8141 3.04928 12.4972C3.04928 11.1803 3.30699 9.90586 3.81393 8.70508C4.30387 7.54395 5.00621 6.50176 5.90113 5.60684C6.79606 4.71191 7.83824 4.00957 8.99654 3.5168C10.1945 3.00986 11.4717 2.75215 12.7858 2.75215C14.1027 2.75215 15.3771 3.00986 16.5751 3.5168C17.7329 4.00573 18.7843 4.71565 19.6705 5.60684C19.9508 5.88721 20.2142 6.18457 20.4578 6.49609L18.7529 7.82715C18.7192 7.85324 18.6935 7.88833 18.6788 7.92837C18.6641 7.96841 18.661 8.01179 18.6699 8.0535C18.6788 8.09521 18.6993 8.13357 18.729 8.16417C18.7587 8.19477 18.7964 8.21636 18.8379 8.22647L23.8109 9.44424C23.9525 9.47822 24.0913 9.37061 24.0913 9.22617L24.1139 4.10303C24.1111 3.91611 23.893 3.81133 23.7458 3.92744Z" fill="black"/>
</svg>
