<svg version="1.1" id="Слой_1" xmlns="http://www.w3.org/2000/svg" xmlns:xlink="http://www.w3.org/1999/xlink" x="0px" y="0px"
	 viewBox="0 0 128 120" style="enable-background:new 0 0 128 120;" xml:space="preserve">
<path class="st0" d="M26.6,0.5c0.1,0.1,0.3,0.1,0.4,0.2c3.5,1.7,5,5.9,3.3,9.3L18,35.7l44.7,0.9c2.4,0.1,4.5,1.3,5.8,3.3
	c1.3,2,1.4,4.5,0.4,6.6L57.8,70.8l61.7-10.6c2.7-0.5,5.3,0.7,6.9,2.9c1.6,2.2,1.7,5.1,0.4,7.5l-25.2,45.2c-1.9,3.4-6.2,4.6-9.5,2.7
	c-3.4-1.9-4.6-6.1-2.7-9.5l18.1-32.4L47.1,86.8c-2.6,0.4-5.2-0.6-6.7-2.6c-1.6-2.1-1.9-4.8-0.8-7.2l12.2-26.6L6.9,49.5
	c-2.4,0-4.6-1.3-5.8-3.3c-1.2-2-1.4-4.5-0.3-6.7L17.7,4C19.3,0.6,23.2-0.9,26.6,0.5z"/>
</svg>
