<svg xmlns="http://www.w3.org/2000/svg" width="20" height="20" viewBox="0 0 20 20">
  <defs>
    <style>
      .cls-1 {
        fill: #aca8c3;
        fill-rule: evenodd;
      }
    </style>
  </defs>
  <path id="share" class="cls-1" d="M2301,1243.88a3.967,3.967,0,0,0-3.03,1.42l-5.01-2.89a3.991,3.991,0,1,0-.71,1.9l4.83,2.78a3.8,3.8,0,0,0,.01,1.61l-4.95,2.85a3.983,3.983,0,1,0,.8,1.84l5.05-2.9A3.993,3.993,0,1,0,2301,1243.88Zm-12.01.12a2,2,0,1,1,0-3.99A2,2,0,0,1,2288.99,1244Zm0,11.99a2,2,0,1,1,0-3.99A2,2,0,0,1,2288.99,1255.99Zm12.01-6.12a2,2,0,1,1,2-2A2,2,0,0,1,2301,1249.87Z" transform="translate(-2285 -1238)"/>
</svg>
