<svg xmlns="http://www.w3.org/2000/svg" width="18.031" height="18" viewBox="0 0 18.031 18">
  <defs>
    <style>
      .cls-1 {
        fill: #f3f4f9;
        fill-rule: evenodd;
      }
    </style>
  </defs>
  <path id="star_favorite" class="cls-1" d="M765.513,395.492a1.716,1.716,0,0,0-.9-2.9l-3.4-.514a1.635,1.635,0,0,1-1.228-.928l-1.521-3.206a1.6,1.6,0,0,0-2.925,0l-1.521,3.206a1.635,1.635,0,0,1-1.228.928l-3.4.514a1.716,1.716,0,0,0-.9,2.9l2.46,2.5a1.737,1.737,0,0,1,.469,1.5l-0.58,3.523A1.681,1.681,0,0,0,752.438,405a1.572,1.572,0,0,0,.759-0.2l3.042-1.663a1.566,1.566,0,0,1,1.517,0L760.8,404.8a1.558,1.558,0,0,0,.759.2,1.68,1.68,0,0,0,1.607-1.988l-0.581-3.523a1.741,1.741,0,0,1,.47-1.5Zm-3.98.873a4.064,4.064,0,0,0-1.1,3.507l0.394,2.39-2.063-1.129a3.676,3.676,0,0,0-3.543,0l-2.064,1.129,0.395-2.39a4.061,4.061,0,0,0-1.1-3.507l-1.669-1.692,2.307-.349a3.821,3.821,0,0,0,2.867-2.167L757,389.982l1.032,2.175a3.821,3.821,0,0,0,2.867,2.167l2.306,0.349Z" transform="translate(-747.969 -387)"/>
</svg>
