<svg width="47" height="44" viewBox="0 0 47 44" fill="none" xmlns="http://www.w3.org/2000/svg">
<path d="M29.6886 34.3809C29.6886 34.7457 29.5437 35.0955 29.2858 35.3534C29.0279 35.6113 28.6781 35.7562 28.3134 35.7562H9.06002C8.75747 35.7562 8.46867 36.0312 8.22113 36.21L3.55907 39.8819V17.8781C3.55907 17.5134 3.70396 17.1636 3.96187 16.9057C4.21978 16.6477 4.56957 16.5029 4.93431 16.5029H10.2427V13.7524H4.93431C3.8401 13.7524 2.79071 14.1871 2.01699 14.9608C1.24327 15.7345 0.808594 16.7839 0.808594 17.8781V42.6324C0.810641 42.8878 0.883774 43.1376 1.0198 43.3538C1.15582 43.5699 1.34936 43.744 1.57873 43.8563C1.7997 43.9568 2.04333 43.997 2.28488 43.9729C2.52642 43.9487 2.75727 43.8611 2.95396 43.7188L10.0364 38.5067H28.5196C29.0409 38.5221 29.5597 38.4303 30.044 38.237C30.5283 38.0438 30.9678 37.7532 31.3353 37.3831C31.7027 37.0131 31.9903 36.5716 32.1801 36.086C32.37 35.6003 32.4581 35.0808 32.4391 34.5597V33.0057H29.6886V34.3809Z" fill="white"/>
<path d="M42.0657 16.8054V30.1727L37.2524 26.4183C37.0123 26.232 36.7174 26.1305 36.4135 26.1295H17.3114C16.9467 26.1295 16.5969 25.9846 16.339 25.7267C16.0811 25.4688 15.9362 25.119 15.9362 24.7543V8.25142C15.9362 7.88668 16.0811 7.53688 16.339 7.27898C16.5969 7.02107 16.9467 6.87618 17.3114 6.87618H29.001C29.0046 5.94617 29.1341 5.02094 29.386 4.1257H17.3114C16.2172 4.1257 15.1678 4.56037 14.3941 5.3341C13.6204 6.10782 13.1857 7.15721 13.1857 8.25142V24.7543C13.1857 25.8485 13.6204 26.8979 14.3941 27.6716C15.1678 28.4453 16.2172 28.88 17.3114 28.88H35.9459L42.5196 33.9821C42.715 34.1266 42.9452 34.2167 43.1868 34.2433C43.4283 34.2699 43.6726 34.2319 43.8948 34.1334C44.1288 34.0219 44.3266 33.8466 44.4653 33.6276C44.604 33.4086 44.6779 33.1549 44.6787 32.8957V15.6364C43.8667 16.1464 42.9871 16.5399 42.0657 16.8054Z" fill="white"/>
<path d="M39.3152 13.7524C43.1128 13.7524 46.1914 10.6738 46.1914 6.87619C46.1914 3.07857 43.1128 0 39.3152 0C35.5176 0 32.439 3.07857 32.439 6.87619C32.439 10.6738 35.5176 13.7524 39.3152 13.7524Z" fill="#E30175"/>
</svg>
