<svg xmlns="http://www.w3.org/2000/svg" width="17.5" height="17.5" viewBox="0 0 17.5 17.5">
  <defs>
    <style>
      .cls-1 {
        fill: #f3f4f9;
        fill-rule: evenodd;
      }
    </style>
  </defs>
  <path id="shaded" class="cls-1" d="M1126.75,428.663a8.664,8.664,0,0,0-.31-2.173,8.461,8.461,0,0,0-.68-1.783,8.722,8.722,0,0,0-3.71-3.709,8.839,8.839,0,0,0-1.79-.689,8.656,8.656,0,0,0-2.17-.3c-0.03,0-.06,0-0.08,0a8.747,8.747,0,0,0-8.75,8.741c0,0.028.01,0.056,0.01,0.083a8.206,8.206,0,0,0,.3,2.172,7.966,7.966,0,0,0,.69,1.784,8.138,8.138,0,0,0,.98,1.492,8.816,8.816,0,0,0,1.23,1.236,8.479,8.479,0,0,0,1.5.981,8.752,8.752,0,0,0,1.78.689,8.656,8.656,0,0,0,2.17.3c0.03,0,.06,0,0.09,0a8.745,8.745,0,0,0,8.74-8.741v-0.083Zm-10.68-6.63-4.78,4.773A7.025,7.025,0,0,1,1116.07,422.033Zm-4.5,9.443a6.808,6.808,0,0,1-.51-1.963l7.71-7.716a7.023,7.023,0,0,1,1.97.511Zm2.15,2.787a7.088,7.088,0,0,1-1.23-1.236l9.8-9.8a6.794,6.794,0,0,1,1.23,1.237Zm6.23,1.2,4.77-4.773A7.013,7.013,0,0,1,1119.95,435.459Zm-2.71.236a6.9,6.9,0,0,1-1.96-.511l9.17-9.167a7.123,7.123,0,0,1,.51,1.961Z" transform="translate(-1109.25 -420)"/>
</svg>
