<svg xmlns="http://www.w3.org/2000/svg" width="15.75" height="17.5" viewBox="0 0 15.75 17.5">
  <defs>
    <style>
      .cls-1 {
        fill: #f3f4f9;
        fill-rule: evenodd;
      }
    </style>
  </defs>
  <path id="thermometer" class="cls-1" d="M1124.12,396.645v-7.89a1.747,1.747,0,0,0-1.75-1.749h-1.75a1.754,1.754,0,0,0-1.75,1.749v7.89A4.375,4.375,0,1,0,1124.12,396.645Zm-3.5-7.015a0.875,0.875,0,1,1,1.75,0V390.5h-1.75V389.63Zm0,2.623h1.75V394h-1.75v-1.749Zm0.88,10.494a2.616,2.616,0,0,1-.88-5.085v-1.911h1.75v1.911A2.616,2.616,0,0,1,1121.5,402.747Zm-7.87-13.992h-1.75a1.754,1.754,0,0,0-1.75,1.749v1.749a1.754,1.754,0,0,0,1.75,1.749h1.75a1.747,1.747,0,0,0,1.75-1.749V390.5A1.748,1.748,0,0,0,1113.63,388.755Zm-0.87,3.5a0.875,0.875,0,1,1,.87-0.875A0.874,0.874,0,0,1,1112.76,392.253Z" transform="translate(-1110.13 -387)"/>
</svg>
