<svg width="87" height="87" viewBox="0 0 87 87" fill="none" xmlns="http://www.w3.org/2000/svg">
<path d="M79.2295 48.7149C80.7197 46.1916 81.5625 43.5 81.5625 40.246C81.5625 32.7669 75.2383 25.7041 66.9798 25.7041H60.7811C61.6171 23.5274 62.2849 20.9242 62.2849 17.7959C62.2849 5.42663 55.8805 0 46.0964 0C35.628 0 36.2251 16.1312 33.9028 18.4535C30.0376 22.3187 25.4721 29.7443 22.219 32.625H5.4375C2.43447 32.625 0 35.0595 0 38.0625V78.8438C0 81.8468 2.43447 84.2812 5.4375 84.2812H16.3125C18.8431 84.2812 20.9697 82.5525 21.5763 80.2116C29.1394 80.3817 34.3307 86.9983 51.7888 86.9983C53.0156 86.9983 54.375 87 55.5645 87C68.6683 87 74.5933 80.3012 74.7554 70.8014C77.0186 67.6705 78.2047 63.474 77.7019 59.4183C79.3763 56.2829 80.0237 52.5631 79.2295 48.7149ZM68.7368 57.8618C70.871 61.4522 68.9509 66.2576 66.3681 67.6442C67.6765 75.933 63.3761 78.842 57.3418 78.842H50.9154C38.7424 78.842 30.8597 72.4156 21.75 72.4156V40.7812H23.6055C28.4245 40.7812 35.1568 28.7355 39.67 24.2207C44.4889 19.4017 42.8832 11.3695 46.0964 8.15625C54.1286 8.15625 54.1286 13.7603 54.1286 17.7959C54.1286 24.4518 49.3096 27.4339 49.3096 33.8603H66.9798C70.5669 33.8603 73.391 37.0736 73.4062 40.2868C73.4215 43.4983 71.2279 46.7115 69.6221 46.7115C71.9142 49.1847 72.4039 54.3981 68.7368 57.8618ZM14.9531 73.4062C14.9531 75.6586 13.1273 77.4844 10.875 77.4844C8.62269 77.4844 6.79688 75.6586 6.79688 73.4062C6.79688 71.1539 8.62269 69.3281 10.875 69.3281C13.1273 69.3281 14.9531 71.1539 14.9531 73.4062Z" fill="#04B891"/>
</svg>
