<svg width="20" height="20" viewBox="0 0 20 20" fill="none" xmlns="http://www.w3.org/2000/svg">
<path d="M9.99935 1.66675C8.35118 1.66675 6.74001 2.15549 5.3696 3.07117C3.99919 3.98685 2.93109 5.28833 2.30036 6.81105C1.66963 8.33377 1.5046 10.0093 1.82614 11.6258C2.14769 13.2423 2.94136 14.7272 4.1068 15.8926C5.27223 17.0581 6.75709 17.8517 8.3736 18.1733C9.99011 18.4948 11.6657 18.3298 13.1884 17.6991C14.7111 17.0683 16.0126 16.0002 16.9283 14.6298C17.8439 13.2594 18.3327 11.6483 18.3327 10.0001C18.3327 8.90573 18.1171 7.8221 17.6983 6.81105C17.2796 5.8 16.6657 4.88135 15.8919 4.10752C15.1181 3.3337 14.1994 2.71987 13.1884 2.30109C12.1773 1.8823 11.0937 1.66675 9.99935 1.66675ZM9.99935 15.0001C9.83453 15.0001 9.67342 14.9512 9.53638 14.8596C9.39934 14.7681 9.29253 14.6379 9.22945 14.4856C9.16638 14.3334 9.14988 14.1658 9.18203 14.0042C9.21419 13.8425 9.29355 13.694 9.4101 13.5775C9.52664 13.4609 9.67513 13.3816 9.83678 13.3494C9.99843 13.3173 10.166 13.3338 10.3183 13.3968C10.4705 13.4599 10.6007 13.5667 10.6922 13.7038C10.7838 13.8408 10.8327 14.0019 10.8327 14.1667C10.8327 14.3878 10.7449 14.5997 10.5886 14.756C10.4323 14.9123 10.2204 15.0001 9.99935 15.0001ZM10.8327 10.7001V11.6667C10.8327 11.8878 10.7449 12.0997 10.5886 12.256C10.4323 12.4123 10.2204 12.5001 9.99935 12.5001C9.77834 12.5001 9.56638 12.4123 9.4101 12.256C9.25382 12.0997 9.16602 11.8878 9.16602 11.6667V10.0001C9.16602 9.77907 9.25382 9.5671 9.4101 9.41082C9.56638 9.25454 9.77834 9.16675 9.99935 9.16675C10.2466 9.16675 10.4883 9.09344 10.6938 8.95608C10.8994 8.81873 11.0596 8.62351 11.1542 8.3951C11.2488 8.16669 11.2736 7.91536 11.2253 7.67288C11.1771 7.43041 11.0581 7.20768 10.8832 7.03286C10.7084 6.85805 10.4857 6.739 10.2432 6.69076C10.0007 6.64253 9.74941 6.66729 9.521 6.7619C9.29259 6.85651 9.09737 7.01672 8.96002 7.22228C8.82266 7.42785 8.74935 7.66952 8.74935 7.91675C8.74935 8.13776 8.66156 8.34972 8.50527 8.506C8.34899 8.66228 8.13703 8.75008 7.91602 8.75008C7.69501 8.75008 7.48304 8.66228 7.32676 8.506C7.17048 8.34972 7.08269 8.13776 7.08269 7.91675C7.08051 7.37533 7.22907 6.844 7.51174 6.38223C7.79441 5.92046 8.20004 5.54648 8.6832 5.30217C9.16636 5.05786 9.70799 4.95285 10.2474 4.99891C10.7869 5.04497 11.3029 5.24027 11.7376 5.56295C12.1724 5.88564 12.5088 6.32296 12.7091 6.82597C12.9094 7.32897 12.9657 7.87781 12.8718 8.41101C12.7778 8.94422 12.5373 9.44076 12.1772 9.84504C11.8171 10.2493 11.3515 10.5454 10.8327 10.7001Z" fill="#DCDCDC"/>
</svg>
