<svg xmlns="http://www.w3.org/2000/svg" width="20" height="20.031" viewBox="0 0 20 20.031">
  <defs>
    <style>
      .cls-1 {
        fill: #f3f4f9;
        fill-rule: evenodd;
      }
    </style>
  </defs>
  <path id="umbrella_round" class="cls-1" d="M192.53,124.011c-0.081,0-.161-0.01-0.243-0.012-0.1,0-.192-0.015-0.29-0.015s-0.182.012-.274,0.014-0.182.009-.274,0.014a10,10,0,0,0-9.46,9.981,6.4,6.4,0,0,0,.051,1H191v6a1,1,0,1,1-2,0v-1a1,1,0,0,0-1-1h0a1,1,0,0,0-1,1v2a2,2,0,0,0,2,2h2a2,2,0,0,0,2-2V135h8.956a6.272,6.272,0,0,0,.051-1A10,10,0,0,0,192.53,124.011Zm-5.044,8.981H184.06a8.236,8.236,0,0,1,5.624-6.663A16.526,16.526,0,0,0,187.486,132.992Zm5.512,0h-3.509a14.209,14.209,0,0,1,2.5-6.5,14.219,14.219,0,0,1,2.512,6.5H193Zm3.509,0a16.539,16.539,0,0,0-2.207-6.665,8.24,8.24,0,0,1,5.634,6.665h-3.427Z" transform="translate(-182 -123.969)"/>
</svg>
