<svg  viewBox="-48 0 496 496"  xmlns="http://www.w3.org/2000/svg"><path d="m104 256h192c4.425781 0 8-3.585938 8-8v-144c0-57.34375-46.65625-104-104-104s-104 46.65625-104 104v144c0 4.414062 3.574219 8 8 8zm8-152c0-48.519531 39.480469-88 88-88s88 39.480469 88 88v136h-176zm0 0"/><path d="m376 144h-48c-4.425781 0-8 3.585938-8 8v120h-240v-120c0-4.414062-3.574219-8-8-8h-48c-13.230469 0-24 10.769531-24 24s10.769531 24 24 24h8v96c0 17.648438 14.351562 32 32 32h100.6875l-98.34375 98.34375c-2.289062 2.289062-2.976562 5.726562-1.734375 8.71875 1.230469 2.984375 4.160156 4.9375 7.390625 4.9375h16v17.472656c-9.289062 3.3125-16 12.113282-16 22.527344 0 13.230469 10.769531 24 24 24s24-10.769531 24-24c0-10.414062-6.710938-19.214844-16-22.527344v-17.472656h8c2.128906 0 4.160156-.839844 5.65625-2.34375l58.34375-58.34375v52.6875c0 4.414062 3.574219 8 8 8h8v17.472656c-9.289062 3.3125-16 12.113282-16 22.527344 0 13.230469 10.769531 24 24 24s24-10.769531 24-24c0-10.414062-6.710938-19.214844-16-22.527344v-17.472656h8c4.425781 0 8-3.585938 8-8v-52.6875l58.34375 58.34375c1.496094 1.503906 3.527344 2.34375 5.65625 2.34375h8v17.472656c-9.289062 3.3125-16 12.113282-16 22.527344 0 13.230469 10.769531 24 24 24s24-10.769531 24-24c0-10.414062-6.710938-19.214844-16-22.527344v-17.472656h16c3.230469 0 6.160156-1.953125 7.390625-4.9375 1.242187-2.992188.554687-6.429688-1.734375-8.71875l-98.34375-98.34375h100.6875c17.648438 0 32-14.351562 32-32v-96h8c13.230469 0 24-10.769531 24-24s-10.769531-24-24-24zm-280 336c-4.414062 0-8-3.59375-8-8s3.585938-8 8-8 8 3.59375 8 8-3.585938 8-8 8zm104 0c-4.414062 0-8-3.59375-8-8s3.585938-8 8-8 8 3.59375 8 8-3.585938 8-8 8zm104 0c-4.414062 0-8-3.59375-8-8s3.585938-8 8-8 8 3.59375 8 8-3.585938 8-8 8zm-288-312c0-4.40625 3.585938-8 8-8h40v16h-40c-4.414062 0-8-3.59375-8-8zm92.6875 248h-17.375l84.6875-84.6875v17.375zm99.3125 0h-16v-96h16zm83.3125 0-67.3125-67.3125v-17.375l84.6875 84.6875zm60.6875-128c0 8.824219-7.175781 16-16 16h-272c-8.824219 0-16-7.175781-16-16v-96h16v88c0 4.414062 3.574219 8 8 8h256c4.425781 0 8-3.585938 8-8v-88h16zm24-112h-40v-16h40c4.414062 0 8 3.59375 8 8s-3.585938 8-8 8zm0 0"/><path d="m192 192h16v16h-16zm0 0"/><path d="m200 32c-30.871094 0-56 25.121094-56 56v16h16v-16c0-22.054688 17.945312-40 40-40s40 17.945312 40 40-17.945312 40-40 40c-4.425781 0-8 3.585938-8 8v40h16v-32.566406c27.105469-3.898438 48-27.265625 48-55.433594 0-30.878906-25.128906-56-56-56zm0 0"/></svg>