<svg width="64" height="64" viewBox="0 0 64 64" fill="none" xmlns="http://www.w3.org/2000/svg">
<path d="M48 0H16C7.16344 0 0 7.16344 0 16V48C0 56.8366 7.16344 64 16 64H48C56.8366 64 64 56.8366 64 48V16C64 7.16344 56.8366 0 48 0Z" fill="#ACA8C3"/>
<path fill-rule="evenodd" clip-rule="evenodd" d="M32.0252 16C31.9472 22.2846 31.5186 25.8169 29.1635 28.174C26.8084 30.5312 23.2792 30.9602 17 31.0382V31.9674C23.2792 32.0455 26.8084 32.4745 29.1635 34.8316C31.5186 37.1887 31.9472 40.721 32.0252 47.0056H32.9536C33.0316 40.721 33.4602 37.1887 35.8153 34.8316C38.1704 32.4745 41.6996 32.0455 47.9788 31.9674V31.0382C41.6996 30.9601 38.1704 30.5312 35.8153 28.174C33.4602 25.8169 33.0316 22.2846 32.9536 16H32.0252Z" fill="white"/>
</svg>
