<svg id="zoom" xmlns="http://www.w3.org/2000/svg" width="59" height="59" viewBox="0 0 59 59">
  <!-- <circle id="Эллипс_775_копия" data-name="Эллипс 775 копия" cx="29.5" cy="29.5" r="29.5" fill="#fff" opacity="0.5"/> -->
  <path id="zoom_in_копия" data-name="zoom_in копия" d="M857,967A8.024,8.024,0,1,0,865,975.025,8.016,8.016,0,0,0,857,967Zm0,14.041A6.018,6.018,0,1,1,863,975.025,6.02,6.02,0,0,1,857,981.043Zm12.013,4.548-1.416,1.419-4.247-4.255,1.415-1.419ZM858,973.971h3v2.007h-3v3.008h-2v-3.008h-3v-2.007h3v-3.009h2v3.009Z" transform="translate(-830 -947)" fill="#3c3c3c" fill-rule="evenodd"/>
</svg>
