<svg width="176" height="125" viewBox="-1 0 179 125" fill="none" xmlns="http://www.w3.org/2000/svg">
<path d="M25.28 116.73L26.3489 115.04L25.28 116.73ZM7.09 95.65L5.27538 96.4909L5.28159 96.5043L5.288 96.5176L7.09 95.65ZM7.09 29.52L5.28385 28.661L5.27935 28.6706L7.09 29.52ZM25.28 8.27L26.3489 9.96038L25.28 8.27ZM77.98 8.27L76.9111 9.96038L77.98 8.27ZM96 29.52L94.1854 30.3609L94.1916 30.3743L94.198 30.3876L96 29.52ZM96 95.65L94.1938 94.791L94.1894 94.8006L96 95.65ZM77.98 116.73L76.9111 115.04L77.98 116.73ZM68.63 91.4L66.9706 90.2836L66.9635 90.2941L66.9566 90.3047L68.63 91.4ZM68.63 33.6L66.9566 34.6953L66.9635 34.7059L66.9706 34.7163L68.63 33.6ZM34.63 33.6L32.9706 32.4836L32.9635 32.4941L32.9566 32.5047L34.63 33.6ZM34.63 91.4L32.9566 92.4953L32.9635 92.5059L32.9706 92.5164L34.63 91.4ZM51.63 122.04C42.1164 122.04 33.7097 119.694 26.3489 115.04L24.2111 118.42C32.2636 123.512 41.4236 126.04 51.63 126.04V122.04ZM26.3489 115.04C18.9951 110.389 13.1692 103.666 8.892 94.7824L5.288 96.5176C9.85084 105.994 16.1516 113.324 24.2111 118.42L26.3489 115.04ZM8.90462 94.8091C4.74666 85.8366 2.63 75.0869 2.63 62.5H-1.37C-1.37 75.5264 0.820012 86.8767 5.27538 96.4909L8.90462 94.8091ZM2.63 62.5C2.63 49.9121 4.74699 39.2233 8.90065 30.3694L5.27935 28.6706C0.819677 38.1767 -1.37 49.4746 -1.37 62.5H2.63ZM8.89613 30.379C13.1753 21.3818 19.0013 14.6067 26.3489 9.96038L24.2111 6.57961C16.1453 11.68 9.84469 19.0716 5.28387 28.661L8.89613 30.379ZM26.3489 9.96038C33.7097 5.30577 42.1164 2.96 51.63 2.96V-1.04C41.4236 -1.04 32.2636 1.48756 24.2111 6.57961L26.3489 9.96038ZM51.63 2.96C61.1436 2.96 69.5503 5.30577 76.9111 9.96038L79.0489 6.57961C70.9964 1.48756 61.8364 -1.04 51.63 -1.04V2.96ZM76.9111 9.96038C84.2536 14.6035 90.0199 21.3721 94.1854 30.3609L97.8146 28.6791C93.3668 19.0812 87.1197 11.6832 79.0489 6.57961L76.9111 9.96038ZM94.198 30.3876C98.4586 39.2366 100.63 49.9187 100.63 62.5H104.63C104.63 49.468 102.381 38.1634 97.802 28.6524L94.198 30.3876ZM100.63 62.5C100.63 75.0803 98.459 85.8234 94.1939 94.791L97.8061 96.509C102.381 86.8899 104.63 75.533 104.63 62.5H100.63ZM94.1894 94.8006C90.0259 103.675 84.26 110.393 76.9111 115.04L79.0489 118.42C87.1134 113.321 93.3608 105.985 97.8107 96.4994L94.1894 94.8006ZM76.9111 115.04C69.5503 119.694 61.1436 122.04 51.63 122.04V126.04C61.8364 126.04 70.9964 123.512 79.0489 118.42L76.9111 115.04ZM51.63 102.75C59.5798 102.75 65.866 99.2747 70.3034 92.4953L66.9566 90.3047C63.234 95.992 58.1869 98.75 51.63 98.75V102.75ZM70.2894 92.5164C74.8148 85.7894 76.92 75.6727 76.92 62.5H72.92C72.92 75.394 70.8318 84.5439 66.9706 90.2836L70.2894 92.5164ZM76.92 62.5C76.92 49.3273 74.8148 39.2106 70.2894 32.4836L66.9706 34.7163C70.8318 40.4561 72.92 49.606 72.92 62.5H76.92ZM70.3034 32.5047C65.866 25.7253 59.5798 22.25 51.63 22.25V26.25C58.1869 26.25 63.234 29.008 66.9566 34.6953L70.3034 32.5047ZM51.63 22.25C43.7839 22.25 37.5124 25.7323 32.9706 32.4836L36.2894 34.7163C40.1343 29.001 45.1961 26.25 51.63 26.25V22.25ZM32.9566 32.5047C28.5568 39.2265 26.51 49.3337 26.51 62.5H30.51C30.51 49.5997 32.5432 40.4401 36.3034 34.6953L32.9566 32.5047ZM26.51 62.5C26.51 75.6663 28.5568 85.7735 32.9566 92.4953L36.3034 90.3047C32.5432 84.5599 30.51 75.4003 30.51 62.5H26.51ZM32.9706 92.5164C37.5124 99.2677 43.7839 102.75 51.63 102.75V98.75C45.1961 98.75 40.1343 95.999 36.2894 90.2836L32.9706 92.5164ZM105.931 88.34L104.448 89.6826L104.462 89.6972L104.475 89.7116L105.931 88.34ZM105.931 63.05L104.462 61.6923L104.461 61.6934L105.931 63.05ZM128.521 63.05L127.038 64.3926L127.045 64.3996L127.051 64.4066L128.521 63.05ZM128.521 88.34L129.99 89.6966L129.997 89.6896L130.003 89.6826L128.521 88.34ZM154.801 59V57H153.745L153.149 57.8722L154.801 59ZM165.511 59L167.163 60.1278L169.298 57H165.511V59ZM122.491 122V124H123.547L124.143 123.128L122.491 122ZM111.781 122L110.129 120.872L107.993 124H111.781V122ZM122.041 83.12L120.413 81.9575L120.399 81.9771L120.386 81.997L122.041 83.12ZM122.041 68.18L120.386 69.303L120.399 69.3229L120.413 69.3425L122.041 68.18ZM112.501 68.27L114.128 69.4325L114.138 69.419L114.147 69.4055L112.501 68.27ZM112.501 83.12L110.854 84.2555L110.864 84.269L110.873 84.2825L112.501 83.12ZM151.921 120.65L150.873 122.353L150.898 122.369L150.924 122.384L151.921 120.65ZM146.431 114.53L148.22 113.636L146.431 114.53ZM146.431 96.17L148.22 97.0644L146.431 96.17ZM151.921 90.14L152.937 91.8627L152.943 91.8589L152.95 91.855L151.921 90.14ZM171.271 92.75L169.788 94.0926L169.802 94.1072L169.815 94.1216L171.271 92.75ZM171.271 118.04L169.802 116.682L169.801 116.683L171.271 118.04ZM164.791 112.82L163.144 111.685L163.14 111.691L163.136 111.697L164.791 112.82ZM164.791 97.97L163.118 99.0661L163.14 99.0997L163.163 99.1325L164.791 97.97ZM117.271 91.02C113.154 91.02 109.917 89.6539 107.386 86.9684L104.475 89.7116C107.825 93.2661 112.148 95.02 117.271 95.02V91.02ZM107.413 86.9974C104.939 84.2653 103.611 80.5535 103.611 75.65H99.6109C99.6109 81.3065 101.163 86.0547 104.448 89.6826L107.413 86.9974ZM103.611 75.65C103.611 70.7448 104.939 67.0727 107.4 64.4066L104.461 61.6934C101.162 65.2672 99.6109 69.9952 99.6109 75.65H103.611ZM107.399 64.4077C109.933 61.6669 113.167 60.28 117.271 60.28V56.28C112.135 56.28 107.808 58.0731 104.462 61.6923L107.399 64.4077ZM117.271 60.28C121.375 60.28 124.569 61.666 127.038 64.3926L130.003 61.7074C126.713 58.074 122.407 56.28 117.271 56.28V60.28ZM127.051 64.4066C129.512 67.0727 130.841 70.7448 130.841 75.65H134.841C134.841 69.9952 133.289 65.2672 129.99 61.6934L127.051 64.4066ZM130.841 75.65C130.841 80.5535 129.513 84.2653 127.038 86.9974L130.003 89.6826C133.289 86.0547 134.841 81.3065 134.841 75.65H130.841ZM127.051 86.9834C124.586 89.6546 121.388 91.02 117.271 91.02V95.02C122.394 95.02 126.696 93.2654 129.99 89.6966L127.051 86.9834ZM154.801 61H165.511V57H154.801V61ZM163.859 57.8722L120.839 120.872L124.143 123.128L167.163 60.1278L163.859 57.8722ZM122.491 120H111.781V124H122.491V120ZM113.433 123.128L156.453 60.1278L153.149 57.8722L110.129 120.872L113.433 123.128ZM117.271 87.64C119.97 87.64 122.181 86.4747 123.696 84.243L120.386 81.997C119.62 83.1253 118.652 83.64 117.271 83.64V87.64ZM123.668 84.2825C125.217 82.1148 125.841 79.137 125.841 75.65H121.841C121.841 78.763 121.265 80.7652 120.413 81.9575L123.668 84.2825ZM125.841 75.65C125.841 72.163 125.217 69.1851 123.668 67.0175L120.413 69.3425C121.265 70.5348 121.841 72.537 121.841 75.65H125.841ZM123.696 67.057C122.181 64.8253 119.97 63.66 117.271 63.66V67.66C118.652 67.66 119.62 68.1747 120.386 69.303L123.696 67.057ZM117.271 63.66C114.583 63.66 112.398 64.8964 110.854 67.1345L114.147 69.4055C115.004 68.1636 115.999 67.66 117.271 67.66V63.66ZM110.873 67.1075C109.329 69.2703 108.701 72.2135 108.701 75.65H112.701C112.701 72.6065 113.273 70.6297 114.128 69.4325L110.873 67.1075ZM108.701 75.65C108.701 79.0938 109.331 82.0471 110.854 84.2555L114.147 81.9845C113.27 80.7129 112.701 78.6862 112.701 75.65H108.701ZM110.873 84.2825C112.43 86.4615 114.613 87.64 117.271 87.64V83.64C115.969 83.64 114.972 83.1385 114.128 81.9575L110.873 84.2825ZM160.021 120.72C157.341 120.72 154.989 120.107 152.918 118.916L150.924 122.384C153.652 123.953 156.701 124.72 160.021 124.72V120.72ZM152.969 118.947C150.97 117.717 149.386 115.968 148.22 113.636L144.642 115.424C146.116 118.372 148.192 120.703 150.873 122.353L152.969 118.947ZM148.22 113.636C147.061 111.319 146.451 108.575 146.451 105.35H142.451C142.451 109.085 143.16 112.461 144.642 115.424L148.22 113.636ZM146.451 105.35C146.451 102.125 147.061 99.3811 148.22 97.0644L144.642 95.2756C143.16 98.2388 142.451 101.615 142.451 105.35H146.451ZM148.22 97.0644C149.383 94.7382 150.958 93.03 152.937 91.8627L150.905 88.4173C148.204 90.01 146.119 92.3218 144.642 95.2756L148.22 97.0644ZM152.95 91.855C155.017 90.6149 157.356 89.98 160.021 89.98V85.98C156.685 85.98 153.625 86.7851 150.892 88.425L152.95 91.855ZM160.021 89.98C164.125 89.98 167.319 91.366 169.788 94.0926L172.753 91.4074C169.463 87.774 165.157 85.98 160.021 85.98V89.98ZM169.815 94.1216C172.329 96.789 173.681 100.456 173.681 105.35H177.681C177.681 99.6843 176.093 94.951 172.726 91.3784L169.815 94.1216ZM173.681 105.35C173.681 110.243 172.329 113.949 169.802 116.682L172.739 119.398C176.092 115.771 177.681 111.017 177.681 105.35H173.681ZM169.801 116.683C167.336 119.355 164.138 120.72 160.021 120.72V124.72C165.144 124.72 169.446 122.965 172.74 119.397L169.801 116.683ZM160.021 117.34C162.72 117.34 164.931 116.175 166.446 113.943L163.136 111.697C162.37 112.825 161.402 113.34 160.021 113.34V117.34ZM166.437 113.955C167.96 111.747 168.591 108.794 168.591 105.35H164.591C164.591 108.386 164.021 110.413 163.144 111.685L166.437 113.955ZM168.591 105.35C168.591 101.913 167.963 98.9703 166.418 96.8075L163.163 99.1325C164.019 100.33 164.591 102.307 164.591 105.35H168.591ZM166.464 96.8739C164.963 94.5833 162.751 93.36 160.021 93.36V97.36C161.371 97.36 162.339 97.8767 163.118 99.0661L166.464 96.8739ZM160.021 93.36C157.363 93.36 155.18 94.5385 153.623 96.7175L156.878 99.0425C157.722 97.8615 158.719 97.36 160.021 97.36V93.36ZM153.623 96.7175C152.075 98.8852 151.451 101.863 151.451 105.35H155.451C155.451 102.237 156.027 100.235 156.878 99.0425L153.623 96.7175ZM151.451 105.35C151.451 108.837 152.075 111.815 153.623 113.982L156.878 111.658C156.027 110.465 155.451 108.463 155.451 105.35H151.451ZM153.623 113.982C155.18 116.162 157.363 117.34 160.021 117.34V113.34C158.719 113.34 157.722 112.838 156.878 111.658L153.623 113.982Z" fill="#FC369B"/>
</svg>
