<svg xmlns="http://www.w3.org/2000/svg" width="26.15" height="14.81" viewBox="0 0 26.15 14.81">
  <defs>
    <style>
      .cls-1 {
        fill: #aca8c3;
        fill-rule: evenodd;
      }
    </style>
  </defs>
  <path id="vk" class="cls-1" d="M2417.73,2401.95a34.635,34.635,0,0,0-2.56-2.58,1.3,1.3,0,0,1-.21-2.09c0.69-.96,1.43-1.89,2.12-2.84a10.347,10.347,0,0,0,1.65-2.86,0.722,0.722,0,0,0-.68-1.1,2.186,2.186,0,0,0-.36-0.03h-4.15a0.914,0.914,0,0,0-.97.67c-0.25.61-.5,1.22-0.79,1.81a15.025,15.025,0,0,1-2.42,3.73,0.841,0.841,0,0,1-.86.42,1.379,1.379,0,0,1-.61-1.22l-0.01-4.79a1.02,1.02,0,0,0-.92-1.12h-4.3a1.353,1.353,0,0,0-1.17.58c-0.18.21-.23,0.35,0.13,0.41a1.437,1.437,0,0,1,1.22,1.32,14.657,14.657,0,0,1,.06,3.44,3.032,3.032,0,0,1-.22.99,0.577,0.577,0,0,1-.98.29,4.175,4.175,0,0,1-.96-1.05,23.843,23.843,0,0,1-2.53-4.69,1.074,1.074,0,0,0-1.03-.77c-1.25-.02-2.49-0.03-3.73,0-0.75.01-.97,0.37-0.67,1.05a45.844,45.844,0,0,0,4.83,8.62,12.027,12.027,0,0,0,3.67,3.43,9.686,9.686,0,0,0,5.45,1.17,1.008,1.008,0,0,0,1.22-1.17,4.032,4.032,0,0,1,.4-1.78,0.8,0.8,0,0,1,1.27-.31,3.613,3.613,0,0,1,.68.61c0.51,0.56,1,1.13,1.53,1.67a2.918,2.918,0,0,0,2.43.98l3.81,0.01a0.953,0.953,0,0,0,.58-1.48A7.6,7.6,0,0,0,2417.73,2401.95Z" transform="translate(-2392.66 -2389.94)"/>
</svg>
