<?xml version="1.0" standalone="no"?>
<!DOCTYPE svg PUBLIC "-//W3C//DTD SVG 20010904//EN"
 "http://www.w3.org/TR/2001/REC-SVG-20010904/DTD/svg10.dtd">
<svg version="1.0" xmlns="http://www.w3.org/2000/svg"
 width="700.000000pt" height="700.000000pt" viewBox="0 0 700.000000 700.000000"
 preserveAspectRatio="xMidYMid meet">
<metadata>
Created by potrace 1.11, written by Peter Selinger 2001-2013
</metadata>
<g transform="translate(0.000000,700.000000) scale(0.100000,-0.100000)"
fill="#000000" stroke="none">
<path d="M3420 4566 c-125 -27 -229 -110 -284 -225 -29 -61 -31 -74 -31 -171
0 -97 2 -110 32 -172 98 -208 343 -294 548 -194 72 36 149 116 188 195 29 61
32 74 32 166 -1 128 -24 191 -103 276 -64 69 -140 112 -227 128 -70 13 -84 13
-155 -3z"/>
<path d="M2511 3985 c-30 -9 -68 -24 -85 -35 -17 -10 -186 -174 -376 -364
l-345 -346 -345 344 c-252 250 -358 349 -392 365 -179 85 -390 4 -459 -178
-30 -81 -24 -196 15 -267 20 -37 166 -189 514 -536 462 -461 490 -487 547
-508 48 -18 75 -21 135 -18 129 8 141 17 533 407 l348 346 343 -345 c244 -243
359 -351 393 -369 70 -36 178 -40 258 -11 56 21 82 44 413 374 l352 351 354
-355 c409 -410 416 -415 550 -415 150 1 133 -13 693 548 563 563 548 544 548
697 0 102 -24 160 -95 230 -68 68 -128 93 -225 94 -145 2 -133 11 -545 -400
-201 -200 -370 -364 -375 -364 -6 0 -168 158 -360 351 -245 245 -365 358 -400
377 -44 24 -61 27 -145 27 -148 0 -147 1 -545 -396 l-340 -338 -355 353 c-317
316 -360 355 -405 370 -73 24 -142 28 -204 11z"/>
</g>
</svg>
